<svg width="100" height="70" viewBox="0 0 100 70" fill="none" xmlns="http://www.w3.org/2000/svg">
<path d="M34.9944 45.0165L38.739 40.504L34.3337 52.5009H42.8138L52.6156 40.8342L48.2104 52.5009H57.3513L81.5804 21.4631L69.3558 55.1424H33.5627L28.4967 69.7807L42.0429 69.8908L45.0165 62.4064H80.1487L77.3954 69.5606H91.4923L96.4483 55.2524H82.5715L99.9725 8.14552L86.206 8.03546L61.7565 39.5135L66.1619 27.2964H57.5715L47.6596 39.0731L51.7346 27.2964L43.3646 27.4064L34.4438 36.9821C34.5319 35.3091 33.8933 33.4231 33.5627 32.6895C34.0033 32.3593 35.0165 31.5889 35.5452 31.1487C36.3162 30.7085 38.2985 27.7368 38.5187 27.5165C38.695 27.3405 39.5467 25.4622 39.9504 24.5448C39.9873 24.6549 40.1708 24.2807 40.6112 21.9035C41.1398 17.765 38.6288 16.1434 37.3073 15.8499H13.8491C11.5584 15.8499 9.73752 18.1246 9.11344 19.2619L6.36013 27.1863H17.4835C17.5202 27.003 17.7698 26.1739 18.4747 24.3247C19.3558 22.0135 20.0165 22.4537 20.4571 22.0135C20.8094 21.6612 22.3662 21.5731 23.1002 21.5731H25.7435C27.5056 21.5731 27.946 23.2241 28.0562 24.1046C28.1663 24.9852 27.6156 26.0858 26.7346 27.7368C26.0298 29.0575 24.7521 29.6077 24.2015 29.7178H19.1355L17.7037 34.5606H20.3469C22.1971 34.5606 22.8065 35.5511 22.88 36.0464V37.9725C22.88 39.4694 21.6317 42.1918 21.0077 43.3657C20.2367 45.0165 19.6862 45.2368 19.3558 45.567C19.1311 45.7914 18.6215 45.8971 18.3645 45.8971H12.8579C12.5275 45.8971 12.1971 45.4569 11.9769 45.1267C11.7126 44.9506 11.7199 43.8792 11.7566 43.3657L12.9681 39.9537H1.62445C1.18392 41.3845 0.258812 44.4223 0.0825991 45.1267C-0.027533 46.0072 -0.027533 46.1172 0.0825991 47.548C0.515738 48.8465 1.37475 49.507 2.76433 50.5747L2.8359 50.6297C3.89317 51.6863 7.90198 52.3175 9.77423 52.5009H23.651C25.4131 52.5009 27.1752 51.9506 28.7169 51.1802C29.9504 50.5638 33.4158 46.8143 34.9944 45.0165Z" fill="#242424"/>
<path d="M59.0035 17.6101L67.4837 23.9937H67.5937L67.2633 13.6478L78.607 8.0346H67.0431L66.8229 0L59.8845 8.0346L46.1179 7.92452L54.4881 14.3082L46.2281 23.8836L59.0035 17.6101Z" fill="#242424"/>
</svg>
