<svg width="220" height="110" viewBox="0 0 220 110" fill="none" xmlns="http://www.w3.org/2000/svg">
<path d="M94.9944 65.0167L98.739 60.5042L94.3337 72.501H102.814L112.616 60.8344L108.21 72.501H117.351L141.58 41.4632L129.356 75.1426H93.5627L88.4967 89.7809L102.043 89.891L105.017 82.4066H140.149L137.395 89.5608H151.492L156.448 75.2526H142.572L159.972 28.1457L146.206 28.0356L121.757 59.5137L126.162 47.2966H117.572L107.66 59.0733L111.735 47.2966L103.365 47.4066L94.4438 56.9822C94.5319 55.3092 93.8933 53.4233 93.5627 52.6897C94.0033 52.3595 95.0165 51.5891 95.5452 51.1489C96.3162 50.7087 98.2985 47.737 98.5187 47.5167C98.695 47.3407 99.5467 45.4624 99.9504 44.545C99.9873 44.655 100.171 44.2809 100.611 41.9037C101.14 37.7652 98.6288 36.1436 97.3073 35.8501H73.8491C71.5584 35.8501 69.7375 38.1247 69.1134 39.262L66.3601 47.1865H77.4835C77.5202 47.0032 77.7698 46.174 78.4747 44.3249C79.3558 42.0137 80.0165 42.4539 80.4571 42.0137C80.8094 41.6614 82.3662 41.5733 83.1002 41.5733H85.7435C87.5056 41.5733 87.946 43.2243 88.0562 44.1048C88.1663 44.9854 87.6156 46.086 86.7346 47.737C86.0298 49.0577 84.7521 49.6079 84.2015 49.718H79.1355L77.7037 54.5608H80.3469C82.1971 54.5608 82.8065 55.5513 82.88 56.0466V57.9727C82.88 59.4696 81.6317 62.192 81.0077 63.3658C80.2367 65.0167 79.6862 65.237 79.3558 65.5672C79.1311 65.7915 78.6215 65.8973 78.3645 65.8973H72.8579C72.5275 65.8973 72.1971 65.4571 71.9769 65.1269C71.7126 64.9508 71.7199 63.8794 71.7566 63.3658L72.9681 59.9539H61.6244C61.1839 61.3847 60.2588 64.4225 60.0826 65.1269C59.9725 66.0074 59.9725 66.1174 60.0826 67.5482C60.5157 68.8467 61.3748 69.5072 62.7643 70.5749L62.8359 70.6299C63.8932 71.6865 67.902 72.3177 69.7742 72.501H83.651C85.4131 72.501 87.1752 71.9508 88.7169 71.1804C89.9504 70.564 93.4158 66.8145 94.9944 65.0167Z" fill="#242424"/>
<path d="M119.003 37.6101L127.484 43.9937H127.594L127.263 33.6478L138.607 28.0346H127.043L126.823 20L119.884 28.0346L106.118 27.9245L114.488 34.3082L106.228 43.8836L119.003 37.6101Z" fill="#242424"/>
</svg>
