<svg width="185" height="51" viewBox="0 0 185 51" fill="none" xmlns="http://www.w3.org/2000/svg">
<path d="M98.5501 2.26616C99.2211 2.26616 99.7981 2.5077 100.281 2.99078C100.791 3.44702 101.046 4.02403 101.046 4.7218V28.0302C101.046 28.728 100.818 29.3184 100.362 29.8015C99.9054 30.2578 99.3016 30.4859 98.5501 30.4859C97.7987 30.4859 97.1814 30.2578 96.6983 29.8015C96.2421 29.3453 96.014 28.7549 96.014 28.0302V11.8069L89.3717 21.9515C89.1033 22.2736 88.7947 22.542 88.4458 22.7567C88.0969 22.9445 87.7346 23.025 87.3589 22.9982C87.01 23.025 86.6611 22.9445 86.3122 22.7567C85.9633 22.542 85.6547 22.2736 85.3863 21.9515L78.744 11.4446V28.0302C78.744 28.7549 78.5293 29.3453 78.0999 29.8015C77.6705 30.2578 77.1069 30.4859 76.4091 30.4859C75.7382 30.4859 75.188 30.2578 74.7586 29.8015C74.3292 29.3184 74.1145 28.728 74.1145 28.0302V4.7218C74.1145 4.05086 74.356 3.47386 74.8391 2.99078C75.349 2.5077 75.9529 2.26616 76.6507 2.26616C77.0532 2.26616 77.4558 2.37351 77.8583 2.58822C78.2609 2.77608 78.5695 3.03103 78.7842 3.35309L87.5601 16.839L96.5776 3.35309C96.7923 3.03103 97.0741 2.77608 97.4229 2.58822C97.7987 2.37351 98.1744 2.26616 98.5501 2.26616Z" fill="#242424"/>
<path d="M126.018 19.2141C125.992 19.8582 125.737 20.3815 125.254 20.7841C124.771 21.1867 124.207 21.3879 123.563 21.3879H110.278C110.6 22.9714 111.338 24.2193 112.492 25.1318C113.646 26.0174 114.948 26.4602 116.397 26.4602C117.498 26.4602 118.356 26.3663 118.974 26.1784C119.591 25.9637 120.074 25.7491 120.423 25.5343C120.799 25.2928 121.054 25.1318 121.188 25.0513C121.671 24.8097 122.127 24.689 122.556 24.689C123.12 24.689 123.603 24.8902 124.006 25.2928C124.408 25.6954 124.61 26.165 124.61 26.7018C124.61 27.4264 124.234 28.0839 123.482 28.6743C122.731 29.2916 121.724 29.8149 120.463 30.2443C119.202 30.6737 117.927 30.8884 116.639 30.8884C114.384 30.8884 112.412 30.4188 110.721 29.4795C109.057 28.5402 107.769 27.252 106.856 25.6149C105.944 23.9509 105.488 22.0857 105.488 20.0192C105.488 17.7112 105.971 15.685 106.937 13.9405C107.903 12.1961 109.178 10.8676 110.761 9.95513C112.345 9.01582 114.036 8.54616 115.834 8.54616C117.605 8.54616 119.269 9.02923 120.825 9.99539C122.409 10.9615 123.67 12.2632 124.61 13.9003C125.549 15.5373 126.018 17.3086 126.018 19.2141ZM115.834 12.9744C112.72 12.9744 110.882 14.437 110.319 17.3623H120.866V17.0805C120.758 15.9533 120.208 14.9872 119.215 14.182C118.222 13.3769 117.095 12.9744 115.834 12.9744Z" fill="#242424"/>
<path d="M147.478 0.696167C148.176 0.696167 148.753 0.924286 149.209 1.38052C149.666 1.83676 149.894 2.42719 149.894 3.1518V28.0302C149.894 28.728 149.666 29.3184 149.209 29.8015C148.753 30.2578 148.176 30.4859 147.478 30.4859C146.781 30.4859 146.203 30.2578 145.747 29.8015C145.318 29.3453 145.09 28.7683 145.063 28.0705C144.392 28.8488 143.479 29.5197 142.325 30.0833C141.198 30.6201 140.004 30.8884 138.743 30.8884C136.891 30.8884 135.214 30.4188 133.711 29.4795C132.208 28.5133 131.013 27.1849 130.128 25.4941C129.269 23.8033 128.84 21.8844 128.84 19.7374C128.84 17.5904 129.269 15.6715 130.128 13.9808C130.987 12.2632 132.154 10.9347 133.63 9.99539C135.133 9.02923 136.784 8.54616 138.582 8.54616C139.87 8.54616 141.078 8.7877 142.205 9.27077C143.332 9.72701 144.285 10.3174 145.063 11.0421V3.1518C145.063 2.45403 145.291 1.87702 145.747 1.42078C146.203 0.937705 146.781 0.696167 147.478 0.696167ZM139.346 26.4602C141.091 26.4602 142.513 25.8296 143.614 24.5682C144.714 23.28 145.264 21.6697 145.264 19.7374C145.264 17.8051 144.714 16.1949 143.614 14.9067C142.513 13.6185 141.091 12.9744 139.346 12.9744C137.629 12.9744 136.22 13.6185 135.12 14.9067C134.019 16.1949 133.469 17.8051 133.469 19.7374C133.469 21.6697 134.006 23.28 135.079 24.5682C136.18 25.8296 137.602 26.4602 139.346 26.4602Z" fill="#242424"/>
<path d="M159.678 28.0302C159.678 28.728 159.45 29.3184 158.993 29.8015C158.537 30.2578 157.96 30.4859 157.262 30.4859C156.565 30.4859 155.988 30.2578 155.531 29.8015C155.075 29.3184 154.847 28.728 154.847 28.0302V11.4044C154.847 10.7066 155.075 10.1296 155.531 9.67334C155.988 9.19026 156.565 8.94872 157.262 8.94872C157.96 8.94872 158.537 9.19026 158.993 9.67334C159.45 10.1296 159.678 10.7066 159.678 11.4044V28.0302ZM157.222 6.33206C156.31 6.33206 155.666 6.18445 155.29 5.88924C154.914 5.59402 154.726 5.07069 154.726 4.31924V3.55437C154.726 2.80292 154.928 2.27958 155.33 1.98437C155.733 1.68916 156.377 1.54155 157.262 1.54155C158.202 1.54155 158.859 1.68916 159.235 1.98437C159.611 2.27958 159.799 2.80292 159.799 3.55437V4.31924C159.799 5.09753 159.597 5.63428 159.195 5.9295C158.819 6.19787 158.162 6.33206 157.222 6.33206Z" fill="#242424"/>
<path d="M182.074 8.54616C182.771 8.54616 183.348 8.77428 183.805 9.23052C184.261 9.68676 184.489 10.2772 184.489 11.0018V28.0302C184.489 28.728 184.261 29.3184 183.805 29.8015C183.348 30.2578 182.771 30.4859 182.074 30.4859C181.376 30.4859 180.799 30.2578 180.343 29.8015C179.913 29.3453 179.685 28.7683 179.658 28.0705C178.987 28.8488 178.075 29.5197 176.921 30.0833C175.794 30.6201 174.599 30.8884 173.338 30.8884C171.486 30.8884 169.809 30.4188 168.306 29.4795C166.803 28.5133 165.609 27.1849 164.723 25.4941C163.864 23.8033 163.435 21.8844 163.435 19.7374C163.435 17.5904 163.864 15.6715 164.723 13.9808C165.582 12.2632 166.749 10.9347 168.225 9.99539C169.728 9.02923 171.379 8.54616 173.177 8.54616C174.465 8.54616 175.673 8.7877 176.8 9.27077C177.927 9.72701 178.88 10.3174 179.658 11.0421V11.0018C179.658 10.304 179.886 9.72701 180.343 9.27077C180.799 8.7877 181.376 8.54616 182.074 8.54616ZM173.942 26.4602C175.686 26.4602 177.109 25.8296 178.209 24.5682C179.309 23.28 179.86 21.6697 179.86 19.7374C179.86 17.8051 179.309 16.1949 178.209 14.9067C177.109 13.6185 175.686 12.9744 173.942 12.9744C172.224 12.9744 170.815 13.6185 169.715 14.9067C168.615 16.1949 168.064 17.8051 168.064 19.7374C168.064 21.6697 168.601 23.28 169.675 24.5682C170.775 25.8296 172.197 26.4602 173.942 26.4602Z" fill="#242424"/>
<path d="M0.753705 30.486C0.515693 30.486 0.330572 30.4199 0.198343 30.2877C0.0661144 30.1555 0 29.9836 0 29.772C0 29.6133 0.0396687 29.4547 0.119006 29.296L15.1138 3.70968C15.5105 3.04853 16.0394 2.71796 16.7005 2.71796H21.3021C21.9897 2.71796 22.3864 3.04853 22.4921 3.70968L26.6177 29.296C26.6441 29.3753 26.6574 29.4679 26.6574 29.5737C26.6574 29.8117 26.5912 30.01 26.459 30.1687C26.2739 30.3803 26.0359 30.486 25.745 30.486H22.3731C21.712 30.486 21.3418 30.1819 21.2624 29.5737L20.3897 24.8928H8.60811L5.71229 29.7323C5.3685 30.2348 4.93214 30.486 4.40322 30.486H0.753705ZM19.993 20.3309L18.0889 8.07323L10.9486 20.3309H19.993Z" fill="#05C8B2"/>
<path d="M33.4909 30.486C33.2264 30.486 33.0017 30.3935 32.8165 30.2084C32.6314 30.0232 32.5389 29.7984 32.5389 29.534V3.70968C32.5389 3.41877 32.6182 3.18076 32.7769 2.99564C32.962 2.81052 33.2 2.71796 33.4909 2.71796H44.1221C47.3221 2.71796 49.8344 3.47166 51.6592 4.97907C53.4839 6.48648 54.3963 8.68149 54.3963 11.5641C54.3963 14.4202 53.4839 16.5888 51.6592 18.0697C49.8344 19.5243 47.3221 20.2515 44.1221 20.2515H38.2908V29.534C38.2908 29.8249 38.1983 30.0629 38.0131 30.248C37.828 30.4067 37.59 30.486 37.2991 30.486H33.4909ZM43.9238 15.8086C45.4576 15.8086 46.6212 15.4516 47.4146 14.7376C48.2344 13.9971 48.6443 12.926 48.6443 11.5244C48.6443 10.1492 48.2477 9.07817 47.4543 8.31124C46.6874 7.54432 45.5105 7.16085 43.9238 7.16085H38.2115V15.8086H43.9238Z" fill="#05C8B2"/>
<path d="M59.6784 30.486C59.414 30.486 59.1892 30.3935 59.0041 30.2084C58.819 30.0232 58.7264 29.7984 58.7264 29.534V3.67C58.7264 3.3791 58.819 3.15431 59.0041 2.99564C59.1892 2.81052 59.414 2.71796 59.6784 2.71796H63.4866C63.7775 2.71796 64.0023 2.81052 64.161 2.99564C64.3461 3.15431 64.4387 3.3791 64.4387 3.67V29.534C64.4387 29.7984 64.3461 30.0232 64.161 30.2084C64.0023 30.3935 63.7775 30.486 63.4866 30.486H59.6784Z" fill="#05C8B2"/>
<path d="M154.684 0.7229L160.267 0.779801V6.53445L154.684 6.59974V0.7229Z" fill="white"/>
<circle cx="156.956" cy="4.03429" r="2.64458" fill="#05C8B2"/>
<path d="M2.43502 44.1475C2.43502 43.9753 2.5174 43.8891 2.68217 43.8891H5.64796V43.6307C5.64796 42.6796 5.45698 41.9831 5.07502 41.5412C4.69307 41.0918 4.15757 40.8672 3.46855 40.8672C3.16149 40.8672 2.88812 40.9009 2.64846 40.9683C2.41629 41.0282 2.21408 41.1143 2.04182 41.2266C1.87706 41.339 1.74225 41.4701 1.6374 41.6198C1.54004 41.7696 1.46889 41.9269 1.42395 42.0917C1.40148 42.1815 1.37153 42.2452 1.33408 42.2827C1.30412 42.3126 1.25169 42.3276 1.1768 42.3276H0.95212C0.884716 42.3276 0.8248 42.3089 0.772375 42.2714C0.727438 42.2265 0.708715 42.1703 0.716204 42.1029C0.746162 41.8258 0.83229 41.5712 0.974588 41.339C1.12438 41.0993 1.31535 40.8971 1.54753 40.7324C1.78719 40.5601 2.06804 40.429 2.39008 40.3392C2.71212 40.2418 3.07161 40.1931 3.46855 40.1931C3.87298 40.1931 4.24745 40.2568 4.59196 40.3841C4.93647 40.5039 5.23605 40.6986 5.49068 40.9683C5.74532 41.2379 5.94754 41.5936 6.09732 42.0355C6.2546 42.4699 6.34073 43.0016 6.35571 43.6307C6.3632 43.8554 6.36694 44.0614 6.36694 44.2486C6.36694 44.4284 6.3632 44.6268 6.35571 44.844C6.34073 45.4731 6.2546 46.0086 6.09732 46.4505C5.94754 46.8849 5.74532 47.2369 5.49068 47.5065C5.23605 47.7761 4.93647 47.9746 4.59196 48.1019C4.24745 48.2217 3.87298 48.2816 3.46855 48.2816C3.07161 48.2816 2.71212 48.2367 2.39008 48.1468C2.06804 48.0495 1.78719 47.9184 1.54753 47.7536C1.31535 47.5814 1.12438 47.3792 0.974588 47.147C0.83229 46.9073 0.746162 46.649 0.716204 46.3719C0.708715 46.3044 0.727438 46.252 0.772375 46.2146C0.8248 46.1696 0.884716 46.1472 0.95212 46.1472H1.1768C1.25169 46.1472 1.30412 46.1659 1.33408 46.2033C1.37153 46.2333 1.40148 46.2932 1.42395 46.3831C1.46889 46.5553 1.54004 46.7164 1.6374 46.8662C1.74225 47.0085 1.87706 47.1358 2.04182 47.2481C2.21408 47.3605 2.41629 47.4503 2.64846 47.5177C2.88812 47.5776 3.16149 47.6076 3.46855 47.6076C4.16506 47.6076 4.70055 47.3642 5.07502 46.8774C5.45698 46.3831 5.64796 45.7053 5.64796 44.844V44.5632H2.68217C2.5174 44.5632 2.43502 44.477 2.43502 44.3048V44.1475Z" fill="#242424"/>
<path d="M9.90699 48.2816C9.49507 48.2816 9.15056 48.2068 8.87346 48.057C8.60384 47.8997 8.3829 47.6975 8.21064 47.4503C8.04588 47.1957 7.92605 46.9111 7.85115 46.5965C7.77626 46.2745 7.73507 45.9487 7.72758 45.6192C7.72009 45.5068 7.71635 45.3833 7.71635 45.2484C7.71635 45.1136 7.72009 44.9901 7.72758 44.8777C7.73507 44.5482 7.77626 44.2261 7.85115 43.9116C7.92605 43.5895 8.04588 43.305 8.21064 43.0578C8.3829 42.8032 8.60384 42.601 8.87346 42.4512C9.15056 42.2939 9.49507 42.2152 9.90699 42.2152C10.3189 42.2152 10.6709 42.3014 10.963 42.4736C11.2551 42.6384 11.4947 42.8481 11.682 43.1027V40.4403C11.682 40.2755 11.7644 40.1931 11.9291 40.1931H12.1201C12.2849 40.1931 12.3673 40.2755 12.3673 40.4403V43.1027C12.5545 42.8481 12.7941 42.6384 13.0862 42.4736C13.3783 42.3014 13.7303 42.2152 14.1422 42.2152C14.5541 42.2152 14.8949 42.2939 15.1645 42.4512C15.4416 42.601 15.6626 42.8032 15.8273 43.0578C15.9996 43.305 16.1194 43.5895 16.1868 43.9116C16.2617 44.2261 16.3067 44.5482 16.3216 44.8777C16.3291 44.9901 16.3329 45.1136 16.3329 45.2484C16.3329 45.3833 16.3291 45.5068 16.3216 45.6192C16.3067 45.9487 16.2617 46.2745 16.1868 46.5965C16.1194 46.9111 15.9996 47.1957 15.8273 47.4503C15.6626 47.6975 15.4416 47.8997 15.1645 48.057C14.8949 48.2068 14.5541 48.2816 14.1422 48.2816C13.7303 48.2816 13.3783 48.1955 13.0862 48.0233C12.7941 47.851 12.5545 47.6413 12.3673 47.3942V50.0566C12.3673 50.2214 12.2849 50.3038 12.1201 50.3038H11.9291C11.7644 50.3038 11.682 50.2214 11.682 50.0566V47.3942C11.4947 47.6413 11.2551 47.851 10.963 48.0233C10.6709 48.1955 10.3189 48.2816 9.90699 48.2816ZM11.682 44.844C11.6745 44.6118 11.6333 44.3797 11.5584 44.1475C11.491 43.9153 11.3861 43.7056 11.2438 43.5184C11.109 43.3237 10.9368 43.1664 10.7271 43.0466C10.5174 42.9267 10.2665 42.8668 9.97439 42.8668C9.70478 42.8668 9.4726 42.9267 9.27788 43.0466C9.08316 43.1589 8.92214 43.3124 8.79482 43.5072C8.67499 43.6944 8.58137 43.9116 8.51396 44.1587C8.45405 44.4059 8.42035 44.6643 8.41286 44.9339C8.40537 45.1436 8.40537 45.3533 8.41286 45.563C8.42035 45.8326 8.45405 46.0947 8.51396 46.3494C8.58137 46.5965 8.67499 46.8175 8.79482 47.0122C8.92214 47.1994 9.08316 47.3492 9.27788 47.4616C9.4726 47.5739 9.70478 47.6301 9.97439 47.6301C10.259 47.6301 10.5061 47.5739 10.7158 47.4616C10.9255 47.3417 11.1015 47.1919 11.2438 47.0122C11.3861 46.8324 11.491 46.6302 11.5584 46.4056C11.6333 46.1734 11.6745 45.945 11.682 45.7203C11.6895 45.6079 11.6932 45.4619 11.6932 45.2821C11.6932 45.1024 11.6895 44.9564 11.682 44.844ZM12.3673 44.844C12.3598 44.9564 12.356 45.1024 12.356 45.2821C12.356 45.4619 12.3598 45.6079 12.3673 45.7203C12.3747 45.945 12.4122 46.1734 12.4796 46.4056C12.5545 46.6302 12.6631 46.8324 12.8054 47.0122C12.9477 47.1919 13.1237 47.3417 13.3334 47.4616C13.5431 47.5739 13.7902 47.6301 14.0748 47.6301C14.3444 47.6301 14.5766 47.5739 14.7713 47.4616C14.9661 47.3492 15.1233 47.1994 15.2432 47.0122C15.3705 46.8175 15.4641 46.5965 15.524 46.3494C15.5839 46.0947 15.6214 45.8326 15.6364 45.563C15.6439 45.3533 15.6439 45.1436 15.6364 44.9339C15.6214 44.6643 15.5839 44.4059 15.524 44.1587C15.4641 43.9116 15.3705 43.6944 15.2432 43.5072C15.1233 43.3124 14.9661 43.1589 14.7713 43.0466C14.5766 42.9267 14.3444 42.8668 14.0748 42.8668C13.7827 42.8668 13.5318 42.9267 13.3221 43.0466C13.1124 43.1664 12.9364 43.3237 12.7941 43.5184C12.6593 43.7056 12.5545 43.9153 12.4796 44.1475C12.4122 44.3797 12.3747 44.6118 12.3673 44.844Z" fill="#242424"/>
<path d="M19.7807 48.2816C19.3688 48.2816 19.0243 48.2068 18.7471 48.057C18.4775 47.8997 18.2566 47.6975 18.0843 47.4503C17.9196 47.1957 17.7997 46.9111 17.7248 46.5965C17.65 46.2745 17.6088 45.9487 17.6013 45.6192C17.5938 45.5068 17.59 45.3833 17.59 45.2484C17.59 45.1136 17.5938 44.9901 17.6013 44.8777C17.6088 44.5482 17.65 44.2261 17.7248 43.9116C17.7997 43.5895 17.9196 43.305 18.0843 43.0578C18.2566 42.8032 18.4775 42.601 18.7471 42.4512C19.0243 42.2939 19.3688 42.2152 19.7807 42.2152C20.1926 42.2152 20.5446 42.3014 20.8367 42.4736C21.1288 42.6384 21.3684 42.8481 21.5557 43.1027V40.4403C21.5557 40.2755 21.638 40.1931 21.8028 40.1931H21.9938C22.1586 40.1931 22.2409 40.2755 22.2409 40.4403V43.1027C22.4282 42.8481 22.6678 42.6384 22.9599 42.4736C23.252 42.3014 23.604 42.2152 24.0159 42.2152C24.4278 42.2152 24.7686 42.2939 25.0382 42.4512C25.3153 42.601 25.5363 42.8032 25.701 43.0578C25.8733 43.305 25.9931 43.5895 26.0605 43.9116C26.1354 44.2261 26.1804 44.5482 26.1953 44.8777C26.2028 44.9901 26.2066 45.1136 26.2066 45.2484C26.2066 45.3833 26.2028 45.5068 26.1953 45.6192C26.1804 45.9487 26.1354 46.2745 26.0605 46.5965C25.9931 46.9111 25.8733 47.1957 25.701 47.4503C25.5363 47.6975 25.3153 47.8997 25.0382 48.057C24.7686 48.2068 24.4278 48.2816 24.0159 48.2816C23.604 48.2816 23.252 48.1955 22.9599 48.0233C22.6678 47.851 22.4282 47.6413 22.2409 47.3942V50.0566C22.2409 50.2214 22.1586 50.3038 21.9938 50.3038H21.8028C21.638 50.3038 21.5557 50.2214 21.5557 50.0566V47.3942C21.3684 47.6413 21.1288 47.851 20.8367 48.0233C20.5446 48.1955 20.1926 48.2816 19.7807 48.2816ZM21.5557 44.844C21.5482 44.6118 21.507 44.3797 21.4321 44.1475C21.3647 43.9153 21.2598 43.7056 21.1175 43.5184C20.9827 43.3237 20.8105 43.1664 20.6008 43.0466C20.3911 42.9267 20.1402 42.8668 19.8481 42.8668C19.5785 42.8668 19.3463 42.9267 19.1516 43.0466C18.9569 43.1589 18.7958 43.3124 18.6685 43.5072C18.5487 43.6944 18.4551 43.9116 18.3877 44.1587C18.3277 44.4059 18.294 44.6643 18.2866 44.9339C18.2791 45.1436 18.2791 45.3533 18.2866 45.563C18.294 45.8326 18.3277 46.0947 18.3877 46.3494C18.4551 46.5965 18.5487 46.8175 18.6685 47.0122C18.7958 47.1994 18.9569 47.3492 19.1516 47.4616C19.3463 47.5739 19.5785 47.6301 19.8481 47.6301C20.1327 47.6301 20.3798 47.5739 20.5895 47.4616C20.7992 47.3417 20.9752 47.1919 21.1175 47.0122C21.2598 46.8324 21.3647 46.6302 21.4321 46.4056C21.507 46.1734 21.5482 45.945 21.5557 45.7203C21.5632 45.6079 21.5669 45.4619 21.5669 45.2821C21.5669 45.1024 21.5632 44.9564 21.5557 44.844ZM22.2409 44.844C22.2335 44.9564 22.2297 45.1024 22.2297 45.2821C22.2297 45.4619 22.2335 45.6079 22.2409 45.7203C22.2484 45.945 22.2859 46.1734 22.3533 46.4056C22.4282 46.6302 22.5368 46.8324 22.6791 47.0122C22.8214 47.1919 22.9974 47.3417 23.2071 47.4616C23.4168 47.5739 23.6639 47.6301 23.9485 47.6301C24.2181 47.6301 24.4503 47.5739 24.645 47.4616C24.8398 47.3492 24.997 47.1994 25.1169 47.0122C25.2442 46.8175 25.3378 46.5965 25.3977 46.3494C25.4576 46.0947 25.4951 45.8326 25.5101 45.563C25.5175 45.3533 25.5175 45.1436 25.5101 44.9339C25.4951 44.6643 25.4576 44.4059 25.3977 44.1587C25.3378 43.9116 25.2442 43.6944 25.1169 43.5072C24.997 43.3124 24.8398 43.1589 24.645 43.0466C24.4503 42.9267 24.2181 42.8668 23.9485 42.8668C23.6564 42.8668 23.4055 42.9267 23.1958 43.0466C22.9861 43.1664 22.8101 43.3237 22.6678 43.5184C22.533 43.7056 22.4282 43.9153 22.3533 44.1475C22.2859 44.3797 22.2484 44.6118 22.2409 44.844Z" fill="#242424"/>
<path d="M27.4525 44.7991C27.4825 44.4171 27.5573 44.0689 27.6772 43.7543C27.8045 43.4323 27.9693 43.1589 28.1715 42.9342C28.3812 42.7095 28.6321 42.5335 28.9242 42.4062C29.2162 42.2789 29.5458 42.2152 29.9128 42.2152C30.6991 42.2152 31.3095 42.4736 31.7439 42.9904C32.1783 43.4997 32.3955 44.2074 32.3955 45.1136V45.2821C32.3955 45.357 32.3693 45.417 32.3168 45.4619C32.2719 45.5068 32.212 45.5293 32.1371 45.5293H28.1378V45.6416C28.1453 45.8963 28.1902 46.1434 28.2726 46.3831C28.3625 46.6227 28.4823 46.8362 28.6321 47.0234C28.7819 47.2032 28.9654 47.3492 29.1825 47.4616C29.3997 47.5739 29.6431 47.6301 29.9128 47.6301C30.1524 47.6301 30.3621 47.6001 30.5419 47.5402C30.7216 47.4803 30.8751 47.4129 31.0025 47.338C31.1298 47.2556 31.2309 47.1732 31.3058 47.0908C31.3882 47.0085 31.4443 46.9448 31.4743 46.8999C31.5417 46.8025 31.5941 46.7463 31.6316 46.7313C31.669 46.7089 31.7289 46.6976 31.8113 46.6976H31.9911C32.0585 46.6976 32.1146 46.7201 32.1596 46.765C32.212 46.8025 32.2345 46.8549 32.227 46.9223C32.2195 47.0272 32.1596 47.1582 32.0472 47.3155C31.9424 47.4728 31.7888 47.6226 31.5866 47.7649C31.3919 47.9072 31.1523 48.0308 30.8677 48.1356C30.5831 48.233 30.2648 48.2816 29.9128 48.2816C29.5533 48.2816 29.2275 48.2217 28.9354 48.1019C28.6433 47.9746 28.3924 47.7986 28.1827 47.5739C27.973 47.3417 27.8045 47.0684 27.6772 46.7538C27.5573 46.4318 27.4825 46.0798 27.4525 45.6978C27.445 45.5855 27.4413 45.4357 27.4413 45.2484C27.4413 45.0612 27.445 44.9114 27.4525 44.7991ZM28.1378 44.9002H31.7102V44.8553C31.7102 44.5781 31.669 44.3198 31.5866 44.0801C31.5042 43.833 31.3844 43.6195 31.2271 43.4398C31.0774 43.26 30.8901 43.1215 30.6654 43.0241C30.4408 42.9192 30.1899 42.8668 29.9128 42.8668C29.6282 42.8668 29.3773 42.9192 29.1601 43.0241C28.9429 43.1215 28.7556 43.26 28.5984 43.4398C28.4486 43.6195 28.3325 43.833 28.2501 44.0801C28.1752 44.3198 28.1378 44.5781 28.1378 44.8553V44.9002Z" fill="#242424"/>
<path d="M34.9669 45.2484L38.1125 47.7199C38.2098 47.7948 38.2585 47.8697 38.2585 47.9446C38.2585 48.0944 38.1836 48.1693 38.0338 48.1693H37.8316C37.7193 48.1693 37.6369 48.1581 37.5845 48.1356C37.5321 48.1056 37.4572 48.0532 37.3598 47.9783L34.5625 45.7877V47.9222C34.5625 48.0869 34.4801 48.1693 34.3154 48.1693H34.1244C33.9596 48.1693 33.8772 48.0869 33.8772 47.9222V42.5747C33.8772 42.41 33.9596 42.3276 34.1244 42.3276H34.3154C34.4801 42.3276 34.5625 42.41 34.5625 42.5747V44.7092L37.1576 42.5186C37.2624 42.4362 37.3373 42.3838 37.3823 42.3613C37.4347 42.3388 37.5171 42.3276 37.6294 42.3276H37.8092C37.959 42.3276 38.0338 42.4025 38.0338 42.5523C38.0338 42.5822 38.0226 42.6197 38.0001 42.6646C37.9852 42.7021 37.9477 42.7395 37.8878 42.777L34.9669 45.2484Z" fill="#242424"/>
<path d="M41.1488 48.1693C40.9841 48.1693 40.9017 48.0869 40.9017 47.9222V42.9792H38.8459C38.6811 42.9792 38.5987 42.8968 38.5987 42.732V42.5747C38.5987 42.41 38.6811 42.3276 38.8459 42.3276H43.6428C43.8076 42.3276 43.89 42.41 43.89 42.5747V42.732C43.89 42.8968 43.8076 42.9792 43.6428 42.9792H41.587V47.9222C41.587 48.0869 41.5046 48.1693 41.3398 48.1693H41.1488Z" fill="#242424"/>
<path d="M49.8223 47.9222C49.8223 48.0869 49.74 48.1693 49.5752 48.1693H49.3842C49.2194 48.1693 49.1371 48.0869 49.1371 47.9222V43.5184L45.677 48.0008C45.647 48.0382 45.6096 48.0757 45.5646 48.1131C45.5197 48.1506 45.4598 48.1693 45.3849 48.1693H45.1714C45.1115 48.1693 45.0591 48.1468 45.0142 48.1019C44.9692 48.057 44.9468 48.0045 44.9468 47.9446V42.5747C44.9468 42.41 45.0291 42.3276 45.1939 42.3276H45.3849C45.5496 42.3276 45.632 42.41 45.632 42.5747V46.9785L49.0921 42.4961C49.1296 42.4512 49.167 42.4137 49.2045 42.3838C49.2494 42.3463 49.3093 42.3276 49.3842 42.3276H49.5977C49.6576 42.3276 49.71 42.3501 49.7549 42.395C49.7999 42.4324 49.8223 42.4811 49.8223 42.541V47.9222Z" fill="#242424"/>
<path d="M51.6389 42.5747C51.6389 42.41 51.7213 42.3276 51.8861 42.3276H54.4362C55.0578 42.3276 55.5334 42.4661 55.8629 42.7432C56.2 43.0204 56.3685 43.3911 56.3685 43.8554C56.3685 44.0352 56.3497 44.1887 56.3123 44.316C56.2823 44.4433 56.2374 44.5557 56.1775 44.653C56.1251 44.7429 56.0614 44.8216 55.9865 44.889C55.9116 44.9564 55.833 45.0238 55.7506 45.0912C55.9079 45.196 56.0352 45.3046 56.1325 45.417C56.2299 45.5293 56.3048 45.6454 56.3572 45.7652C56.4097 45.8776 56.4434 46.0011 56.4583 46.1359C56.4733 46.2633 56.4808 46.3981 56.4808 46.5404C56.4808 47.0796 56.3011 47.4878 55.9416 47.7649C55.5821 48.0345 55.099 48.1693 54.4924 48.1693H51.8861C51.7213 48.1693 51.6389 48.0869 51.6389 47.9222V42.5747ZM52.3242 45.5518V47.5177H54.4025C54.8144 47.5177 55.1477 47.4391 55.4023 47.2818C55.6645 47.117 55.7955 46.8699 55.7955 46.5404C55.7955 46.1959 55.6794 45.945 55.4473 45.7877C55.2226 45.6304 54.8743 45.5518 54.4025 45.5518H52.3242ZM52.3242 42.9792V44.9002H54.3239C54.7358 44.9002 55.0653 44.8103 55.3125 44.6306C55.5596 44.4433 55.6832 44.185 55.6832 43.8554C55.6832 43.5259 55.5596 43.2975 55.3125 43.1701C55.0653 43.0428 54.7358 42.9792 54.3239 42.9792H52.3242Z" fill="#242424"/>
<path d="M58.7421 44.8553H62.2471V42.5747C62.2471 42.41 62.3295 42.3276 62.4943 42.3276H62.6853C62.85 42.3276 62.9324 42.41 62.9324 42.5747V47.9222C62.9324 48.0869 62.85 48.1693 62.6853 48.1693H62.4943C62.3295 48.1693 62.2471 48.0869 62.2471 47.9222V45.5068H58.7421V47.9222C58.7421 48.0869 58.6597 48.1693 58.4949 48.1693H58.304C58.1392 48.1693 58.0568 48.0869 58.0568 47.9222V42.5747C58.0568 42.41 58.1392 42.3276 58.304 42.3276H58.4949C58.6597 42.3276 58.7421 42.41 58.7421 42.5747V44.8553Z" fill="#242424"/>
<path d="M65.4343 43.9341H66.7711C67.1381 43.9341 67.4639 43.9865 67.7485 44.0913C68.0331 44.1962 68.2727 44.3422 68.4675 44.5295C68.6622 44.7167 68.812 44.9414 68.9168 45.2035C69.0217 45.4656 69.0741 45.754 69.0741 46.0685C69.0741 46.7426 68.8644 47.2631 68.445 47.6301C68.0331 47.9896 67.4152 48.1693 66.5914 48.1693H64.9961C64.8314 48.1693 64.749 48.0869 64.749 47.9222V42.5747C64.749 42.41 64.8314 42.3276 64.9961 42.3276H65.1871C65.3519 42.3276 65.4343 42.41 65.4343 42.5747V43.9341ZM65.4343 44.5856V47.5177H66.7037C67.2879 47.5177 67.7148 47.3904 67.9844 47.1358C68.254 46.8736 68.3888 46.5179 68.3888 46.0685C68.3888 45.6117 68.2578 45.2522 67.9956 44.9901C67.7335 44.7204 67.3029 44.5856 66.7037 44.5856H65.4343ZM70.3211 47.9222C70.3211 48.0869 70.2387 48.1693 70.0739 48.1693H69.883C69.7182 48.1693 69.6358 48.0869 69.6358 47.9222V42.5747C69.6358 42.41 69.7182 42.3276 69.883 42.3276H70.0739C70.2387 42.3276 70.3211 42.41 70.3211 42.5747V47.9222Z" fill="#242424"/>
<path d="M71.8512 44.7991C71.8812 44.4171 71.9561 44.0689 72.0759 43.7543C72.2032 43.4323 72.368 43.1589 72.5702 42.9342C72.7799 42.7095 73.0308 42.5335 73.3229 42.4062C73.615 42.2789 73.9445 42.2152 74.3115 42.2152C75.0979 42.2152 75.7082 42.4736 76.1426 42.9904C76.577 43.4997 76.7942 44.2074 76.7942 45.1136V45.2821C76.7942 45.357 76.768 45.417 76.7156 45.4619C76.6706 45.5068 76.6107 45.5293 76.5358 45.5293H72.5365V45.6416C72.544 45.8963 72.5889 46.1434 72.6713 46.3831C72.7612 46.6227 72.881 46.8362 73.0308 47.0234C73.1806 47.2032 73.3641 47.3492 73.5813 47.4616C73.7984 47.5739 74.0418 47.6301 74.3115 47.6301C74.5511 47.6301 74.7608 47.6001 74.9406 47.5402C75.1203 47.4803 75.2738 47.4129 75.4012 47.338C75.5285 47.2556 75.6296 47.1732 75.7045 47.0908C75.7869 47.0085 75.843 46.9448 75.873 46.8999C75.9404 46.8025 75.9928 46.7463 76.0303 46.7313C76.0677 46.7089 76.1276 46.6976 76.21 46.6976H76.3898C76.4572 46.6976 76.5134 46.7201 76.5583 46.765C76.6107 46.8025 76.6332 46.8549 76.6257 46.9223C76.6182 47.0272 76.5583 47.1582 76.4459 47.3155C76.3411 47.4728 76.1876 47.6226 75.9853 47.7649C75.7906 47.9072 75.551 48.0308 75.2664 48.1356C74.9818 48.233 74.6635 48.2816 74.3115 48.2816C73.952 48.2816 73.6262 48.2217 73.3341 48.1019C73.042 47.9746 72.7911 47.7986 72.5814 47.5739C72.3717 47.3417 72.2032 47.0684 72.0759 46.7538C71.9561 46.4318 71.8812 46.0798 71.8512 45.6978C71.8437 45.5855 71.84 45.4357 71.84 45.2484C71.84 45.0612 71.8437 44.9114 71.8512 44.7991ZM72.5365 44.9002H76.1089V44.8553C76.1089 44.5781 76.0677 44.3198 75.9853 44.0801C75.903 43.833 75.7831 43.6195 75.6259 43.4398C75.4761 43.26 75.2888 43.1215 75.0642 43.0241C74.8395 42.9192 74.5886 42.8668 74.3115 42.8668C74.0269 42.8668 73.776 42.9192 73.5588 43.0241C73.3416 43.1215 73.1544 43.26 72.9971 43.4398C72.8473 43.6195 72.7312 43.833 72.6488 44.0801C72.5739 44.3198 72.5365 44.5781 72.5365 44.8553V44.9002Z" fill="#242424"/>
<path d="M81.8575 47.5177H85.3625V42.5747C85.3625 42.41 85.4449 42.3276 85.6097 42.3276H85.8007C85.9654 42.3276 86.0478 42.41 86.0478 42.5747V47.5177H86.2725C86.4373 47.5177 86.5197 47.6001 86.5197 47.7649V49.1579C86.5197 49.3227 86.4373 49.4051 86.2725 49.4051H86.0815C85.9168 49.4051 85.8344 49.3227 85.8344 49.1579V48.1693H81.4194C81.2546 48.1693 81.1722 48.0869 81.1722 47.9222V42.5747C81.1722 42.41 81.2546 42.3276 81.4194 42.3276H81.6104C81.7751 42.3276 81.8575 42.41 81.8575 42.5747V47.5177Z" fill="#242424"/>
<path d="M92.8607 47.9222C92.8607 48.0869 92.7783 48.1693 92.6135 48.1693H92.4225C92.2578 48.1693 92.1754 48.0869 92.1754 47.9222V43.5184L88.7153 48.0008C88.6853 48.0382 88.6479 48.0757 88.603 48.1131C88.558 48.1506 88.4981 48.1693 88.4232 48.1693H88.2098C88.1499 48.1693 88.0974 48.1468 88.0525 48.1019C88.0076 48.057 87.9851 48.0045 87.9851 47.9446V42.5747C87.9851 42.41 88.0675 42.3276 88.2322 42.3276H88.4232C88.588 42.3276 88.6704 42.41 88.6704 42.5747V46.9785L92.1305 42.4961C92.1679 42.4512 92.2054 42.4137 92.2428 42.3838C92.2877 42.3463 92.3477 42.3276 92.4225 42.3276H92.636C92.6959 42.3276 92.7483 42.3501 92.7933 42.395C92.8382 42.4324 92.8607 42.4811 92.8607 42.541V47.9222Z" fill="#242424"/>
<path d="M96.5871 48.2816C96.1751 48.2816 95.8306 48.2068 95.5535 48.057C95.2839 47.8997 95.063 47.6975 94.8907 47.4503C94.7259 47.1957 94.6061 46.9111 94.5312 46.5965C94.4563 46.2745 94.4151 45.9487 94.4076 45.6192C94.4002 45.5068 94.3964 45.3833 94.3964 45.2484C94.3964 45.1136 94.4002 44.9901 94.4076 44.8777C94.4151 44.5482 94.4563 44.2261 94.5312 43.9116C94.6061 43.5895 94.7259 43.305 94.8907 43.0578C95.063 42.8032 95.2839 42.601 95.5535 42.4512C95.8306 42.2939 96.1751 42.2152 96.5871 42.2152C96.999 42.2152 97.351 42.3014 97.6431 42.4736C97.9351 42.6384 98.1748 42.8481 98.362 43.1027V40.4403C98.362 40.2755 98.4444 40.1931 98.6092 40.1931H98.8002C98.9649 40.1931 99.0473 40.2755 99.0473 40.4403V43.1027C99.2346 42.8481 99.4742 42.6384 99.7663 42.4736C100.058 42.3014 100.41 42.2152 100.822 42.2152C101.234 42.2152 101.575 42.2939 101.845 42.4512C102.122 42.601 102.343 42.8032 102.507 43.0578C102.68 43.305 102.799 43.5895 102.867 43.9116C102.942 44.2261 102.987 44.5482 103.002 44.8777C103.009 44.9901 103.013 45.1136 103.013 45.2484C103.013 45.3833 103.009 45.5068 103.002 45.6192C102.987 45.9487 102.942 46.2745 102.867 46.5965C102.799 46.9111 102.68 47.1957 102.507 47.4503C102.343 47.6975 102.122 47.8997 101.845 48.057C101.575 48.2068 101.234 48.2816 100.822 48.2816C100.41 48.2816 100.058 48.1955 99.7663 48.0233C99.4742 47.851 99.2346 47.6413 99.0473 47.3942V50.0566C99.0473 50.2214 98.9649 50.3038 98.8002 50.3038H98.6092C98.4444 50.3038 98.362 50.2214 98.362 50.0566V47.3942C98.1748 47.6413 97.9351 47.851 97.6431 48.0233C97.351 48.1955 96.999 48.2816 96.5871 48.2816ZM98.362 44.844C98.3545 44.6118 98.3134 44.3797 98.2385 44.1475C98.1711 43.9153 98.0662 43.7056 97.9239 43.5184C97.7891 43.3237 97.6168 43.1664 97.4071 43.0466C97.1974 42.9267 96.9465 42.8668 96.6544 42.8668C96.3848 42.8668 96.1527 42.9267 95.9579 43.0466C95.7632 43.1589 95.6022 43.3124 95.4749 43.5072C95.355 43.6944 95.2614 43.9116 95.194 44.1587C95.1341 44.4059 95.1004 44.6643 95.0929 44.9339C95.0854 45.1436 95.0854 45.3533 95.0929 45.563C95.1004 45.8326 95.1341 46.0947 95.194 46.3494C95.2614 46.5965 95.355 46.8175 95.4749 47.0122C95.6022 47.1994 95.7632 47.3492 95.9579 47.4616C96.1527 47.5739 96.3848 47.6301 96.6544 47.6301C96.939 47.6301 97.1862 47.5739 97.3959 47.4616C97.6056 47.3417 97.7816 47.1919 97.9239 47.0122C98.0662 46.8324 98.1711 46.6302 98.2385 46.4056C98.3134 46.1734 98.3545 45.945 98.362 45.7203C98.3695 45.6079 98.3733 45.4619 98.3733 45.2821C98.3733 45.1024 98.3695 44.9564 98.362 44.844ZM99.0473 44.844C99.0398 44.9564 99.0361 45.1024 99.0361 45.2821C99.0361 45.4619 99.0398 45.6079 99.0473 45.7203C99.0548 45.945 99.0922 46.1734 99.1597 46.4056C99.2345 46.6302 99.3431 46.8324 99.4854 47.0122C99.6277 47.1919 99.8037 47.3417 100.013 47.4616C100.223 47.5739 100.47 47.6301 100.755 47.6301C101.025 47.6301 101.257 47.5739 101.451 47.4616C101.646 47.3492 101.803 47.1994 101.923 47.0122C102.051 46.8175 102.144 46.5965 102.204 46.3494C102.264 46.0947 102.301 45.8326 102.316 45.563C102.324 45.3533 102.324 45.1436 102.316 44.9339C102.301 44.6643 102.264 44.4059 102.204 44.1587C102.144 43.9116 102.051 43.6944 101.923 43.5072C101.803 43.3124 101.646 43.1589 101.451 43.0466C101.257 42.9267 101.025 42.8668 100.755 42.8668C100.463 42.8668 100.212 42.9267 100.002 43.0466C99.7925 43.1664 99.6165 43.3237 99.4742 43.5184C99.3394 43.7056 99.2345 43.9153 99.1597 44.1475C99.0922 44.3797 99.0548 44.6118 99.0473 44.844Z" fill="#242424"/>
<path d="M107.135 48.2816C106.663 48.2816 106.277 48.1955 105.978 48.0233C105.678 47.851 105.435 47.6413 105.247 47.3942V50.0566C105.247 50.2214 105.165 50.3038 105 50.3038H104.809C104.645 50.3038 104.562 50.2214 104.562 50.0566V42.5747C104.562 42.41 104.645 42.3276 104.809 42.3276H105C105.165 42.3276 105.247 42.41 105.247 42.5747V43.1027C105.435 42.8481 105.678 42.6384 105.978 42.4736C106.277 42.3014 106.663 42.2152 107.135 42.2152C107.569 42.2152 107.936 42.2939 108.236 42.4512C108.543 42.601 108.79 42.8032 108.977 43.0578C109.164 43.305 109.299 43.5895 109.382 43.9116C109.471 44.2261 109.524 44.5482 109.539 44.8777C109.546 44.9901 109.55 45.1136 109.55 45.2484C109.55 45.3833 109.546 45.5068 109.539 45.6192C109.524 45.9487 109.471 46.2745 109.382 46.5965C109.299 46.9111 109.164 47.1957 108.977 47.4503C108.79 47.6975 108.543 47.8997 108.236 48.057C107.936 48.2068 107.569 48.2816 107.135 48.2816ZM105.247 44.844C105.24 44.9564 105.236 45.1024 105.236 45.2821C105.236 45.4619 105.24 45.6079 105.247 45.7203C105.255 45.945 105.292 46.1734 105.36 46.4056C105.435 46.6302 105.547 46.8324 105.697 47.0122C105.847 47.1919 106.034 47.3417 106.259 47.4616C106.483 47.5739 106.753 47.6301 107.067 47.6301C107.397 47.6301 107.67 47.5739 107.887 47.4616C108.112 47.3492 108.292 47.1994 108.427 47.0122C108.569 46.8175 108.67 46.5965 108.73 46.3494C108.797 46.0947 108.839 45.8326 108.854 45.563C108.861 45.3533 108.861 45.1436 108.854 44.9339C108.839 44.6643 108.797 44.4059 108.73 44.1587C108.67 43.9116 108.569 43.6944 108.427 43.5072C108.292 43.3124 108.112 43.1589 107.887 43.0466C107.67 42.9267 107.397 42.8668 107.067 42.8668C106.745 42.8668 106.472 42.9267 106.247 43.0466C106.023 43.1664 105.835 43.3237 105.686 43.5184C105.543 43.7056 105.435 43.9153 105.36 44.1475C105.292 44.3797 105.255 44.6118 105.247 44.844Z" fill="#242424"/>
<path d="M113.303 42.2152C113.707 42.2152 114.063 42.2827 114.37 42.4175C114.677 42.5448 114.932 42.7245 115.134 42.9567C115.344 43.1814 115.501 43.451 115.606 43.7655C115.718 44.0801 115.782 44.4171 115.797 44.7766C115.797 44.8365 115.797 44.9077 115.797 44.9901C115.804 45.0724 115.808 45.1586 115.808 45.2484C115.808 45.3383 115.804 45.4282 115.797 45.5181C115.797 45.6004 115.797 45.6679 115.797 45.7203C115.782 46.0798 115.718 46.4168 115.606 46.7313C115.501 47.0459 115.344 47.3193 115.134 47.5514C114.932 47.7761 114.677 47.9559 114.37 48.0907C114.063 48.218 113.707 48.2816 113.303 48.2816C112.898 48.2816 112.543 48.218 112.236 48.0907C111.929 47.9559 111.67 47.7761 111.461 47.5514C111.258 47.3193 111.101 47.0459 110.989 46.7313C110.876 46.4168 110.816 46.0798 110.809 45.7203C110.809 45.6679 110.805 45.6004 110.798 45.5181C110.798 45.4282 110.798 45.3383 110.798 45.2484C110.798 45.1586 110.798 45.0724 110.798 44.9901C110.805 44.9077 110.809 44.8365 110.809 44.7766C110.816 44.4171 110.876 44.0801 110.989 43.7655C111.101 43.451 111.258 43.1814 111.461 42.9567C111.67 42.7245 111.929 42.5448 112.236 42.4175C112.543 42.2827 112.898 42.2152 113.303 42.2152ZM115.112 44.8328C115.089 44.1887 114.913 43.7019 114.584 43.3724C114.254 43.0353 113.827 42.8668 113.303 42.8668C112.779 42.8668 112.352 43.0353 112.022 43.3724C111.693 43.7019 111.517 44.1887 111.494 44.8328C111.487 44.9451 111.483 45.0837 111.483 45.2484C111.483 45.4132 111.487 45.5518 111.494 45.6641C111.517 46.3082 111.693 46.7987 112.022 47.1358C112.352 47.4653 112.779 47.6301 113.303 47.6301C113.827 47.6301 114.254 47.4653 114.584 47.1358C114.913 46.7987 115.089 46.3082 115.112 45.6641C115.119 45.5518 115.123 45.4132 115.123 45.2484C115.123 45.0837 115.119 44.9451 115.112 44.8328Z" fill="#242424"/>
<path d="M117.343 42.5747C117.343 42.41 117.425 42.3276 117.59 42.3276H120.14C120.762 42.3276 121.237 42.4661 121.567 42.7432C121.904 43.0204 122.072 43.3911 122.072 43.8554C122.072 44.0352 122.054 44.1887 122.016 44.316C121.986 44.4433 121.941 44.5557 121.881 44.653C121.829 44.7429 121.765 44.8216 121.69 44.889C121.616 44.9564 121.537 45.0238 121.455 45.0912C121.612 45.196 121.739 45.3046 121.836 45.417C121.934 45.5293 122.009 45.6454 122.061 45.7652C122.114 45.8776 122.147 46.0011 122.162 46.1359C122.177 46.2633 122.185 46.3981 122.185 46.5404C122.185 47.0796 122.005 47.4878 121.646 47.7649C121.286 48.0345 120.803 48.1693 120.196 48.1693H117.59C117.425 48.1693 117.343 48.0869 117.343 47.9222V42.5747ZM118.028 45.5518V47.5177H120.106C120.518 47.5177 120.852 47.4391 121.106 47.2818C121.368 47.117 121.499 46.8699 121.499 46.5404C121.499 46.1959 121.383 45.945 121.151 45.7877C120.927 45.6304 120.578 45.5518 120.106 45.5518H118.028ZM118.028 42.9792V44.9002H120.028C120.44 44.9002 120.769 44.8103 121.016 44.6306C121.264 44.4433 121.387 44.185 121.387 43.8554C121.387 43.5259 121.264 43.2975 121.016 43.1701C120.769 43.0428 120.44 42.9792 120.028 42.9792H118.028Z" fill="#242424"/>
<path d="M124.446 43.9341H125.783C126.15 43.9341 126.476 43.9865 126.76 44.0913C127.045 44.1962 127.285 44.3422 127.479 44.5295C127.674 44.7167 127.824 44.9414 127.929 45.2035C128.033 45.4656 128.086 45.754 128.086 46.0685C128.086 46.7426 127.876 47.2631 127.457 47.6301C127.045 47.9896 126.427 48.1693 125.603 48.1693H124.008C123.843 48.1693 123.761 48.0869 123.761 47.9222V42.5747C123.761 42.41 123.843 42.3276 124.008 42.3276H124.199C124.364 42.3276 124.446 42.41 124.446 42.5747V43.9341ZM124.446 44.5856V47.5177H125.715C126.3 47.5177 126.727 47.3904 126.996 47.1358C127.266 46.8736 127.401 46.5179 127.401 46.0685C127.401 45.6117 127.27 45.2522 127.007 44.9901C126.745 44.7204 126.315 44.5856 125.715 44.5856H124.446ZM129.333 47.9222C129.333 48.0869 129.25 48.1693 129.086 48.1693H128.895C128.73 48.1693 128.648 48.0869 128.648 47.9222V42.5747C128.648 42.41 128.73 42.3276 128.895 42.3276H129.086C129.25 42.3276 129.333 42.41 129.333 42.5747V47.9222Z" fill="#242424"/>
<path d="M130.863 44.7991C130.893 44.4171 130.968 44.0689 131.088 43.7543C131.215 43.4323 131.38 43.1589 131.582 42.9342C131.792 42.7095 132.043 42.5335 132.335 42.4062C132.627 42.2789 132.956 42.2152 133.323 42.2152C134.11 42.2152 134.72 42.4736 135.154 42.9904C135.589 43.4997 135.806 44.2074 135.806 45.1136V45.2821C135.806 45.357 135.78 45.417 135.727 45.4619C135.682 45.5068 135.622 45.5293 135.548 45.5293H131.548V45.6416C131.556 45.8963 131.601 46.1434 131.683 46.3831C131.773 46.6227 131.893 46.8362 132.043 47.0234C132.192 47.2032 132.376 47.3492 132.593 47.4616C132.81 47.5739 133.054 47.6301 133.323 47.6301C133.563 47.6301 133.773 47.6001 133.952 47.5402C134.132 47.4803 134.286 47.4129 134.413 47.338C134.54 47.2556 134.641 47.1732 134.716 47.0908C134.799 47.0085 134.855 46.9448 134.885 46.8999C134.952 46.8025 135.005 46.7463 135.042 46.7313C135.079 46.7089 135.139 46.6976 135.222 46.6976H135.402C135.469 46.6976 135.525 46.7201 135.57 46.765C135.622 46.8025 135.645 46.8549 135.637 46.9223C135.63 47.0272 135.57 47.1582 135.458 47.3155C135.353 47.4728 135.199 47.6226 134.997 47.7649C134.802 47.9072 134.563 48.0308 134.278 48.1356C133.994 48.233 133.675 48.2816 133.323 48.2816C132.964 48.2816 132.638 48.2217 132.346 48.1019C132.054 47.9746 131.803 47.7986 131.593 47.5739C131.383 47.3417 131.215 47.0684 131.088 46.7538C130.968 46.4318 130.893 46.0798 130.863 45.6978C130.855 45.5855 130.852 45.4357 130.852 45.2484C130.852 45.0612 130.855 44.9114 130.863 44.7991ZM131.548 44.9002H135.121V44.8553C135.121 44.5781 135.079 44.3198 134.997 44.0801C134.915 43.833 134.795 43.6195 134.638 43.4398C134.488 43.26 134.301 43.1215 134.076 43.0241C133.851 42.9192 133.6 42.8668 133.323 42.8668C133.039 42.8668 132.788 42.9192 132.571 43.0241C132.353 43.1215 132.166 43.26 132.009 43.4398C131.859 43.6195 131.743 43.833 131.661 44.0801C131.586 44.3198 131.548 44.5781 131.548 44.8553V44.9002Z" fill="#242424"/>
<path d="M142.768 48.2816C142.296 48.2816 141.91 48.1955 141.611 48.0233C141.311 47.851 141.068 47.6413 140.881 47.3942V50.0566C140.881 50.2214 140.798 50.3038 140.633 50.3038H140.442C140.278 50.3038 140.195 50.2214 140.195 50.0566V42.5747C140.195 42.41 140.278 42.3276 140.442 42.3276H140.633C140.798 42.3276 140.881 42.41 140.881 42.5747V43.1027C141.068 42.8481 141.311 42.6384 141.611 42.4736C141.91 42.3014 142.296 42.2152 142.768 42.2152C143.202 42.2152 143.569 42.2939 143.869 42.4512C144.176 42.601 144.423 42.8032 144.61 43.0578C144.797 43.305 144.932 43.5895 145.015 43.9116C145.105 44.2261 145.157 44.5482 145.172 44.8777C145.179 44.9901 145.183 45.1136 145.183 45.2484C145.183 45.3833 145.179 45.5068 145.172 45.6192C145.157 45.9487 145.105 46.2745 145.015 46.5965C144.932 46.9111 144.797 47.1957 144.61 47.4503C144.423 47.6975 144.176 47.8997 143.869 48.057C143.569 48.2068 143.202 48.2816 142.768 48.2816ZM140.881 44.844C140.873 44.9564 140.869 45.1024 140.869 45.2821C140.869 45.4619 140.873 45.6079 140.881 45.7203C140.888 45.945 140.925 46.1734 140.993 46.4056C141.068 46.6302 141.18 46.8324 141.33 47.0122C141.48 47.1919 141.667 47.3417 141.892 47.4616C142.116 47.5739 142.386 47.6301 142.7 47.6301C143.03 47.6301 143.303 47.5739 143.521 47.4616C143.745 47.3492 143.925 47.1994 144.06 47.0122C144.202 46.8175 144.303 46.5965 144.363 46.3494C144.43 46.0947 144.472 45.8326 144.487 45.563C144.494 45.3533 144.494 45.1436 144.487 44.9339C144.472 44.6643 144.43 44.4059 144.363 44.1587C144.303 43.9116 144.202 43.6944 144.06 43.5072C143.925 43.3124 143.745 43.1589 143.521 43.0466C143.303 42.9267 143.03 42.8668 142.7 42.8668C142.378 42.8668 142.105 42.9267 141.88 43.0466C141.656 43.1664 141.468 43.3237 141.319 43.5184C141.176 43.7056 141.068 43.9153 140.993 44.1475C140.925 44.3797 140.888 44.6118 140.881 44.844Z" fill="#242424"/>
<path d="M146.42 44.7991C146.449 44.4171 146.524 44.0689 146.644 43.7543C146.772 43.4323 146.936 43.1589 147.139 42.9342C147.348 42.7095 147.599 42.5335 147.891 42.4062C148.183 42.2789 148.513 42.2152 148.88 42.2152C149.666 42.2152 150.277 42.4736 150.711 42.9904C151.145 43.4997 151.363 44.2074 151.363 45.1136V45.2821C151.363 45.357 151.336 45.417 151.284 45.4619C151.239 45.5068 151.179 45.5293 151.104 45.5293H147.105V45.6416C147.112 45.8963 147.157 46.1434 147.24 46.3831C147.329 46.6227 147.449 46.8362 147.599 47.0234C147.749 47.2032 147.932 47.3492 148.15 47.4616C148.367 47.5739 148.61 47.6301 148.88 47.6301C149.119 47.6301 149.329 47.6001 149.509 47.5402C149.689 47.4803 149.842 47.4129 149.969 47.338C150.097 47.2556 150.198 47.1732 150.273 47.0908C150.355 47.0085 150.411 46.9448 150.441 46.8999C150.509 46.8025 150.561 46.7463 150.599 46.7313C150.636 46.7089 150.696 46.6976 150.778 46.6976H150.958C151.025 46.6976 151.082 46.7201 151.127 46.765C151.179 46.8025 151.202 46.8549 151.194 46.9223C151.187 47.0272 151.127 47.1582 151.014 47.3155C150.909 47.4728 150.756 47.6226 150.554 47.7649C150.359 47.9072 150.119 48.0308 149.835 48.1356C149.55 48.233 149.232 48.2816 148.88 48.2816C148.52 48.2816 148.195 48.2217 147.902 48.1019C147.61 47.9746 147.359 47.7986 147.15 47.5739C146.94 47.3417 146.772 47.0684 146.644 46.7538C146.524 46.4318 146.449 46.0798 146.42 45.6978C146.412 45.5855 146.408 45.4357 146.408 45.2484C146.408 45.0612 146.412 44.9114 146.42 44.7991ZM147.105 44.9002H150.677V44.8553C150.677 44.5781 150.636 44.3198 150.554 44.0801C150.471 43.833 150.351 43.6195 150.194 43.4398C150.044 43.26 149.857 43.1215 149.632 43.0241C149.408 42.9192 149.157 42.8668 148.88 42.8668C148.595 42.8668 148.344 42.9192 148.127 43.0241C147.91 43.1215 147.723 43.26 147.565 43.4398C147.416 43.6195 147.3 43.833 147.217 44.0801C147.142 44.3198 147.105 44.5781 147.105 44.8553V44.9002Z" fill="#242424"/>
<path d="M156.484 47.5177H158.753V42.5747C158.753 42.41 158.836 42.3276 159.001 42.3276H159.192C159.356 42.3276 159.439 42.41 159.439 42.5747V47.9222C159.439 48.0869 159.356 48.1693 159.192 48.1693H153.091C152.927 48.1693 152.844 48.0869 152.844 47.9222V42.5747C152.844 42.41 152.927 42.3276 153.091 42.3276H153.282C153.447 42.3276 153.53 42.41 153.53 42.5747V47.5177H155.799V42.5747C155.799 42.41 155.881 42.3276 156.046 42.3276H156.237C156.402 42.3276 156.484 42.41 156.484 42.5747V47.5177Z" fill="#242424"/>
<path d="M160.967 44.7991C160.997 44.4171 161.072 44.0689 161.191 43.7543C161.319 43.4323 161.484 43.1589 161.686 42.9342C161.895 42.7095 162.146 42.5335 162.438 42.4062C162.731 42.2789 163.06 42.2152 163.427 42.2152C164.213 42.2152 164.824 42.4736 165.258 42.9904C165.693 43.4997 165.91 44.2074 165.91 45.1136V45.2821C165.91 45.357 165.884 45.417 165.831 45.4619C165.786 45.5068 165.726 45.5293 165.651 45.5293H161.652V45.6416C161.66 45.8963 161.704 46.1434 161.787 46.3831C161.877 46.6227 161.997 46.8362 162.146 47.0234C162.296 47.2032 162.48 47.3492 162.697 47.4616C162.914 47.5739 163.157 47.6301 163.427 47.6301C163.667 47.6301 163.876 47.6001 164.056 47.5402C164.236 47.4803 164.389 47.4129 164.517 47.338C164.644 47.2556 164.745 47.1732 164.82 47.0908C164.902 47.0085 164.959 46.9448 164.989 46.8999C165.056 46.8025 165.108 46.7463 165.146 46.7313C165.183 46.7089 165.243 46.6976 165.326 46.6976H165.505C165.573 46.6976 165.629 46.7201 165.674 46.765C165.726 46.8025 165.749 46.8549 165.741 46.9223C165.734 47.0272 165.674 47.1582 165.561 47.3155C165.457 47.4728 165.303 47.6226 165.101 47.7649C164.906 47.9072 164.667 48.0308 164.382 48.1356C164.097 48.233 163.779 48.2816 163.427 48.2816C163.068 48.2816 162.742 48.2217 162.45 48.1019C162.158 47.9746 161.907 47.7986 161.697 47.5739C161.487 47.3417 161.319 47.0684 161.191 46.7538C161.072 46.4318 160.997 46.0798 160.967 45.6978C160.959 45.5855 160.956 45.4357 160.956 45.2484C160.956 45.0612 160.959 44.9114 160.967 44.7991ZM161.652 44.9002H165.224V44.8553C165.224 44.5781 165.183 44.3198 165.101 44.0801C165.019 43.833 164.899 43.6195 164.741 43.4398C164.592 43.26 164.404 43.1215 164.18 43.0241C163.955 42.9192 163.704 42.8668 163.427 42.8668C163.142 42.8668 162.892 42.9192 162.674 43.0241C162.457 43.1215 162.27 43.26 162.113 43.4398C161.963 43.6195 161.847 43.833 161.764 44.0801C161.689 44.3198 161.652 44.5781 161.652 44.8553V44.9002Z" fill="#242424"/>
<path d="M168.077 44.8553H171.582V42.5747C171.582 42.41 171.664 42.3276 171.829 42.3276H172.02C172.185 42.3276 172.267 42.41 172.267 42.5747V47.9222C172.267 48.0869 172.185 48.1693 172.02 48.1693H171.829C171.664 48.1693 171.582 48.0869 171.582 47.9222V45.5068H168.077V47.9222C168.077 48.0869 167.994 48.1693 167.83 48.1693H167.639C167.474 48.1693 167.392 48.0869 167.392 47.9222V42.5747C167.392 42.41 167.474 42.3276 167.639 42.3276H167.83C167.994 42.3276 168.077 42.41 168.077 42.5747V44.8553Z" fill="#242424"/>
<path d="M178.959 47.9222C178.959 48.0869 178.877 48.1693 178.712 48.1693H178.521C178.356 48.1693 178.274 48.0869 178.274 47.9222V43.5184L174.814 48.0008C174.784 48.0382 174.746 48.0757 174.702 48.1131C174.657 48.1506 174.597 48.1693 174.522 48.1693H174.308C174.248 48.1693 174.196 48.1468 174.151 48.1019C174.106 48.057 174.084 48.0045 174.084 47.9446V42.5747C174.084 42.41 174.166 42.3276 174.331 42.3276H174.522C174.687 42.3276 174.769 42.41 174.769 42.5747V46.9785L178.229 42.4961C178.266 42.4512 178.304 42.4137 178.341 42.3838C178.386 42.3463 178.446 42.3276 178.521 42.3276H178.735C178.794 42.3276 178.847 42.3501 178.892 42.395C178.937 42.4324 178.959 42.4811 178.959 42.541V47.9222Z" fill="#242424"/>
<path d="M181.708 45.9113C181.326 45.7839 181.034 45.578 180.832 45.2934C180.637 45.0013 180.54 44.6306 180.54 44.1812C180.54 43.5821 180.72 43.1252 181.079 42.8107C181.439 42.4886 181.944 42.3276 182.596 42.3276H184.753C184.917 42.3276 185 42.41 185 42.5747V47.9222C185 48.0869 184.917 48.1693 184.753 48.1693H184.562C184.397 48.1693 184.315 48.0869 184.315 47.9222V46.0348H182.45L181.169 48.0008C181.132 48.0382 181.087 48.0757 181.034 48.1131C180.982 48.1506 180.926 48.1693 180.866 48.1693H180.664C180.604 48.1693 180.551 48.1468 180.506 48.1019C180.461 48.057 180.439 48.0045 180.439 47.9446C180.439 47.9147 180.443 47.881 180.45 47.8435C180.465 47.8061 180.491 47.7649 180.529 47.7199L181.708 45.9113ZM184.315 45.3833V42.9792H182.652C182.158 42.9792 181.798 43.0878 181.573 43.305C181.356 43.5221 181.248 43.8142 181.248 44.1812C181.248 44.5482 181.356 44.8403 181.573 45.0575C181.798 45.2747 182.158 45.3833 182.652 45.3833H184.315Z" fill="#242424"/>
</svg>
