<svg width="758" height="197" viewBox="0 0 758 197" fill="none" xmlns="http://www.w3.org/2000/svg">
<path d="M3.87605 121.965C2.89837 121.965 2.13796 121.694 1.59481 121.151C1.05165 120.608 0.780075 119.901 0.780075 119.032C0.780075 118.381 0.943021 117.729 1.26892 117.077L62.8626 11.9768C64.492 9.26102 66.6646 7.90317 69.3804 7.90317H88.2821C91.1066 7.90317 92.736 9.26102 93.1705 11.9768L110.117 117.077C110.226 117.403 110.28 117.783 110.28 118.218C110.28 119.196 110.009 120.01 109.465 120.662C108.704 121.531 107.727 121.965 106.532 121.965H92.6817C89.9659 121.965 88.4451 120.717 88.1192 118.218L84.5343 98.9896H36.1394L24.2443 118.87C22.8321 120.933 21.0397 121.965 18.867 121.965H3.87605ZM82.905 80.2512L75.0835 29.9009L45.7532 80.2512H82.905ZM138.35 121.965C137.264 121.965 136.34 121.585 135.58 120.824C134.819 120.064 134.439 119.141 134.439 118.054V11.9768C134.439 10.7819 134.765 9.80422 135.417 9.0438C136.177 8.28338 137.155 7.90317 138.35 7.90317H182.02C195.055 7.90317 205.32 10.9992 212.817 17.1911C220.312 23.2744 224.06 32.2365 224.06 44.0772C224.06 55.9179 220.312 64.88 212.817 70.9633C205.429 76.938 195.164 79.9254 182.02 79.9254H157.741V118.054C157.741 119.141 157.361 120.064 156.6 120.824C155.948 121.585 155.025 121.965 153.83 121.965H138.35ZM181.204 61.8383C187.505 61.8383 192.339 60.3718 195.707 57.4388C199.075 54.3971 200.758 49.9432 200.758 44.0772C200.758 38.4284 199.129 34.0289 195.869 30.8785C192.611 27.6196 187.723 25.9901 181.204 25.9901H157.415V61.8383H181.204ZM245.76 121.965C244.675 121.965 243.751 121.585 242.99 120.824C242.23 120.064 241.85 119.141 241.85 118.054V11.8138C241.85 10.619 242.23 9.69556 242.99 9.0438C243.751 8.28338 244.675 7.90317 245.76 7.90317H261.078C262.272 7.90317 263.196 8.28338 263.848 9.0438C264.609 9.69556 264.989 10.619 264.989 11.8138V118.054C264.989 119.141 264.609 120.064 263.848 120.824C263.196 121.585 262.272 121.965 261.078 121.965H245.76Z" fill="#05C8B2"/>
<path d="M655.898 9.82776C655.898 15.2555 651.452 19.6556 645.966 19.6556C640.481 19.6556 636.035 15.2555 636.035 9.82776C636.035 4.40005 640.481 0 645.966 0C651.452 0 655.898 4.40005 655.898 9.82776Z" fill="#05C8B2"/>
<path d="M404.783 6.44905C407.539 6.44905 409.909 7.4412 411.893 9.42551C413.988 11.2996 415.035 13.6698 415.035 16.536V112.28C415.035 115.145 414.098 117.572 412.224 119.555C410.35 121.429 407.87 122.367 404.783 122.367C401.697 122.367 399.161 121.429 397.176 119.555C395.302 117.681 394.366 115.256 394.366 112.28V45.6394L367.081 87.3101C365.978 88.6331 364.711 89.7354 363.278 90.6174C361.844 91.389 360.356 91.7197 358.813 91.6096C357.38 91.7197 355.947 91.389 354.513 90.6174C353.08 89.7354 351.813 88.6331 350.71 87.3101L323.426 44.1512V112.28C323.426 115.256 322.544 117.681 320.78 119.555C319.016 121.429 316.701 122.367 313.835 122.367C311.078 122.367 308.818 121.429 307.056 119.555C305.292 117.572 304.41 115.145 304.41 112.28V16.536C304.41 13.78 305.401 11.4098 307.386 9.42551C309.481 7.4412 311.96 6.44905 314.827 6.44905C316.48 6.44905 318.134 6.89004 319.787 7.77192C321.441 8.54363 322.709 9.59092 323.591 10.9138L359.64 66.3094L396.68 10.9138C397.562 9.59092 398.72 8.54363 400.152 7.77192C401.697 6.89004 403.24 6.44905 404.783 6.44905ZM517.614 76.0657C517.503 78.7114 516.456 80.8611 514.472 82.5148C512.488 84.1684 510.173 84.9951 507.527 84.9951H452.958C454.281 91.4993 457.313 96.6258 462.053 100.373C466.793 104.011 472.14 105.831 478.093 105.831C482.613 105.831 486.14 105.445 488.676 104.673C491.211 103.791 493.196 102.91 494.629 102.028C496.172 101.035 497.22 100.373 497.771 100.043C499.755 99.0509 501.63 98.555 503.393 98.555C505.708 98.555 507.693 99.3816 509.346 101.035C511 102.689 511.826 104.618 511.826 106.822C511.826 109.799 510.283 112.5 507.197 114.926C504.109 117.461 499.976 119.611 494.795 121.375C489.613 123.139 484.377 124.021 479.085 124.021C469.825 124.021 461.723 122.091 454.777 118.233C447.943 114.374 442.651 109.082 438.902 102.358C435.154 95.523 433.281 87.8614 433.281 79.3729C433.281 69.8923 435.264 61.5691 439.234 54.4035C443.202 47.2379 448.439 41.781 454.942 38.0329C461.447 34.1744 468.392 32.2452 475.778 32.2452C483.054 32.2452 489.889 34.2295 496.282 38.1982C502.787 42.1669 507.968 47.5135 511.826 54.2381C515.685 60.9628 517.614 68.2387 517.614 76.0657ZM475.778 50.4348C462.99 50.4348 455.439 56.4429 453.124 68.4591H496.448V67.3015C496.007 62.6715 493.747 58.7029 489.668 55.3957C485.59 52.0884 480.959 50.4348 475.778 50.4348ZM605.764 0C608.63 0 611 0.937048 612.874 2.81112C614.748 4.68519 615.685 7.11048 615.685 10.0869V112.28C615.685 115.145 614.748 117.572 612.874 119.555C611 121.429 608.63 122.367 605.764 122.367C602.897 122.367 600.527 121.429 598.654 119.555C596.89 117.681 595.952 115.311 595.842 112.445C593.087 115.642 589.338 118.398 584.597 120.712C579.968 122.918 575.062 124.021 569.881 124.021C562.274 124.021 555.384 122.091 549.21 118.233C543.037 114.263 538.132 108.807 534.494 101.862C530.966 94.9167 529.202 87.0345 529.202 78.2153C529.202 69.3961 530.966 61.514 534.494 54.5688C538.022 47.5135 542.817 42.0566 548.88 38.1982C555.054 34.2295 561.833 32.2452 569.22 32.2452C574.511 32.2452 579.472 33.2374 584.102 35.2217C588.732 37.0958 592.645 39.521 595.842 42.4976V10.0869C595.842 7.22076 596.779 4.8506 598.654 2.97648C600.527 0.992164 602.897 0 605.764 0ZM572.362 105.831C579.526 105.831 585.369 103.24 589.889 98.0581C594.409 92.767 596.669 86.1527 596.669 78.2153C596.669 70.2781 594.409 63.6636 589.889 58.3722C585.369 53.0806 579.526 50.4348 572.362 50.4348C565.306 50.4348 559.518 53.0806 554.998 58.3722C550.478 63.6636 548.218 70.2781 548.218 78.2153C548.218 86.1527 550.423 92.767 554.833 98.0581C559.353 103.24 565.196 105.831 572.362 105.831ZM655.876 112.28C655.876 115.145 654.939 117.572 653.064 119.555C651.191 121.429 648.821 122.367 645.954 122.367C643.088 122.367 640.718 121.429 638.844 119.555C636.97 117.572 636.033 115.145 636.033 112.28V43.9858C636.033 41.1196 636.97 38.7494 638.844 36.8753C640.718 34.891 643.088 33.8988 645.954 33.8988C648.821 33.8988 651.191 34.891 653.064 36.8753C654.939 38.7494 655.876 41.1196 655.876 43.9858V112.28ZM747.87 32.2452C750.737 32.2452 753.106 33.1823 754.981 35.0564C756.855 36.9304 757.792 39.3557 757.792 42.3322V112.28C757.792 115.145 756.855 117.572 754.981 119.555C753.106 121.429 750.737 122.367 747.87 122.367C745.004 122.367 742.634 121.429 740.76 119.555C738.996 117.681 738.059 115.311 737.948 112.445C735.192 115.642 731.445 118.398 726.704 120.712C722.075 122.918 717.169 124.021 711.987 124.021C704.381 124.021 697.491 122.091 691.317 118.233C685.143 114.263 680.238 108.807 676.6 101.862C673.073 94.9167 671.309 87.0345 671.309 78.2153C671.309 69.3961 673.073 61.514 676.6 54.5688C680.128 47.5135 684.924 42.0566 690.987 38.1982C697.159 34.2295 703.94 32.2452 711.326 32.2452C716.617 32.2452 721.578 33.2374 726.208 35.2217C730.838 37.0958 734.752 39.521 737.948 42.4976V42.3322C737.948 39.466 738.886 37.0958 740.76 35.2217C742.634 33.2374 745.004 32.2452 747.87 32.2452ZM714.467 105.831C721.633 105.831 727.476 103.24 731.996 98.0581C736.516 92.767 738.776 86.1527 738.776 78.2153C738.776 70.2781 736.516 63.6636 731.996 58.3722C727.476 53.0806 721.633 50.4348 714.467 50.4348C707.413 50.4348 701.625 53.0806 697.105 58.3722C692.585 63.6636 690.325 70.2781 690.325 78.2153C690.325 86.1527 692.53 92.767 696.94 98.0581C701.459 103.24 707.302 105.831 714.467 105.831Z" fill="#242424"/>
<path d="M12.6404 191.401C9.72771 191.401 7.32277 190.759 5.42554 189.477C3.52832 188.168 2.45946 186.444 2.21896 184.306V184.226C2.21896 184.012 2.29913 183.839 2.45946 183.705C2.61979 183.571 2.8202 183.505 3.06069 183.505H5.18505C5.45227 183.505 5.65268 183.571 5.78628 183.705C5.91989 183.812 6.04014 184.012 6.14702 184.306C6.46768 185.402 7.16244 186.297 8.2313 186.992C9.32688 187.66 10.7832 187.994 12.6003 187.994C14.7647 187.994 16.4482 187.246 17.6506 185.749C18.8798 184.226 19.4944 182.142 19.4944 179.496V178.574H9.75443C9.48721 178.574 9.26008 178.481 9.07303 178.294C8.9127 178.107 8.83254 177.88 8.83254 177.613V176.25C8.83254 175.983 8.9127 175.755 9.07303 175.568C9.26008 175.381 9.48721 175.288 9.75443 175.288H19.4944V174.486C19.4944 171.627 18.8932 169.489 17.6907 168.073C16.515 166.657 14.8182 165.949 12.6003 165.949C10.7832 165.949 9.32688 166.296 8.2313 166.991C7.16244 167.685 6.48104 168.581 6.18711 169.676C6.08022 169.97 5.95997 170.184 5.82637 170.318C5.69276 170.424 5.49235 170.478 5.22513 170.478H3.10077C2.86028 170.478 2.64651 170.398 2.45946 170.237C2.29913 170.077 2.23232 169.877 2.25905 169.636C2.52626 167.472 3.59512 165.748 5.46563 164.466C7.33613 163.183 9.72771 162.542 12.6404 162.542C15.9004 162.542 18.4924 163.517 20.4163 165.468C22.367 167.392 23.3958 170.411 23.5026 174.526C23.5294 175.141 23.5427 175.969 23.5427 177.011C23.5427 178 23.5294 178.802 23.5026 179.416C23.3958 183.558 22.3803 186.591 20.4564 188.515C18.5324 190.439 15.9271 191.401 12.6404 191.401Z" fill="#242424"/>
<path d="M42.0056 192.283C41.7384 192.283 41.5113 192.189 41.3242 192.002C41.1639 191.842 41.0837 191.628 41.0837 191.361V188.194C37.1022 188.194 34.0693 187.339 31.9851 185.629C29.9008 183.919 28.6849 181.313 28.3376 177.813C28.3108 177.572 28.2975 177.185 28.2975 176.651C28.2975 175.876 28.3108 175.328 28.3376 175.007C28.5246 171.614 29.7271 169.035 31.945 167.271C34.1896 165.508 37.2358 164.626 41.0837 164.626V161.86C41.0837 161.566 41.1639 161.339 41.3242 161.179C41.5113 161.018 41.7384 160.938 42.0056 160.938H44.0899C44.3571 160.938 44.5709 161.032 44.7312 161.219C44.9183 161.379 45.0118 161.593 45.0118 161.86V164.626C48.8597 164.626 51.8926 165.508 54.1105 167.271C56.3551 169.035 57.5575 171.614 57.7179 175.007C57.7713 175.702 57.798 176.17 57.798 176.41C57.798 176.651 57.7713 177.118 57.7179 177.813C57.4239 181.313 56.2215 183.919 54.1105 185.629C51.9995 187.339 48.9666 188.194 45.0118 188.194V191.361C45.0118 191.628 44.9183 191.842 44.7312 192.002C44.5709 192.189 44.3571 192.283 44.0899 192.283H42.0056ZM41.0837 168.033C38.3849 168.033 36.3006 168.607 34.8309 169.756C33.3879 170.905 32.5596 172.709 32.3458 175.167C32.3191 175.435 32.3057 175.782 32.3057 176.21C32.3057 176.798 32.3191 177.265 32.3458 177.613C32.4794 180.071 33.281 181.875 34.7507 183.024C36.2471 184.173 38.3581 184.747 41.0837 184.747V168.033ZM44.9717 184.747C50.5565 184.747 53.4825 182.369 53.7497 177.613C53.7764 177.345 53.7898 176.931 53.7898 176.37C53.7898 175.836 53.7764 175.435 53.7497 175.167C53.4825 172.709 52.6274 170.905 51.1845 169.756C49.7415 168.607 47.6706 168.033 44.9717 168.033V184.747Z" fill="#242424"/>
<path d="M76.3339 192.283C76.0667 192.283 75.8395 192.189 75.6525 192.002C75.4921 191.842 75.412 191.628 75.412 191.361V188.194C71.4305 188.194 68.3976 187.339 66.3133 185.629C64.229 183.919 63.0132 181.313 62.6658 177.813C62.6391 177.572 62.6257 177.185 62.6257 176.651C62.6257 175.876 62.6391 175.328 62.6658 175.007C62.8529 171.614 64.0553 169.035 66.2732 167.271C68.5178 165.508 71.5641 164.626 75.412 164.626V161.86C75.412 161.566 75.4921 161.339 75.6525 161.179C75.8395 161.018 76.0667 160.938 76.3339 160.938H78.4182C78.6854 160.938 78.8991 161.032 79.0595 161.219C79.2465 161.379 79.34 161.593 79.34 161.86V164.626C83.188 164.626 86.2208 165.508 88.4387 167.271C90.6833 169.035 91.8858 171.614 92.0461 175.007C92.0996 175.702 92.1263 176.17 92.1263 176.41C92.1263 176.651 92.0996 177.118 92.0461 177.813C91.7522 181.313 90.5497 183.919 88.4387 185.629C86.3277 187.339 83.2948 188.194 79.34 188.194V191.361C79.34 191.628 79.2465 191.842 79.0595 192.002C78.8991 192.189 78.6854 192.283 78.4182 192.283H76.3339ZM75.412 168.033C72.7131 168.033 70.6288 168.607 69.1592 169.756C67.7162 170.905 66.8878 172.709 66.6741 175.167C66.6473 175.435 66.634 175.782 66.634 176.21C66.634 176.798 66.6473 177.265 66.6741 177.613C66.8077 180.071 67.6093 181.875 69.079 183.024C70.5754 184.173 72.6864 184.747 75.412 184.747V168.033ZM79.3 184.747C84.8848 184.747 87.8108 182.369 88.078 177.613C88.1047 177.345 88.1181 176.931 88.1181 176.37C88.1181 175.836 88.1047 175.435 88.078 175.167C87.8108 172.709 86.9557 170.905 85.5127 169.756C84.0698 168.607 81.9988 168.033 79.3 168.033V184.747Z" fill="#242424"/>
<path d="M98.9581 191C98.6909 191 98.4638 190.92 98.2767 190.759C98.1164 190.572 98.0362 190.345 98.0362 190.078V163.904C98.0362 163.61 98.1164 163.383 98.2767 163.223C98.4638 163.036 98.6909 162.942 98.9581 162.942H115.512C115.779 162.942 115.993 163.036 116.153 163.223C116.34 163.383 116.434 163.61 116.434 163.904V165.428C116.434 165.695 116.354 165.922 116.193 166.109C116.033 166.269 115.806 166.349 115.512 166.349H101.884V175.127H114.63C114.897 175.127 115.111 175.221 115.272 175.408C115.459 175.568 115.552 175.795 115.552 176.089V177.572C115.552 177.84 115.459 178.067 115.272 178.254C115.111 178.414 114.897 178.494 114.63 178.494H101.884V187.593H115.833C116.127 187.593 116.354 187.673 116.514 187.833C116.674 187.994 116.755 188.221 116.755 188.515V190.078C116.755 190.345 116.661 190.572 116.474 190.759C116.314 190.92 116.1 191 115.833 191H98.9581Z" fill="#242424"/>
<path d="M142.866 189.597C142.946 189.704 142.986 189.851 142.986 190.038C142.986 190.305 142.893 190.532 142.706 190.719C142.545 190.906 142.332 191 142.064 191H139.78C139.512 191 139.299 190.947 139.138 190.84C139.005 190.733 138.871 190.586 138.738 190.399L131.042 178.574H126.272V190.078C126.272 190.345 126.178 190.572 125.991 190.759C125.804 190.92 125.577 191 125.31 191H123.266C122.999 191 122.771 190.92 122.584 190.759C122.424 190.572 122.344 190.345 122.344 190.078V163.904C122.344 163.61 122.424 163.383 122.584 163.223C122.771 163.036 122.999 162.942 123.266 162.942H125.31C125.604 162.942 125.831 163.036 125.991 163.223C126.178 163.383 126.272 163.61 126.272 163.904V174.967L130.841 175.007L137.936 163.584C138.203 163.156 138.657 162.942 139.299 162.942H141.463C142.024 162.942 142.305 163.21 142.305 163.744C142.305 163.878 142.238 164.051 142.104 164.265L134.409 176.53L142.866 189.597Z" fill="#242424"/>
<path d="M155.037 191C154.77 191 154.543 190.92 154.356 190.759C154.195 190.572 154.115 190.345 154.115 190.078V166.51H146.419C146.152 166.51 145.925 166.43 145.738 166.269C145.578 166.082 145.497 165.855 145.497 165.588V163.904C145.497 163.637 145.578 163.41 145.738 163.223C145.925 163.036 146.152 162.942 146.419 162.942H165.739C166.033 162.942 166.26 163.036 166.42 163.223C166.607 163.383 166.701 163.61 166.701 163.904V165.588C166.701 165.855 166.607 166.082 166.42 166.269C166.233 166.43 166.006 166.51 165.739 166.51H158.083V190.078C158.083 190.345 157.99 190.572 157.803 190.759C157.616 190.92 157.388 191 157.121 191H155.037Z" fill="#242424"/>
<path d="M172.116 191C171.849 191 171.622 190.92 171.435 190.759C171.274 190.572 171.194 190.332 171.194 190.038V163.904C171.194 163.61 171.274 163.383 171.435 163.223C171.622 163.036 171.849 162.942 172.116 162.942H174.2C174.468 162.942 174.681 163.036 174.842 163.223C175.029 163.41 175.122 163.637 175.122 163.904V184.627L190.073 163.504C190.287 163.129 190.621 162.942 191.075 162.942H193.039C193.306 162.942 193.52 163.036 193.68 163.223C193.867 163.383 193.961 163.61 193.961 163.904V190.078C193.961 190.345 193.867 190.572 193.68 190.759C193.52 190.92 193.306 191 193.039 191H190.995C190.728 191 190.5 190.92 190.313 190.759C190.126 190.572 190.033 190.345 190.033 190.078V169.516L175.122 190.439C174.908 190.813 174.574 191 174.12 191H172.116Z" fill="#242424"/>
<path d="M201.865 191C201.597 191 201.37 190.92 201.183 190.759C201.023 190.572 200.943 190.345 200.943 190.078V163.904C200.943 163.61 201.023 163.383 201.183 163.223C201.37 163.036 201.597 162.942 201.865 162.942H212.847C215.706 162.942 217.857 163.624 219.3 164.987C220.743 166.349 221.465 168.14 221.465 170.358C221.465 171.854 221.117 173.097 220.423 174.085C219.755 175.074 218.953 175.795 218.018 176.25C219.14 176.811 220.089 177.679 220.864 178.855C221.639 180.031 222.026 181.38 222.026 182.903C222.026 184.4 221.679 185.763 220.984 186.992C220.316 188.221 219.314 189.196 217.978 189.918C216.642 190.639 215.038 191 213.168 191H201.865ZM212.246 174.807C213.929 174.807 215.212 174.419 216.094 173.644C217.002 172.869 217.457 171.787 217.457 170.398C217.457 169.035 217.016 167.993 216.134 167.271C215.252 166.55 213.956 166.189 212.246 166.189H204.871V174.807H212.246ZM212.647 187.753C214.33 187.753 215.64 187.299 216.575 186.391C217.537 185.482 218.018 184.32 218.018 182.903C218.018 181.434 217.537 180.258 216.575 179.376C215.64 178.468 214.33 178.013 212.647 178.013H204.871V187.753H212.647Z" fill="#242424"/>
<path d="M228.638 191C228.371 191 228.144 190.92 227.957 190.759C227.797 190.572 227.716 190.345 227.716 190.078V163.904C227.716 163.61 227.797 163.383 227.957 163.223C228.144 163.036 228.371 162.942 228.638 162.942H230.682C230.976 162.942 231.204 163.036 231.364 163.223C231.551 163.383 231.644 163.61 231.644 163.904V174.967H245.433V163.904C245.433 163.61 245.513 163.383 245.673 163.223C245.86 163.036 246.087 162.942 246.355 162.942H248.399C248.693 162.942 248.92 163.036 249.08 163.223C249.267 163.383 249.361 163.61 249.361 163.904V190.078C249.361 190.345 249.267 190.572 249.08 190.759C248.893 190.92 248.666 191 248.399 191H246.355C246.087 191 245.86 190.92 245.673 190.759C245.513 190.572 245.433 190.345 245.433 190.078V178.574H231.644V190.078C231.644 190.345 231.551 190.572 231.364 190.759C231.177 190.92 230.95 191 230.682 191H228.638Z" fill="#242424"/>
<path d="M257.252 191C256.984 191 256.757 190.92 256.57 190.759C256.41 190.572 256.33 190.345 256.33 190.078V163.864C256.33 163.597 256.41 163.383 256.57 163.223C256.757 163.036 256.984 162.942 257.252 162.942H259.296C259.563 162.942 259.79 163.036 259.977 163.223C260.164 163.383 260.258 163.597 260.258 163.864V173.604H265.388C268.328 173.604 270.586 174.339 272.162 175.809C273.739 177.252 274.527 179.376 274.527 182.182C274.527 183.758 274.18 185.215 273.485 186.551C272.817 187.887 271.788 188.969 270.399 189.798C269.036 190.599 267.366 191 265.388 191H257.252ZM279.297 191C279.03 191 278.803 190.92 278.616 190.759C278.455 190.572 278.375 190.345 278.375 190.078V163.864C278.375 163.597 278.455 163.383 278.616 163.223C278.803 163.036 279.03 162.942 279.297 162.942H281.421C281.689 162.942 281.902 163.036 282.063 163.223C282.25 163.383 282.343 163.597 282.343 163.864V190.078C282.343 190.345 282.25 190.572 282.063 190.759C281.902 190.92 281.689 191 281.421 191H279.297ZM265.068 187.633C266.778 187.633 268.114 187.139 269.076 186.15C270.038 185.135 270.519 183.785 270.519 182.102C270.519 178.655 268.702 176.931 265.068 176.931H260.258V187.633H265.068Z" fill="#242424"/>
<path d="M290.249 191C289.982 191 289.755 190.92 289.568 190.759C289.407 190.572 289.327 190.345 289.327 190.078V163.904C289.327 163.61 289.407 163.383 289.568 163.223C289.755 163.036 289.982 162.942 290.249 162.942H306.803C307.07 162.942 307.284 163.036 307.444 163.223C307.631 163.383 307.725 163.61 307.725 163.904V165.428C307.725 165.695 307.645 165.922 307.484 166.109C307.324 166.269 307.097 166.349 306.803 166.349H293.175V175.127H305.921C306.188 175.127 306.402 175.221 306.563 175.408C306.75 175.568 306.843 175.795 306.843 176.089V177.572C306.843 177.84 306.75 178.067 306.563 178.254C306.402 178.414 306.188 178.494 305.921 178.494H293.175V187.593H307.124C307.418 187.593 307.645 187.673 307.805 187.833C307.965 187.994 308.046 188.221 308.046 188.515V190.078C308.046 190.345 307.952 190.572 307.765 190.759C307.605 190.92 307.391 191 307.124 191H290.249Z" fill="#242424"/>
<path d="M345.024 196.612C344.757 196.612 344.53 196.518 344.343 196.331C344.182 196.171 344.102 195.957 344.102 195.69V191H324.382C324.114 191 323.887 190.92 323.7 190.759C323.54 190.572 323.46 190.332 323.46 190.038V163.864C323.46 163.57 323.54 163.343 323.7 163.183C323.887 163.023 324.114 162.942 324.382 162.942H326.426C326.693 162.942 326.92 163.036 327.107 163.223C327.294 163.383 327.388 163.597 327.388 163.864V187.393H341.176V163.864C341.176 163.597 341.256 163.383 341.417 163.223C341.604 163.036 341.831 162.942 342.098 162.942H344.142C344.409 162.942 344.637 163.036 344.824 163.223C345.011 163.383 345.104 163.597 345.104 163.864V187.393H347.068C347.335 187.393 347.563 187.486 347.75 187.673C347.937 187.833 348.03 188.047 348.03 188.314V195.69C348.03 195.957 347.937 196.171 347.75 196.331C347.563 196.518 347.335 196.612 347.068 196.612H345.024Z" fill="#242424"/>
<path d="M353.817 191C353.55 191 353.323 190.92 353.136 190.759C352.975 190.572 352.895 190.332 352.895 190.038V163.904C352.895 163.61 352.975 163.383 353.136 163.223C353.323 163.036 353.55 162.942 353.817 162.942H355.901C356.169 162.942 356.382 163.036 356.543 163.223C356.73 163.41 356.823 163.637 356.823 163.904V184.627L371.774 163.504C371.988 163.129 372.322 162.942 372.776 162.942H374.74C375.007 162.942 375.221 163.036 375.381 163.223C375.568 163.383 375.662 163.61 375.662 163.904V190.078C375.662 190.345 375.568 190.572 375.381 190.759C375.221 190.92 375.007 191 374.74 191H372.696C372.429 191 372.201 190.92 372.014 190.759C371.827 190.572 371.734 190.345 371.734 190.078V169.516L356.823 190.439C356.609 190.813 356.275 191 355.821 191H353.817Z" fill="#242424"/>
<path d="M395.27 192.283C395.002 192.283 394.775 192.189 394.588 192.002C394.428 191.842 394.348 191.628 394.348 191.361V188.194C390.366 188.194 387.333 187.339 385.249 185.629C383.165 183.919 381.949 181.313 381.602 177.813C381.575 177.572 381.562 177.185 381.562 176.651C381.562 175.876 381.575 175.328 381.602 175.007C381.789 171.614 382.991 169.035 385.209 167.271C387.454 165.508 390.5 164.626 394.348 164.626V161.86C394.348 161.566 394.428 161.339 394.588 161.179C394.775 161.018 395.002 160.938 395.27 160.938H397.354C397.621 160.938 397.835 161.032 397.995 161.219C398.182 161.379 398.276 161.593 398.276 161.86V164.626C402.124 164.626 405.157 165.508 407.374 167.271C409.619 169.035 410.822 171.614 410.982 175.007C411.035 175.702 411.062 176.17 411.062 176.41C411.062 176.651 411.035 177.118 410.982 177.813C410.688 181.313 409.485 183.919 407.374 185.629C405.263 187.339 402.231 188.194 398.276 188.194V191.361C398.276 191.628 398.182 191.842 397.995 192.002C397.835 192.189 397.621 192.283 397.354 192.283H395.27ZM394.348 168.033C391.649 168.033 389.565 168.607 388.095 169.756C386.652 170.905 385.824 172.709 385.61 175.167C385.583 175.435 385.57 175.782 385.57 176.21C385.57 176.798 385.583 177.265 385.61 177.613C385.743 180.071 386.545 181.875 388.015 183.024C389.511 184.173 391.622 184.747 394.348 184.747V168.033ZM398.236 184.747C403.821 184.747 406.747 182.369 407.014 177.613C407.04 177.345 407.054 176.931 407.054 176.37C407.054 175.836 407.04 175.435 407.014 175.167C406.747 172.709 405.891 170.905 404.448 169.756C403.006 168.607 400.935 168.033 398.236 168.033V184.747Z" fill="#242424"/>
<path d="M417.894 191C417.627 191 417.4 190.92 417.212 190.759C417.052 190.572 416.972 190.345 416.972 190.078V163.904C416.972 163.61 417.052 163.383 417.212 163.223C417.4 163.036 417.627 162.942 417.894 162.942H428.075C431.094 162.942 433.473 163.677 435.209 165.147C436.946 166.617 437.815 168.741 437.815 171.52C437.815 174.299 436.946 176.423 435.209 177.893C433.499 179.336 431.121 180.058 428.075 180.058H420.98V190.078C420.98 190.345 420.887 190.572 420.7 190.759C420.513 190.92 420.285 191 420.018 191H417.894ZM427.874 176.691C429.825 176.691 431.295 176.25 432.283 175.368C433.299 174.486 433.807 173.203 433.807 171.52C433.807 169.837 433.312 168.554 432.323 167.672C431.335 166.764 429.852 166.309 427.874 166.309H420.94V176.691H427.874Z" fill="#242424"/>
<path d="M452.79 191.401C449.289 191.401 446.577 190.492 444.653 188.675C442.756 186.831 441.754 184.066 441.647 180.378C441.62 179.577 441.607 178.441 441.607 176.971C441.607 175.502 441.62 174.379 441.647 173.604C441.754 169.997 442.796 167.258 444.773 165.387C446.75 163.49 449.423 162.542 452.79 162.542C456.13 162.542 458.789 163.49 460.766 165.387C462.743 167.258 463.785 169.997 463.892 173.604C463.946 175.154 463.973 176.276 463.973 176.971C463.973 177.639 463.946 178.775 463.892 180.378C463.785 184.066 462.77 186.831 460.846 188.675C458.949 190.492 456.263 191.401 452.79 191.401ZM452.79 187.994C454.901 187.994 456.584 187.353 457.84 186.07C459.096 184.787 459.777 182.823 459.884 180.178C459.938 178.574 459.964 177.506 459.964 176.971C459.964 176.383 459.938 175.314 459.884 173.765C459.777 171.119 459.082 169.155 457.8 167.873C456.544 166.59 454.874 165.949 452.79 165.949C450.679 165.949 448.982 166.59 447.699 167.873C446.443 169.155 445.762 171.119 445.655 173.765C445.628 174.54 445.615 175.608 445.615 176.971C445.615 178.307 445.628 179.376 445.655 180.178C445.762 182.823 446.443 184.787 447.699 186.07C448.982 187.353 450.679 187.994 452.79 187.994Z" fill="#242424"/>
<path d="M470.737 191C470.47 191 470.242 190.92 470.055 190.759C469.895 190.572 469.815 190.345 469.815 190.078V163.904C469.815 163.61 469.895 163.383 470.055 163.223C470.242 163.036 470.47 162.942 470.737 162.942H481.719C484.578 162.942 486.73 163.624 488.172 164.987C489.615 166.349 490.337 168.14 490.337 170.358C490.337 171.854 489.99 173.097 489.295 174.085C488.627 175.074 487.825 175.795 486.89 176.25C488.012 176.811 488.961 177.679 489.736 178.855C490.511 180.031 490.898 181.38 490.898 182.903C490.898 184.4 490.551 185.763 489.856 186.992C489.188 188.221 488.186 189.196 486.85 189.918C485.514 190.639 483.91 191 482.04 191H470.737ZM481.118 174.807C482.801 174.807 484.084 174.419 484.966 173.644C485.874 172.869 486.329 171.787 486.329 170.398C486.329 169.035 485.888 167.993 485.006 167.271C484.124 166.55 482.828 166.189 481.118 166.189H473.743V174.807H481.118ZM481.519 187.753C483.202 187.753 484.512 187.299 485.447 186.391C486.409 185.482 486.89 184.32 486.89 182.903C486.89 181.434 486.409 180.258 485.447 179.376C484.512 178.468 483.202 178.013 481.519 178.013H473.743V187.753H481.519Z" fill="#242424"/>
<path d="M497.51 191C497.243 191 497.016 190.92 496.829 190.759C496.669 190.572 496.589 190.345 496.589 190.078V163.864C496.589 163.597 496.669 163.383 496.829 163.223C497.016 163.036 497.243 162.942 497.51 162.942H499.555C499.822 162.942 500.049 163.036 500.236 163.223C500.423 163.383 500.517 163.597 500.517 163.864V173.604H505.647C508.586 173.604 510.844 174.339 512.421 175.809C513.998 177.252 514.786 179.376 514.786 182.182C514.786 183.758 514.438 185.215 513.744 186.551C513.076 187.887 512.047 188.969 510.657 189.798C509.295 190.599 507.624 191 505.647 191H497.51ZM519.556 191C519.288 191 519.061 190.92 518.874 190.759C518.714 190.572 518.634 190.345 518.634 190.078V163.864C518.634 163.597 518.714 163.383 518.874 163.223C519.061 163.036 519.288 162.942 519.556 162.942H521.68C521.947 162.942 522.161 163.036 522.321 163.223C522.508 163.383 522.602 163.597 522.602 163.864V190.078C522.602 190.345 522.508 190.572 522.321 190.759C522.161 190.92 521.947 191 521.68 191H519.556ZM505.326 187.633C507.037 187.633 508.373 187.139 509.335 186.15C510.297 185.135 510.778 183.785 510.778 182.102C510.778 178.655 508.961 176.931 505.326 176.931H500.517V187.633H505.326Z" fill="#242424"/>
<path d="M530.508 191C530.241 191 530.014 190.92 529.826 190.759C529.666 190.572 529.586 190.345 529.586 190.078V163.904C529.586 163.61 529.666 163.383 529.826 163.223C530.014 163.036 530.241 162.942 530.508 162.942H547.062C547.329 162.942 547.543 163.036 547.703 163.223C547.89 163.383 547.984 163.61 547.984 163.904V165.428C547.984 165.695 547.904 165.922 547.743 166.109C547.583 166.269 547.356 166.349 547.062 166.349H533.434V175.127H546.18C546.447 175.127 546.661 175.221 546.821 175.408C547.008 175.568 547.102 175.795 547.102 176.089V177.572C547.102 177.84 547.008 178.067 546.821 178.254C546.661 178.414 546.447 178.494 546.18 178.494H533.434V187.593H547.382C547.676 187.593 547.904 187.673 548.064 187.833C548.224 187.994 548.304 188.221 548.304 188.515V190.078C548.304 190.345 548.211 190.572 548.024 190.759C547.863 190.92 547.65 191 547.382 191H530.508Z" fill="#242424"/>
<path d="M564.64 191C564.373 191 564.146 190.92 563.959 190.759C563.799 190.572 563.719 190.345 563.719 190.078V163.904C563.719 163.61 563.799 163.383 563.959 163.223C564.146 163.036 564.373 162.942 564.64 162.942H574.821C577.841 162.942 580.219 163.677 581.956 165.147C583.693 166.617 584.561 168.741 584.561 171.52C584.561 174.299 583.693 176.423 581.956 177.893C580.246 179.336 577.868 180.058 574.821 180.058H567.727V190.078C567.727 190.345 567.633 190.572 567.446 190.759C567.259 190.92 567.032 191 566.765 191H564.64ZM574.621 176.691C576.572 176.691 578.041 176.25 579.03 175.368C580.045 174.486 580.553 173.203 580.553 171.52C580.553 169.837 580.059 168.554 579.07 167.672C578.081 166.764 576.598 166.309 574.621 166.309H567.687V176.691H574.621Z" fill="#242424"/>
<path d="M590.357 191C590.09 191 589.863 190.92 589.676 190.759C589.515 190.572 589.435 190.345 589.435 190.078V163.904C589.435 163.61 589.515 163.383 589.676 163.223C589.863 163.036 590.09 162.942 590.357 162.942H606.911C607.178 162.942 607.392 163.036 607.552 163.223C607.74 163.383 607.833 163.61 607.833 163.904V165.428C607.833 165.695 607.753 165.922 607.593 166.109C607.432 166.269 607.205 166.349 606.911 166.349H593.283V175.127H606.029C606.297 175.127 606.51 175.221 606.671 175.408C606.858 175.568 606.951 175.795 606.951 176.089V177.572C606.951 177.84 606.858 178.067 606.671 178.254C606.51 178.414 606.297 178.494 606.029 178.494H593.283V187.593H607.232C607.526 187.593 607.753 187.673 607.913 187.833C608.074 187.994 608.154 188.221 608.154 188.515V190.078C608.154 190.345 608.06 190.572 607.873 190.759C607.713 190.92 607.499 191 607.232 191H590.357Z" fill="#242424"/>
<path d="M614.665 191C614.398 191 614.171 190.92 613.984 190.759C613.823 190.572 613.743 190.345 613.743 190.078V163.864C613.743 163.57 613.823 163.343 613.984 163.183C614.171 163.023 614.398 162.942 614.665 162.942H616.709C616.976 162.942 617.203 163.036 617.391 163.223C617.578 163.383 617.671 163.597 617.671 163.864V187.393H627.491V163.864C627.491 163.597 627.571 163.383 627.732 163.223C627.919 163.036 628.146 162.942 628.413 162.942H630.457C630.725 162.942 630.952 163.036 631.139 163.223C631.326 163.383 631.419 163.597 631.419 163.864V187.393H641.239V163.864C641.239 163.597 641.32 163.383 641.48 163.223C641.667 163.036 641.894 162.942 642.161 162.942H644.206C644.499 162.942 644.727 163.036 644.887 163.223C645.074 163.383 645.168 163.597 645.168 163.864V190.078C645.168 190.345 645.074 190.572 644.887 190.759C644.727 190.92 644.499 191 644.206 191H614.665Z" fill="#242424"/>
<path d="M653.064 191C652.797 191 652.57 190.92 652.383 190.759C652.222 190.572 652.142 190.345 652.142 190.078V163.904C652.142 163.61 652.222 163.383 652.383 163.223C652.57 163.036 652.797 162.942 653.064 162.942H669.618C669.885 162.942 670.099 163.036 670.259 163.223C670.446 163.383 670.54 163.61 670.54 163.904V165.428C670.54 165.695 670.46 165.922 670.299 166.109C670.139 166.269 669.912 166.349 669.618 166.349H655.99V175.127H668.736C669.003 175.127 669.217 175.221 669.378 175.408C669.565 175.568 669.658 175.795 669.658 176.089V177.572C669.658 177.84 669.565 178.067 669.378 178.254C669.217 178.414 669.003 178.494 668.736 178.494H655.99V187.593H669.939C670.233 187.593 670.46 187.673 670.62 187.833C670.78 187.994 670.861 188.221 670.861 188.515V190.078C670.861 190.345 670.767 190.572 670.58 190.759C670.42 190.92 670.206 191 669.939 191H653.064Z" fill="#242424"/>
<path d="M677.372 191C677.105 191 676.877 190.92 676.69 190.759C676.53 190.572 676.45 190.345 676.45 190.078V163.904C676.45 163.61 676.53 163.383 676.69 163.223C676.877 163.036 677.105 162.942 677.372 162.942H679.416C679.71 162.942 679.937 163.036 680.097 163.223C680.284 163.383 680.378 163.61 680.378 163.904V174.967H694.166V163.904C694.166 163.61 694.246 163.383 694.407 163.223C694.594 163.036 694.821 162.942 695.088 162.942H697.132C697.426 162.942 697.653 163.036 697.814 163.223C698.001 163.383 698.094 163.61 698.094 163.904V190.078C698.094 190.345 698.001 190.572 697.814 190.759C697.627 190.92 697.4 191 697.132 191H695.088C694.821 191 694.594 190.92 694.407 190.759C694.246 190.572 694.166 190.345 694.166 190.078V178.574H680.378V190.078C680.378 190.345 680.284 190.572 680.097 190.759C679.91 190.92 679.683 191 679.416 191H677.372Z" fill="#242424"/>
<path d="M705.985 191C705.718 191 705.491 190.92 705.304 190.759C705.143 190.572 705.063 190.332 705.063 190.038V163.904C705.063 163.61 705.143 163.383 705.304 163.223C705.491 163.036 705.718 162.942 705.985 162.942H708.069C708.337 162.942 708.55 163.036 708.711 163.223C708.898 163.41 708.991 163.637 708.991 163.904V184.627L723.942 163.504C724.156 163.129 724.49 162.942 724.944 162.942H726.908C727.175 162.942 727.389 163.036 727.549 163.223C727.736 163.383 727.83 163.61 727.83 163.904V190.078C727.83 190.345 727.736 190.572 727.549 190.759C727.389 190.92 727.175 191 726.908 191H724.864C724.597 191 724.37 190.92 724.182 190.759C723.995 190.572 723.902 190.345 723.902 190.078V169.516L708.991 190.439C708.778 190.813 708.444 191 707.989 191H705.985Z" fill="#242424"/>
<path d="M753.37 162.942C753.637 162.942 753.851 163.036 754.011 163.223C754.198 163.383 754.292 163.597 754.292 163.864V190.078C754.292 190.345 754.198 190.572 754.011 190.759C753.851 190.92 753.637 191 753.37 191H751.326C751.058 191 750.831 190.92 750.644 190.759C750.457 190.572 750.364 190.345 750.364 190.078V180.338H744.872L738.82 189.918C738.606 190.292 738.392 190.572 738.179 190.759C737.965 190.92 737.658 191 737.257 191H735.333C735.119 191 734.932 190.92 734.772 190.759C734.611 190.599 734.531 190.412 734.531 190.198C734.531 190.065 734.571 189.918 734.651 189.757L740.864 179.977C739.02 179.496 737.591 178.548 736.575 177.132C735.56 175.715 735.052 173.912 735.052 171.72C735.052 170.171 735.386 168.728 736.054 167.392C736.749 166.055 737.778 164.987 739.141 164.185C740.53 163.357 742.214 162.942 744.191 162.942H753.37ZM750.364 166.309H744.512C742.801 166.309 741.465 166.817 740.503 167.832C739.541 168.821 739.061 170.144 739.061 171.801C739.061 175.248 740.878 176.971 744.512 176.971H750.364V166.309Z" fill="#242424"/>
</svg>
