<svg width="15" height="15" viewBox="0 0 15 15" fill="none" xmlns="http://www.w3.org/2000/svg">
<path d="M13.9396 11.6595L13.8699 11.4495C13.7048 10.9588 13.1638 10.4471 12.6667 10.3123L10.8271 9.80975C10.3282 9.67403 9.61654 9.85653 9.25154 10.2215L8.58574 10.8873C6.16608 10.2335 4.26869 8.33603 3.61575 5.91684L4.28158 5.25102C4.64658 4.88601 4.82905 4.17531 4.69333 3.67643L4.19169 1.83589C4.05597 1.33792 3.54332 0.796866 3.05363 0.633614L2.84363 0.563008C2.35299 0.399757 1.65327 0.564857 1.2883 0.929832L0.292354 1.92668C0.11443 2.10367 0.000714632 2.60988 0.000714632 2.61173C-0.034119 5.77375 1.20575 8.82021 3.44243 11.0569C5.67363 13.2881 8.70867 14.5262 11.8615 14.4996C11.878 14.4996 12.3989 14.3877 12.5768 14.2107L13.5728 13.2147C13.9377 12.8498 14.1028 12.1501 13.9396 11.6595Z" fill="#05C8B2"/>
</svg>
