<?xml version="1.0" standalone="no"?>
<!DOCTYPE svg PUBLIC "-//W3C//DTD SVG 20010904//EN"
 "http://www.w3.org/TR/2001/REC-SVG-20010904/DTD/svg10.dtd">
<svg version="1.0" xmlns="http://www.w3.org/2000/svg"
 width="688.000000pt" height="688.000000pt" viewBox="0 0 688.000000 688.000000"
 preserveAspectRatio="xMidYMid meet">
<metadata>
Created by potrace 1.11, written by Peter Selinger 2001-2013
</metadata>
<g transform="translate(0.000000,688.000000) scale(0.100000,-0.100000)"
fill="#000000" stroke="none">
<path d="M160 3753 c0 -2666 1 -2708 19 -2678 20 32 472 804 1943 3320 492
842 948 1622 1013 1735 65 113 138 233 161 268 l43 62 -1589 0 -1590 0 0
-2707z"/>
<path d="M4864 6438 c11 -40 35 -175 76 -438 22 -140 68 -435 104 -655 35
-220 90 -557 121 -750 31 -192 85 -530 121 -750 36 -220 78 -483 94 -585 100
-623 339 -2100 381 -2360 24 -144 20 -189 -20 -252 -51 -80 -40 -78 -537 -78
-426 0 -439 1 -482 21 -82 40 -84 45 -182 571 -49 260 -95 502 -102 538 l-13
65 -1276 3 -1277 2 -321 -532 -321 -533 0 -202 0 -203 2825 0 2825 0 0 2825 0
2825 -540 0 -540 0 0 255 0 255 -471 0 -471 0 6 -22z"/>
<path d="M3155 4095 c-418 -724 -761 -1320 -763 -1325 -2 -7 349 -10 972 -10
537 0 976 2 976 4 0 6 -178 1151 -190 1221 -6 33 -48 308 -95 610 -115 740
-127 815 -134 815 -3 0 -348 -592 -766 -1315z"/>
</g>
</svg>
