<svg width="122" height="41" viewBox="0 0 122 41" fill="none" xmlns="http://www.w3.org/2000/svg">
<g clip-path="url(#clip0)">
<path d="M30.0251 14.2162H15.8036V18.449H25.8897C25.3914 24.3844 20.468 26.9157 15.8206 26.9157C9.87484 26.9157 4.68642 22.2235 4.68642 15.6468C4.68642 9.24007 9.6323 4.30603 15.8337 4.30603C20.6182 4.30603 23.4375 7.36518 23.4375 7.36518L26.3923 4.29612C26.3923 4.29612 22.5997 0.0612793 15.6826 0.0612793C6.87461 0.0611569 0.0605469 7.5174 0.0605469 15.5712C0.0605469 23.4629 6.47031 31.1581 15.9071 31.1581C24.2069 31.1581 30.2824 25.4554 30.2824 17.0224C30.2824 15.2433 30.0249 14.2151 30.0249 14.2151L30.0251 14.2162Z" fill="#4885ED"/>
<path d="M41.6753 11.1511C35.8398 11.1511 31.6577 15.727 31.6577 21.0637C31.6577 26.4794 35.7141 31.1403 41.7438 31.1403C47.2023 31.1403 51.6743 26.9558 51.6743 21.1801C51.6743 14.5604 46.4724 11.1511 41.6753 11.1511ZM41.7333 15.077C44.603 15.077 47.3223 17.404 47.3223 21.1537C47.3223 24.8238 44.6146 27.2172 41.7201 27.2172C38.5398 27.2172 36.0309 24.6624 36.0309 21.1246C36.0309 17.6626 38.5087 15.077 41.7333 15.077Z" fill="#DB3236"/>
<path d="M63.4619 11.1511C57.6264 11.1511 53.4443 15.727 53.4443 21.0637C53.4443 26.4794 57.5007 31.1403 63.5305 31.1403C68.989 31.1403 73.4609 26.9558 73.4609 21.1801C73.4609 14.5604 68.2591 11.1511 63.4619 11.1511ZM63.5199 15.077C66.3896 15.077 69.109 17.404 69.109 21.1537C69.109 24.8238 66.4012 27.2172 63.5067 27.2172C60.3264 27.2172 57.8175 24.6624 57.8175 21.1246C57.8175 17.6626 60.2953 15.077 63.5199 15.077Z" fill="#F4C20D"/>
<path d="M84.8314 11.1619C79.4751 11.1619 75.2649 15.8672 75.2649 21.1485C75.2649 27.1644 80.146 31.1538 84.739 31.1538C87.5791 31.1538 89.0892 30.023 90.2042 28.7252V30.696C90.2042 34.1443 88.1167 36.2092 84.966 36.2092C81.9222 36.2092 80.3955 33.9392 79.8649 32.651L76.0352 34.2568C77.3938 37.1382 80.1288 40.143 84.9977 40.143C90.3232 40.143 94.3822 36.7786 94.3822 29.7224V11.7628H90.2043V13.4559C88.9196 12.0674 87.1628 11.1621 84.8314 11.1621V11.1619ZM85.2191 15.0798C87.8452 15.0798 90.5417 17.3289 90.5417 21.1697C90.5417 25.0736 87.8509 27.2252 85.161 27.2252C82.3055 27.2252 79.6485 24.8996 79.6485 21.2068C79.6485 17.3696 82.408 15.0798 85.219 15.0798H85.2191Z" fill="#4885ED"/>
<path d="M112.959 11.1377C107.906 11.1377 103.664 15.1697 103.664 21.1191C103.664 27.4144 108.392 31.1481 113.444 31.1481C117.66 31.1481 120.248 28.8346 121.792 26.7619L118.347 24.463C117.453 25.8544 115.959 27.2143 113.465 27.2143C110.664 27.2143 109.376 25.6756 108.578 24.1852L121.939 18.6244L121.245 16.9947C119.955 13.8034 116.944 11.1383 112.959 11.1383L112.959 11.1377ZM113.133 14.9816C114.953 14.9816 116.264 15.9525 116.82 17.1165L107.897 20.8572C107.512 17.9612 110.248 14.9816 113.133 14.9816Z" fill="#DB3236"/>
<path d="M97.2937 30.5548H101.683V1.09521H97.2937V30.5548Z" fill="#3CBA54"/>
</g>
<defs>
<clipPath id="clip0">
<rect width="122" height="40.2045" fill="white"/>
</clipPath>
</defs>
</svg>
