<svg width="41" height="41" viewBox="0 0 41 41" fill="none" xmlns="http://www.w3.org/2000/svg">
<path d="M21.2498 1.77271V21.2581H1.7644C2.15958 31.2505 10.4121 39.2581 20.4998 39.2581C30.8387 39.2581 39.2498 30.847 39.2498 20.5081C39.2498 10.4204 31.2422 2.16788 21.2498 1.77271ZM20.4998 37.0081C20.0856 37.0081 19.7498 36.6722 19.7498 36.2581C19.7498 35.8439 20.0856 35.5081 20.4998 35.5081C28.7706 35.5081 35.4998 28.7789 35.4998 20.5081C35.4998 20.0939 35.8356 19.7581 36.2498 19.7581C36.6639 19.7581 36.9998 20.0939 36.9998 20.5081C36.9998 29.6063 29.598 37.0081 20.4998 37.0081Z" fill="white"/>
<path d="M20.5 0.25H19.75V19.75H0.25V20.5C0.25 31.6658 9.33422 40.75 20.5 40.75C31.6658 40.75 40.75 31.6658 40.75 20.5C40.75 9.33422 31.6658 0.25 20.5 0.25ZM20.5 39.25C10.4123 39.25 2.1598 31.2424 1.76463 21.25H21.25V1.76463C31.2424 2.1598 39.25 10.4123 39.25 20.5C39.25 30.8389 30.8389 39.25 20.5 39.25Z" fill="#05C8B2"/>
<path d="M36.25 19.7485C35.8358 19.7485 35.5 20.0844 35.5 20.4985C35.5 28.7694 28.7708 35.4985 20.5 35.4985C20.0859 35.4985 19.75 35.8344 19.75 36.2485C19.75 36.6627 20.0859 36.9985 20.5 36.9985C29.5982 36.9985 37 29.5967 37 20.4985C37 20.0844 36.6642 19.7485 36.25 19.7485Z" fill="#05C8B2"/>
<path d="M16.75 7.75464H15.25V18.2546H16.75V7.75464Z" fill="#05C8B2"/>
<path d="M13.75 11.5022H12.25V18.2524H13.75V11.5022Z" fill="#05C8B2"/>
<path d="M10.75 6.25195H9.25V18.252H10.75V6.25195Z" fill="#05C8B2"/>
<path d="M7.75 3.99756H6.25V18.2476H7.75V3.99756Z" fill="#05C8B2"/>
<path d="M4.75 9.2478H3.25V18.2478H4.75V9.2478Z" fill="#05C8B2"/>
</svg>
