<svg width="19" height="45" viewBox="0 0 19 45" fill="none" xmlns="http://www.w3.org/2000/svg">
<path d="M6.93696 28.857L11.3211 28.8352C11.4955 27.7628 11.9955 26.345 12.587 24.667C14.395 19.5431 17.1145 11.8276 13.3563 5.75564C12.0131 6.12907 10.646 6.31614 9.25983 6.31684C7.84768 6.31755 6.41655 6.12486 4.96783 5.73876C1.0992 11.9591 3.91646 19.9088 5.74001 25.0454C6.28152 26.5722 6.74146 27.8647 6.93696 28.8563V28.857ZM7.20279 32.3452L9.14309 41.0734L11.082 32.3452H7.20279ZM12.6242 31.86L9.82877 44.4434L9.82736 44.4511C9.7704 44.7085 9.56927 44.9237 9.29499 44.9835C8.91805 45.0665 8.54321 44.8281 8.46022 44.4511L5.66125 31.86C5.63874 31.791 5.62608 31.7179 5.62608 31.6413V31.623V30.6912L1.0148 32.9725C0.667394 33.1434 0.246844 33.0014 0.0752489 32.6547C0.0260206 32.5548 0.00281304 32.4486 0.00281304 32.3438H0V22.4989C0 22.2506 0.1294 22.0326 0.324203 21.9074L2.6527 20.0663C0.87345 13.4887 0.39031 5.41034 8.76333 0.105648L8.76474 0.109165C8.98486 -0.0300809 9.2746 -0.0413331 9.50949 0.105648C11.5651 1.39402 13.0849 2.84555 14.1848 4.39976C14.2621 4.47008 14.3233 4.55869 14.3641 4.66067C17.5801 9.44002 16.9197 15.1414 15.5723 20.0185L17.9613 21.9081C18.1554 22.0333 18.2841 22.2513 18.2841 22.4996V32.3445H18.2813C18.2813 32.4493 18.258 32.5555 18.2088 32.6554C18.0379 33.0028 17.6167 33.1448 17.2693 32.9732L12.658 30.6904V31.6413C12.658 31.7179 12.6453 31.791 12.6228 31.86H12.6242ZM7.0326 30.2572V30.938H11.2522V30.2354L7.0326 30.2572ZM12.6896 29.1419L16.8775 31.2144V22.835L15.1482 21.4665C14.741 22.7802 14.305 24.0158 13.9105 25.1347C13.3169 26.8183 12.8204 28.2248 12.6896 29.1426V29.1419ZM3.07044 21.5192L1.40652 22.835V31.2144L5.56631 29.1559C5.40104 28.2874 4.95095 27.0194 4.41577 25.513C3.98889 24.3105 3.51068 22.9623 3.07044 21.5192ZM0.3235 21.9081C0.433912 21.8378 0.563312 21.7963 0.70326 21.7963L0.3235 21.9081ZM12.4885 4.53338C11.6263 3.4595 10.5278 2.45102 9.14379 1.53467C7.78298 2.44469 6.69715 3.44473 5.83988 4.51087C7.00025 4.78163 8.14094 4.91806 9.25913 4.91806C10.3478 4.91806 11.4252 4.78936 12.4885 4.53338ZM9.14309 9.13833C9.91808 9.13833 10.6235 9.45339 11.1326 9.96255C11.6418 10.4717 11.9568 11.1771 11.9568 11.9521C11.9568 12.7292 11.6418 13.4331 11.1326 13.9423C10.6235 14.4515 9.91808 14.7665 9.14309 14.7665C8.3681 14.7665 7.66273 14.4515 7.15357 13.9423C6.6444 13.4331 6.32934 12.7299 6.32934 11.9521C6.32934 11.1771 6.6444 10.4717 7.15357 9.96255C7.66273 9.45339 8.3681 9.13833 9.14309 9.13833ZM10.1375 10.9577C9.88362 10.7038 9.53059 10.5456 9.14309 10.5456C8.7563 10.5456 8.40326 10.7031 8.14868 10.9577C7.8948 11.2115 7.73657 11.5646 7.73657 11.9521C7.73657 12.341 7.8941 12.6933 8.14868 12.9472C8.40256 13.2011 8.75559 13.3593 9.14309 13.3593C9.52988 13.3593 9.88292 13.2018 10.1375 12.9472C10.3914 12.6933 10.5496 12.341 10.5496 11.9521C10.5496 11.5653 10.3921 11.2122 10.1375 10.9577Z" fill="#05C8B2"/>
</svg>
