<svg width="39" height="39" viewBox="0 0 39 39" fill="none" xmlns="http://www.w3.org/2000/svg">
<path d="M29.9924 19.627L29.8845 19.788L30.0674 19.8521C31.4698 20.3442 32.475 21.6799 32.475 23.25C32.475 25.2382 30.8632 26.85 28.875 26.85H24.1875C23.7526 26.85 23.4 26.4974 23.4 26.0625V14.8125C23.4 14.3776 23.7526 14.025 24.1875 14.025H27C28.9882 14.025 30.6 15.6368 30.6 17.625C30.6 18.3662 30.3762 19.0547 29.9924 19.627ZM24.975 25.125V25.275H25.125H28.875C29.9934 25.275 30.9 24.3684 30.9 23.25C30.9 22.1316 29.9934 21.225 28.875 21.225H25.125H24.975V21.375V25.125ZM24.975 19.5V19.65H25.125H27C28.1184 19.65 29.025 18.7434 29.025 17.625C29.025 16.5066 28.1184 15.6 27 15.6H25.125H24.975V15.75V19.5ZM21.1342 4.52984L21.1586 4.65H21.2812H33.5625C36.0685 4.65 38.1 6.68151 38.1 9.1875V33.5625C38.1 36.0685 36.0685 38.1 33.5625 38.1H22.3125C20.0803 38.1 18.2242 36.4879 17.8456 34.3645L17.8182 34.2108L17.6658 34.2443C17.3508 34.3135 17.0235 34.35 16.6875 34.35H5.4375C2.93151 34.35 0.9 32.3185 0.9 29.8125V5.4375C0.9 2.93151 2.93151 0.9 5.4375 0.9H16.6875C18.8825 0.9 20.7138 2.45877 21.1342 4.52984ZM21.375 6.225H21.225V6.375V29.8125C21.225 31.2969 20.5124 32.6148 19.4099 33.4429L19.35 33.4879L19.35 33.5629C19.3502 35.1988 20.6765 36.525 22.3125 36.525H33.5625C35.1986 36.525 36.525 35.1986 36.525 33.5625V9.1875C36.525 7.55136 35.1986 6.225 33.5625 6.225H21.375ZM13.1894 18.5001L13.1466 18.3932L13.0323 18.4069C13.0013 18.4106 12.9696 18.4125 12.9375 18.4125H9.1875C9.15536 18.4125 9.12374 18.4106 9.09272 18.4069L8.97839 18.3932L8.93562 18.5001L8.04367 20.73C7.88215 21.1338 7.42385 21.3302 7.02003 21.1687C6.61621 21.0071 6.4198 20.5488 6.58133 20.145L10.3313 10.77C10.5953 10.11 11.5297 10.11 11.7937 10.77L15.5437 20.145C15.7052 20.5488 15.5088 21.0071 15.105 21.1687C14.7012 21.3302 14.2429 21.1338 14.0813 20.73L13.1894 18.5001ZM12.3028 16.8375H12.5243L12.4421 16.6318L11.2018 13.5311L11.0625 13.1829L10.9232 13.5311L9.68295 16.6318L9.60066 16.8375H9.82222H12.3028ZM16.6875 2.475H5.4375C3.80136 2.475 2.475 3.80136 2.475 5.4375V29.8125C2.475 31.4486 3.80136 32.775 5.4375 32.775H16.6875C18.3236 32.775 19.65 31.4486 19.65 29.8125V5.4375C19.65 3.80136 18.3236 2.475 16.6875 2.475ZM9.1875 30.6C8.75258 30.6 8.4 30.2474 8.4 29.8125C8.4 29.3776 8.75258 29.025 9.1875 29.025H12.9375C13.3724 29.025 13.725 29.3776 13.725 29.8125C13.725 30.2474 13.3724 30.6 12.9375 30.6H9.1875ZM26.0625 34.35C25.6276 34.35 25.275 33.9974 25.275 33.5625C25.275 33.1276 25.6276 32.775 26.0625 32.775H29.8125C30.2474 32.775 30.6 33.1276 30.6 33.5625C30.6 33.9974 30.2474 34.35 29.8125 34.35H26.0625Z" fill="#05C8B2" stroke="white" stroke-width="0.3"/>
</svg>
