<svg width="43" height="42" viewBox="0 0 43 42" fill="none" xmlns="http://www.w3.org/2000/svg">
<path d="M9.54688 5.03125C9.9352 5.03125 10.25 4.71645 10.25 4.32812C10.25 3.9398 9.9352 3.625 9.54688 3.625C9.15855 3.625 8.84375 3.9398 8.84375 4.32812C8.84375 4.71645 9.15855 5.03125 9.54688 5.03125Z" fill="#05C8B2"/>
<path d="M6.73438 5.03125C7.1227 5.03125 7.4375 4.71645 7.4375 4.32812C7.4375 3.9398 7.1227 3.625 6.73438 3.625C6.34605 3.625 6.03125 3.9398 6.03125 4.32812C6.03125 4.71645 6.34605 5.03125 6.73438 5.03125Z" fill="#05C8B2"/>
<path d="M3.92188 5.03125C4.3102 5.03125 4.625 4.71645 4.625 4.32812C4.625 3.9398 4.3102 3.625 3.92188 3.625C3.53355 3.625 3.21875 3.9398 3.21875 4.32812C3.21875 4.71645 3.53355 5.03125 3.92188 5.03125Z" fill="#05C8B2"/>
<path d="M41.8906 7.84375H1.10938C0.72125 7.84375 0.40625 7.52875 0.40625 7.14062C0.40625 6.7525 0.72125 6.4375 1.10938 6.4375H41.8906C42.2788 6.4375 42.5938 6.7525 42.5938 7.14062C42.5938 7.52875 42.2788 7.84375 41.8906 7.84375Z" fill="#05C8B2"/>
<path d="M1.10938 28.9375C0.72125 28.9375 0.40625 28.6225 0.40625 28.2344V2.92188C0.40625 1.75891 1.35266 0.8125 2.51562 0.8125H40.4844C41.6473 0.8125 42.5938 1.75891 42.5938 2.92188V15.5781C42.5938 15.9663 42.2788 16.2812 41.8906 16.2812C41.5025 16.2812 41.1875 15.9663 41.1875 15.5781V2.92188C41.1875 2.53516 40.8725 2.21875 40.4844 2.21875H2.51562C2.1275 2.21875 1.8125 2.53516 1.8125 2.92188V28.2344C1.8125 28.6225 1.4975 28.9375 1.10938 28.9375Z" fill="#05C8B2"/>
<path d="M29.9375 41.5938H13.7656C13.3775 41.5938 13.0625 41.2788 13.0625 40.8906C13.0625 40.5025 13.3775 40.1875 13.7656 40.1875H15.1719C16.3348 40.1875 17.2812 39.2411 17.2812 38.0781V36.6719C17.2812 36.2838 17.5963 35.9688 17.9844 35.9688C18.3725 35.9688 18.6875 36.2838 18.6875 36.6719V38.0781C18.6875 38.8698 18.4245 39.5997 17.983 40.1875H25.017C24.5755 39.5997 24.3125 38.8698 24.3125 38.0781V33.8594C24.3125 33.4712 24.6275 33.1562 25.0156 33.1562C25.4038 33.1562 25.7188 33.4712 25.7188 33.8594V38.0781C25.7188 39.2411 26.6652 40.1875 27.8281 40.1875H29.9375C30.3256 40.1875 30.6406 40.5025 30.6406 40.8906C30.6406 41.2788 30.3256 41.5938 29.9375 41.5938Z" fill="#05C8B2"/>
<path d="M25.0156 34.5625H2.51562C1.35266 34.5625 0.40625 33.6161 0.40625 32.4531V28.2344C0.40625 27.8462 0.72125 27.5312 1.10938 27.5312H20.7969C21.185 27.5312 21.5 27.8462 21.5 28.2344C21.5 28.6225 21.185 28.9375 20.7969 28.9375H1.8125V32.4531C1.8125 32.8398 2.1275 33.1562 2.51562 33.1562H25.0156C25.4037 33.1562 25.7188 33.4713 25.7188 33.8594C25.7188 34.2475 25.4037 34.5625 25.0156 34.5625Z" fill="#05C8B2"/>
<path d="M25.0156 17.6875H23.6094C23.2212 17.6875 22.9062 17.3725 22.9062 16.9844C22.9062 16.5962 23.2212 16.2812 23.6094 16.2812H25.0156C25.4037 16.2812 25.7188 16.5962 25.7188 16.9844C25.7188 17.3725 25.4037 17.6875 25.0156 17.6875Z" fill="#05C8B2"/>
<path d="M37.6719 12.0625H23.6094C23.2212 12.0625 22.9062 11.7475 22.9062 11.3594C22.9062 10.9712 23.2212 10.6562 23.6094 10.6562H37.6719C38.06 10.6562 38.375 10.9712 38.375 11.3594C38.375 11.7475 38.06 12.0625 37.6719 12.0625Z" fill="#05C8B2"/>
<path d="M37.6719 14.875H23.6094C23.2212 14.875 22.9062 14.56 22.9062 14.1719C22.9062 13.7837 23.2212 13.4688 23.6094 13.4688H37.6719C38.06 13.4688 38.375 13.7837 38.375 14.1719C38.375 14.56 38.06 14.875 37.6719 14.875Z" fill="#05C8B2"/>
<path d="M9.54688 17.6875H5.32812C4.94 17.6875 4.625 17.3725 4.625 16.9844C4.625 16.5962 4.94 16.2812 5.32812 16.2812H9.54688C9.935 16.2812 10.25 16.5962 10.25 16.9844C10.25 17.3725 9.935 17.6875 9.54688 17.6875Z" fill="#05C8B2"/>
<path d="M19.3906 12.0625H5.32812C4.94 12.0625 4.625 11.7475 4.625 11.3594C4.625 10.9712 4.94 10.6562 5.32812 10.6562H19.3906C19.7788 10.6562 20.0938 10.9712 20.0938 11.3594C20.0938 11.7475 19.7788 12.0625 19.3906 12.0625Z" fill="#05C8B2"/>
<path d="M19.3906 14.875H5.32812C4.94 14.875 4.625 14.56 4.625 14.1719C4.625 13.7837 4.94 13.4688 5.32812 13.4688H19.3906C19.7788 13.4688 20.0938 13.7837 20.0938 14.1719C20.0938 14.56 19.7788 14.875 19.3906 14.875Z" fill="#05C8B2"/>
<path d="M32.75 35.9688C27.3219 35.9688 22.9062 31.5517 22.9062 26.125C22.9062 20.6983 27.3219 16.2812 32.75 16.2812C34.6512 16.2812 36.4948 16.8241 38.0825 17.8492C38.4087 18.0602 38.5016 18.4947 38.2906 18.8209C38.0797 19.1444 37.6466 19.2428 37.3189 19.0291C35.9605 18.1516 34.3798 17.6875 32.75 17.6875C28.0967 17.6875 24.3125 21.4717 24.3125 26.125C24.3125 30.7783 28.0967 34.5625 32.75 34.5625C37.4033 34.5625 41.1875 30.7783 41.1875 26.125C41.1875 25.2222 41.0455 24.3348 40.767 23.4855C40.6461 23.1156 40.8472 22.7191 41.2156 22.5981C41.5841 22.4744 41.982 22.6783 42.103 23.0453C42.4278 24.0381 42.5938 25.0731 42.5938 26.125C42.5938 31.5517 38.1781 35.9688 32.75 35.9688Z" fill="#05C8B2"/>
<path d="M32.0469 29.9204C32.0413 29.9204 32.0357 29.9204 32.0301 29.9204C31.8262 29.9148 31.6363 29.8234 31.5055 29.6673L27.9899 25.4486C27.7424 25.149 27.7832 24.7061 28.0799 24.4571C28.3794 24.2096 28.821 24.2504 29.0713 24.5472L32.0708 28.1486L40.8107 18.4947C41.0751 18.2078 41.5194 18.1909 41.8035 18.4511C42.089 18.714 42.1087 19.1584 41.8457 19.4453L32.5644 29.6926C32.4308 29.8389 32.2452 29.9204 32.0469 29.9204Z" fill="#05C8B2"/>
</svg>
