<svg width="40" height="40" viewBox="0 0 40 40" fill="none" xmlns="http://www.w3.org/2000/svg">
<path d="M14.0893 0.0322266C10.4889 0.0322266 6.88687 1.40372 4.14393 4.14661C-1.34192 9.63253 -1.34193 18.5487 4.14393 24.0346C8.59138 28.482 15.2924 29.3224 20.5932 26.5587L31.9888 37.9543C33.6328 39.5983 36.3103 39.5983 37.9544 37.9543C39.5965 36.3101 39.5978 33.6321 37.9544 31.9887L26.5588 20.5931C29.3205 15.2928 28.4785 8.5932 24.0319 4.14661C21.289 1.40372 17.6897 0.0322266 14.0893 0.0322266ZM14.0893 1.43024C17.3269 1.43024 20.5634 2.66664 23.0377 5.14087C27.9861 10.0893 27.9861 18.0918 23.0377 23.0403C18.0892 27.9888 10.0867 27.9888 5.1382 23.0403C0.189731 18.0918 0.189741 10.0893 5.1382 5.14087C7.61243 2.66664 10.8518 1.43024 14.0893 1.43024ZM11.9799 2.84198C11.7935 2.842 11.6146 2.91608 11.4828 3.04794C11.3509 3.1798 11.2768 3.35863 11.2768 3.5451V6.39606C11.0498 6.46496 10.8268 6.5412 10.6066 6.62952L8.62086 4.64374C8.489 4.51193 8.31018 4.43788 8.12373 4.43788C7.93728 4.43788 7.75847 4.51193 7.6266 4.64374L4.64381 7.62653C4.512 7.75839 4.43795 7.93721 4.43795 8.12366C4.43795 8.31011 4.512 8.48892 4.64381 8.62079L6.45106 10.4308C6.30933 10.7071 6.18108 10.9888 6.07203 11.2795H3.54518C3.35871 11.2795 3.17987 11.3536 3.04802 11.4854C2.91616 11.6173 2.84207 11.7961 2.84205 11.9826V16.2014C2.84207 16.3878 2.91616 16.5667 3.04802 16.6985C3.17987 16.8304 3.35871 16.9045 3.54518 16.9045H6.07203C6.18182 17.1943 6.30878 17.4752 6.45106 17.7504L4.64381 19.5604C4.512 19.6923 4.43795 19.8711 4.43795 20.0576C4.43795 20.244 4.512 20.4228 4.64381 20.5547L7.6266 23.5375C7.75847 23.6693 7.93728 23.7433 8.12373 23.7433C8.31018 23.7433 8.489 23.6693 8.62086 23.5375L10.6039 21.5544C10.8247 21.643 11.049 21.7186 11.2768 21.7879V24.6361C11.2768 24.8226 11.3509 25.0014 11.4828 25.1333C11.6146 25.2651 11.7935 25.3392 11.9799 25.3392H16.1987C16.3852 25.3392 16.564 25.2651 16.6958 25.1333C16.8277 25.0014 16.9018 24.8226 16.9018 24.6361V21.4281C17.0256 21.3719 17.1463 21.31 17.2671 21.2468L19.5578 23.5375C19.6896 23.6693 19.8684 23.7433 20.0549 23.7433C20.2413 23.7433 20.4201 23.6693 20.552 23.5375L23.5375 20.5547C23.6694 20.4228 23.7434 20.244 23.7434 20.0576C23.7434 19.8711 23.6694 19.6923 23.5375 19.5604L21.0684 17.0912C21.0933 17.0294 21.1164 16.9675 21.1398 16.9045H24.6362C24.8227 16.9045 25.0015 16.8304 25.1333 16.6985C25.2652 16.5667 25.3393 16.3878 25.3393 16.2014V11.9826C25.3393 11.7961 25.2652 11.6173 25.1333 11.4854C25.0015 11.3536 24.8227 11.2795 24.6362 11.2795H21.1425C21.1185 11.2162 21.094 11.1528 21.0684 11.09L23.5375 8.62079C23.6694 8.48892 23.7434 8.31011 23.7434 8.12366C23.7434 7.93721 23.6694 7.75839 23.5375 7.62653L20.552 4.64374C20.4201 4.51193 20.2413 4.43788 20.0549 4.43788C19.8684 4.43788 19.6896 4.51193 19.5578 4.64374L17.2698 6.93439C17.1485 6.87251 17.0262 6.81211 16.9018 6.75586V3.5451C16.9018 3.35863 16.8277 3.1798 16.6958 3.04794C16.564 2.91608 16.3852 2.842 16.1987 2.84198H11.9799ZM12.6831 4.24823H15.4956V7.19257C15.4954 7.3358 15.5389 7.47567 15.6204 7.59347C15.7019 7.71127 15.8174 7.80138 15.9515 7.85175C16.3337 7.99589 16.7006 8.17322 17.0501 8.38458C17.1848 8.4663 17.343 8.50043 17.4994 8.4815C17.6558 8.46257 17.8013 8.39169 17.9125 8.28021L20.0549 6.13513L22.0434 8.12366L19.75 10.4171C19.6467 10.5205 19.5782 10.6537 19.5541 10.7979C19.5299 10.9422 19.5514 11.0903 19.6154 11.2218C19.7661 11.5331 19.8937 11.855 19.9945 12.1859C20.038 12.3299 20.1266 12.4562 20.2472 12.5462C20.3678 12.6362 20.5141 12.6851 20.6646 12.6857H23.9331V15.4982H20.6619C20.5109 15.4983 20.364 15.5469 20.2428 15.6369C20.1216 15.727 20.0326 15.8536 19.989 15.9981C19.8893 16.3289 19.7649 16.6508 19.6154 16.9622C19.552 17.0933 19.5309 17.2409 19.555 17.3846C19.5791 17.5283 19.6473 17.6609 19.75 17.7642L22.0434 20.0576L20.0549 22.0461L17.9098 19.901C17.7985 19.7895 17.653 19.7186 17.4966 19.6997C17.3403 19.6808 17.182 19.7149 17.0474 19.7966C16.6986 20.0097 16.3306 20.1919 15.9487 20.3377C15.8156 20.3883 15.701 20.4782 15.6201 20.5954C15.5391 20.7127 15.4957 20.8517 15.4956 20.9941V23.933H12.6831V21.2935C12.6833 21.1341 12.6294 20.9792 12.53 20.8545C12.4307 20.7297 12.292 20.6424 12.1365 20.6069C11.648 20.4958 11.1735 20.3296 10.722 20.1125C10.5906 20.0494 10.4428 20.0288 10.2991 20.0534C10.1554 20.078 10.023 20.1466 9.92 20.2498L8.12373 22.0461L6.13521 20.0576L7.78316 18.4069C7.89463 18.2956 7.96552 18.1501 7.98444 17.9937C8.00337 17.8373 7.96924 17.6791 7.88753 17.5444C7.59131 17.06 7.35727 16.5389 7.19264 15.9954C7.1485 15.8514 7.0593 15.7253 6.93816 15.6358C6.81702 15.5463 6.67034 15.4981 6.51973 15.4982H4.2483V12.6857H6.52247C6.67379 12.6855 6.82099 12.6365 6.94222 12.5459C7.06344 12.4554 7.15223 12.3281 7.19539 12.1831C7.35821 11.6393 7.59026 11.1193 7.88478 10.634C7.96649 10.4994 8.00062 10.3412 7.9817 10.1848C7.96277 10.0284 7.89189 9.8829 7.78041 9.77161L6.13521 8.12366L8.12373 6.13513L9.92 7.9314C10.0227 8.03401 10.1547 8.10229 10.2978 8.12688C10.4409 8.15147 10.5882 8.13116 10.7193 8.06873C11.1709 7.85287 11.6454 7.68966 12.1337 7.57983C12.2897 7.54486 12.4291 7.45778 12.529 7.33296C12.6288 7.20815 12.6832 7.05303 12.6831 6.89319V4.24823ZM25.8227 21.8456L36.9601 32.983C38.0704 34.0933 38.0704 35.8498 36.9601 36.96C35.8497 38.0705 34.0934 38.0705 32.983 36.96L21.8457 25.8226C22.6191 25.3108 23.351 24.7155 24.0319 24.0346C24.7129 23.3537 25.3108 22.6191 25.8227 21.8456Z" fill="#05C8B2"/>
</svg>
