<svg width="20" height="20" viewBox="0 0 20 20" fill="none" xmlns="http://www.w3.org/2000/svg">
<path d="M17.4706 3H3.35294C2.05353 3 1 4.05353 1 5.35294V14.7647C1 16.0641 2.05353 17.1176 3.35294 17.1176H17.4706C18.77 17.1176 19.8235 16.0641 19.8235 14.7647V5.35294C19.8235 4.05353 18.77 3 17.4706 3ZM13.5976 9.27871L18.5781 5.01055C18.6126 5.12085 18.6471 5.23114 18.6471 5.35294V14.7647C18.6471 14.8463 18.616 14.9187 18.6 14.9956L13.5976 9.27871ZM17.4706 4.17647C17.5487 4.17647 17.6176 4.20636 17.6912 4.22129L10.4118 10.461L3.13235 4.22129C3.20588 4.20636 3.27482 4.17647 3.35294 4.17647H17.4706ZM2.22301 14.9945C2.20691 14.9175 2.17647 14.8463 2.17647 14.7647V5.35294C2.17647 5.23114 2.21151 5.12085 2.24599 5.01055L7.22474 9.27757L2.22301 14.9945ZM3.35294 15.9412C3.23404 15.9412 3.12603 15.9067 3.01746 15.8734L8.11857 10.0439L10.0292 11.681C10.1389 11.7764 10.2756 11.8235 10.4118 11.8235C10.5479 11.8235 10.6846 11.7764 10.7943 11.6811L12.705 10.0439L17.8061 15.8734C17.6981 15.9067 17.5901 15.9412 17.4706 15.9412H3.35294Z" fill="#05C8B2"/>
</svg>
