<svg width="100" height="100" viewBox="0 0 100 100" fill="none" xmlns="http://www.w3.org/2000/svg">
<path d="M97.4962 50.9629C97.4962 24.6134 76.1357 3.25293 49.7862 3.25293C23.4367 3.25293 2.07617 24.6134 2.07617 50.9629" stroke="#629BDE" stroke-linecap="round" stroke-linejoin="round"/>
<g clip-path="url(#clip0)">
<path d="M27.2387 8.51701C26.5831 7.83475 25.4125 7.81141 24.7302 8.46699L20.0397 12.9741L9.2198 10.2489L7.51415 11.8878L16.202 16.6617L11.5115 21.1688L8.5933 20.6924L7.31407 21.9216L11.035 24.087L13.0504 27.8914L14.3296 26.6622L13.9699 23.7273L18.6604 19.2202L23.0842 28.0915L24.7898 26.4525L22.4981 15.5326L27.1887 11.0255C27.8709 10.3699 27.8943 9.19927 27.2387 8.51701Z" fill="#629BDE"/>
</g>
<path d="M0.0396984 55.7991C0.0286499 55.7277 0.044262 55.6631 0.086535 55.6053C0.128808 55.5476 0.185664 55.5132 0.257103 55.5021L7.23308 54.4233C7.31166 54.4111 7.37927 54.4226 7.43591 54.4577C7.49365 54.5 7.5286 54.5604 7.54075 54.639L7.9849 57.5108C8.11859 58.3753 8.01995 59.0854 7.68898 59.6413C7.35801 60.1972 6.80319 60.5354 6.02451 60.6558C5.25297 60.7751 4.62906 60.6193 4.15277 60.1882C3.68362 59.756 3.38221 59.1078 3.24852 58.2434L3.0049 56.6681L0.497407 57.0559C0.418824 57.0681 0.350663 57.053 0.292922 57.0108C0.242325 56.9674 0.210949 56.9064 0.198796 56.8278L0.0396984 55.7991ZM4.4404 58.0042C4.50448 58.4185 4.64954 58.7179 4.87557 58.9024C5.10985 59.0929 5.4163 59.1589 5.79492 59.1004C6.1664 59.0429 6.43916 58.891 6.61318 58.6446C6.78831 58.4054 6.84273 58.0715 6.77644 57.6429L6.5378 56.0998L4.20175 56.4611L4.4404 58.0042Z" fill="#629BDE"/>
<path d="M1.8757 64.6929C1.76598 64.341 1.73387 63.9951 1.77938 63.6553C1.83395 63.3203 1.95511 63.0288 2.14286 62.781C2.33277 62.5401 2.57265 62.3744 2.8625 62.2841C3.33178 62.1378 3.77051 62.2092 4.1787 62.4984C4.58688 62.7876 4.94599 63.2474 5.25605 63.8776L5.90521 65.2313L6.1226 65.1635C6.41935 65.071 6.61997 64.9251 6.72447 64.726C6.82896 64.5268 6.82958 64.2616 6.72631 63.9304C6.65531 63.7026 6.55689 63.5326 6.43104 63.4204C6.3052 63.3082 6.18344 63.2213 6.06575 63.1595C5.95712 63.1025 5.8847 63.0645 5.84849 63.0455C5.75707 63.0437 5.69953 63.0049 5.67586 62.929L5.42414 62.1215C5.40478 62.0594 5.40827 61.9977 5.43462 61.9365C5.46311 61.8822 5.51187 61.8443 5.58088 61.8228C5.75556 61.7759 5.97461 61.7985 6.23804 61.8905C6.51051 61.9873 6.77882 62.18 7.04297 62.4687C7.31402 62.7552 7.527 63.1469 7.6819 63.6438C7.93577 64.4582 7.93791 65.1087 7.68833 65.5954C7.43874 66.0821 7.0172 66.4179 6.42369 66.6029L3.17322 67.6163C3.10421 67.6378 3.03802 67.6319 2.97465 67.5987C2.91344 67.5723 2.871 67.5212 2.84733 67.4453L2.57947 66.5861C2.55796 66.5171 2.56383 66.4509 2.59707 66.3875C2.63032 66.3241 2.68145 66.2817 2.75046 66.2602L3.15419 66.1343C2.88602 66.0513 2.63644 65.8944 2.40546 65.6636C2.18137 65.4305 2.00479 65.107 1.8757 64.6929ZM2.9792 64.7351C3.09753 65.1146 3.31857 65.3865 3.64231 65.5506C3.96605 65.7146 4.36257 65.7235 4.83185 65.5772L5.03889 65.5127L4.55054 64.5292C4.1789 63.7742 3.7895 63.4602 3.38233 63.5872C3.16149 63.656 3.01692 63.7995 2.94864 64.0177C2.88941 64.2406 2.8996 64.4797 2.9792 64.7351Z" fill="#629BDE"/>
<path d="M8.76776 73.2268C8.63025 73.308 8.51904 73.3687 8.43412 73.409C8.34921 73.4492 8.24486 73.4907 8.1211 73.5334C7.45242 73.8104 6.82956 73.8296 6.25252 73.5912C5.67549 73.3528 5.20581 72.8514 4.8435 72.0872C4.45952 71.2772 4.3821 70.5739 4.61125 69.9773C4.84693 69.3776 5.3718 68.8647 6.18588 68.4388L6.7691 68.1503L7.36162 67.8814C8.29845 67.4613 9.06222 67.2752 9.65295 67.3231C10.2437 67.3711 10.7643 67.6003 11.2149 68.0107C11.672 68.418 12.3087 69.1281 13.1249 70.1411L13.1626 70.1953C13.1874 70.2475 13.1894 70.3026 13.1688 70.3603C13.1578 70.4215 13.1278 70.4678 13.0786 70.4991L12.4825 70.9377L12.4284 70.9754C12.3761 71.0001 12.3227 71.0055 12.268 70.9914C12.2133 70.9773 12.1671 70.9472 12.1292 70.9012C12.0412 70.7829 11.9719 70.6958 11.9213 70.6398C11.3768 69.9299 10.9619 69.4346 10.6768 69.1537C10.4013 68.8764 10.0976 68.7083 9.76582 68.6496C9.44053 68.5878 9.02021 68.6631 8.50486 68.8754C8.77514 68.9393 9.02945 69.0707 9.2678 69.2697C9.50924 69.4753 9.69808 69.7217 9.83434 70.0091C10.1595 70.695 10.2224 71.3172 10.0232 71.8756C9.82395 72.4341 9.40547 72.8845 8.76776 73.2268ZM7.52908 72.158C7.5779 72.1429 7.66436 72.1059 7.78847 72.0471C7.92564 71.982 8.02207 71.9323 8.07776 71.8979C8.47655 71.6928 8.74036 71.4478 8.86921 71.1627C9.00116 70.8841 8.99281 70.5881 8.84417 70.2746C8.67695 69.9218 8.43275 69.6936 8.11157 69.5899C7.79692 69.483 7.43728 69.5175 7.03264 69.6934L6.73406 69.8229L6.48396 69.9535C6.07864 70.1616 5.8131 70.4115 5.68735 70.7031C5.56813 70.9917 5.59059 71.309 5.75471 71.6552C5.91883 72.0014 6.14876 72.2164 6.44449 72.3002C6.74984 72.3874 7.11137 72.34 7.52908 72.158Z" fill="#629BDE"/>
<path d="M8.39291 78.1157C7.92317 77.4037 7.74193 76.7351 7.84919 76.1101C7.95645 75.4851 8.31993 74.9465 8.93962 74.4944L9.33189 74.2226L9.7361 73.9689C10.3896 73.5811 11.0267 73.4639 11.6475 73.6172C12.2743 73.7666 12.8186 74.1912 13.2804 74.8912C13.7382 75.5851 13.9124 76.2496 13.8031 76.8846C13.6998 77.5156 13.3414 78.0552 12.7277 78.5034C12.6593 78.5572 12.5285 78.6478 12.3354 78.7752C12.1423 78.9026 12.0076 78.9871 11.9312 79.0289C11.2717 79.4207 10.6336 79.5429 10.0168 79.3956C9.39995 79.2483 8.85866 78.8216 8.39291 78.1157ZM9.30705 77.5126C9.51803 77.8324 9.77881 78.011 10.0894 78.0486C10.404 78.0922 10.7583 77.9927 11.1524 77.75C11.2168 77.7162 11.3364 77.6416 11.5114 77.5262C11.6864 77.4107 11.8021 77.3301 11.8584 77.2842C12.2366 77.0174 12.4676 76.7308 12.5512 76.4244C12.641 76.1141 12.5823 75.8021 12.3753 75.4883C12.1643 75.1685 11.8985 74.9888 11.5779 74.9492C11.2634 74.9055 10.909 75.0051 10.5149 75.2478L10.1559 75.4716L9.80891 75.7135C9.4307 75.9804 9.19976 76.267 9.11608 76.5733C9.03241 76.8797 9.09606 77.1928 9.30705 77.5126Z" fill="#629BDE"/>
<path d="M12.3269 82.9569C12.2793 82.9026 12.2578 82.8397 12.2625 82.7683C12.2672 82.6969 12.2968 82.6373 12.3511 82.5897L15.5235 79.8098L14.3658 78.4887C14.3182 78.4343 14.2967 78.3714 14.3014 78.3C14.3061 78.2286 14.3357 78.1691 14.39 78.1215L14.8712 77.6998C14.931 77.6474 14.9939 77.626 15.0598 77.6354C15.1312 77.6401 15.1908 77.6697 15.2384 77.724L18.4899 81.4346C18.5423 81.4944 18.5638 81.5573 18.5543 81.6233C18.5551 81.6899 18.5255 81.7495 18.4657 81.8019L17.9846 82.2235C17.9302 82.2711 17.8673 82.2926 17.7959 82.2879C17.7293 82.2886 17.6697 82.2591 17.6173 82.1993L16.4596 80.8781L13.2873 83.658C13.2329 83.7057 13.17 83.7271 13.0986 83.7224C13.032 83.7232 12.9725 83.6936 12.9201 83.6338L12.3269 82.9569Z" fill="#629BDE"/>
<path d="M16.9241 87.6479C16.6457 87.4062 16.4365 87.1289 16.2966 86.816C16.1668 86.5023 16.1166 86.1907 16.146 85.8812C16.1808 85.5764 16.2978 85.3094 16.4968 85.0801C16.819 84.7089 17.2298 84.5389 17.729 84.5703C18.2283 84.6016 18.7755 84.8038 19.3706 85.1768L20.6346 85.9869L20.7839 85.8149C20.9876 85.5802 21.0816 85.3506 21.0658 85.1263C21.0499 84.9019 20.911 84.676 20.6489 84.4486C20.4688 84.2922 20.2957 84.1994 20.1297 84.1701C19.9636 84.1408 19.8143 84.1309 19.6817 84.1403C19.5594 84.1489 19.4778 84.1547 19.437 84.1576C19.3583 84.2041 19.2889 84.2013 19.2289 84.1492L18.5902 83.5948C18.541 83.5521 18.5116 83.4978 18.5018 83.4319C18.4975 83.3707 18.519 83.3128 18.5664 83.2583C18.6903 83.1265 18.8885 83.0305 19.161 82.9703C19.4436 82.9093 19.7732 82.9322 20.1497 83.0388C20.5309 83.14 20.918 83.3612 21.3111 83.7023C21.9552 84.2615 22.2991 84.8137 22.3428 85.3589C22.3864 85.9041 22.2045 86.4115 21.7969 86.8809L19.565 89.4521C19.5176 89.5067 19.4583 89.5365 19.3869 89.5416C19.3209 89.5514 19.258 89.5302 19.1979 89.4781L18.5183 88.8881C18.4637 88.8407 18.4339 88.7813 18.4288 88.7099C18.4238 88.6386 18.4449 88.5756 18.4923 88.521L18.7695 88.2016C18.4978 88.2721 18.203 88.2698 17.8851 88.1949C17.572 88.1146 17.2517 87.9322 16.9241 87.6479ZM17.8849 87.1035C18.1851 87.3641 18.5161 87.4791 18.8778 87.4484C19.2394 87.4177 19.5814 87.2168 19.9036 86.8456L20.0457 86.6818L19.1132 86.102C18.4001 85.6553 17.9038 85.593 17.6242 85.9151C17.4725 86.0898 17.425 86.2879 17.4817 86.5094C17.5485 86.7301 17.6829 86.9281 17.8849 87.1035Z" fill="#629BDE"/>
<path d="M23.237 92.3123C22.5572 91.8724 22.1428 91.3287 21.9936 90.681C21.8505 90.0374 21.9985 89.3496 22.4377 88.6178L22.5759 88.3843C23.0668 87.6257 23.6509 87.1556 24.3282 86.9739C25.0115 86.7962 25.7051 86.9351 26.4091 87.3907C27.1313 87.8581 27.5452 88.4359 27.6508 89.1242C27.7625 89.8165 27.5827 90.5267 27.1114 91.255L26.9877 91.4461C26.9484 91.5068 26.8938 91.5447 26.8238 91.5596C26.7539 91.5746 26.6855 91.5605 26.6187 91.5173L23.5965 89.5614L23.5494 89.6342C23.3415 89.982 23.25 90.3231 23.2746 90.6576C23.3092 90.99 23.4782 91.2543 23.7816 91.4507C24.1275 91.6746 24.5001 91.7176 24.8992 91.5798C24.997 91.5484 25.0651 91.5365 25.1032 91.544C25.1454 91.5454 25.2029 91.5697 25.2757 91.6168L26.0768 92.1353C26.1314 92.1706 26.1671 92.2152 26.1838 92.2691C26.2067 92.327 26.2004 92.3832 26.1651 92.4378C26.0708 92.5835 25.8709 92.6995 25.5653 92.7859C25.2697 92.8701 24.9139 92.8809 24.498 92.8184C24.0821 92.7559 23.6618 92.5872 23.237 92.3123ZM26.0908 90.0778L26.1026 90.0596C26.3343 89.7016 26.4279 89.3574 26.3833 89.0272C26.3487 88.6948 26.1766 88.4285 25.8671 88.2282C25.5576 88.0279 25.2442 87.98 24.9268 88.0846C24.6133 88.1831 24.3407 88.4114 24.109 88.7694L24.0972 88.7877L26.0908 90.0778Z" fill="#629BDE"/>
<path d="M35.0716 91.8183C35.1243 91.8419 35.1616 91.8824 35.1835 91.9397C35.2083 91.9905 35.2088 92.0422 35.1852 92.095L33.0558 96.8442C33.0292 96.9036 32.9872 96.9442 32.9299 96.966C32.8726 96.9878 32.8142 96.9854 32.7549 96.9588L31.8743 96.564C31.8149 96.5374 31.7743 96.4954 31.7525 96.4381C31.7307 96.3808 31.7331 96.3224 31.7597 96.2631L32.9885 93.5224L31.0791 94.9716C30.9974 95.0301 30.9246 95.0687 30.8607 95.0876C30.8034 95.1094 30.7385 95.1041 30.6659 95.0715L30.3394 94.9251C30.2668 94.8926 30.2163 94.8462 30.1879 94.7859C30.1661 94.7286 30.1465 94.6485 30.1292 94.5457L29.9332 92.2L28.7222 94.9012C28.6955 94.9605 28.6536 95.0011 28.5962 95.023C28.5389 95.0448 28.4773 95.0409 28.4113 95.0113L27.5406 94.621C27.4813 94.5943 27.4407 94.5524 27.4188 94.4951C27.397 94.4377 27.3994 94.3794 27.426 94.32L29.5554 89.5708C29.5761 89.5246 29.6151 89.4906 29.6724 89.4688C29.7297 89.447 29.7848 89.4479 29.8375 89.4715L30.6785 89.8486C30.7907 89.8989 30.8513 89.9934 30.8604 90.1321L31.1409 93.5615L33.888 91.4896C33.9976 91.4041 34.1118 91.388 34.2306 91.4412L35.0716 91.8183Z" fill="#629BDE"/>
<path d="M39.2496 98.6932C39.1785 98.6801 39.1226 98.6441 39.082 98.5852C39.0414 98.5263 39.0276 98.4613 39.0407 98.3902L39.9661 93.3565C39.9805 93.2783 40.0165 93.2225 40.0741 93.189C40.133 93.1483 40.198 93.1346 40.2691 93.1476L44.8442 93.9888C44.9224 94.0031 44.9782 94.0391 45.0118 94.0967C45.0537 94.1485 45.0675 94.2136 45.0531 94.2918L44.1276 99.3254C44.1146 99.3965 44.0786 99.4523 44.0197 99.493C43.9679 99.5349 43.9029 99.5487 43.8246 99.5343L42.9288 99.3696C42.8577 99.3565 42.8019 99.3205 42.7613 99.2616C42.7206 99.2027 42.7069 99.1377 42.7199 99.0666L43.4826 94.9181L41.2218 94.5024L40.4591 98.6509C40.446 98.722 40.41 98.7779 40.3511 98.8185C40.2922 98.8591 40.2272 98.8729 40.1561 98.8598L39.2496 98.6932Z" fill="#629BDE"/>
<path d="M48.8518 99.8992C47.9993 99.8674 47.35 99.6263 46.9038 99.1756C46.4576 98.725 46.2307 98.1162 46.2231 97.3491L46.23 96.8719L46.2586 96.3956C46.3229 95.6384 46.5979 95.0518 47.0836 94.6359C47.5695 94.2127 48.2315 94.0167 49.0695 94.0479C49.9002 94.0788 50.5421 94.3233 50.9953 94.7814C51.4487 95.2323 51.6794 95.8377 51.6873 96.5975C51.6913 96.6845 51.689 96.8436 51.6804 97.0747C51.6718 97.3059 51.6622 97.4647 51.6518 97.5511C51.5872 98.3155 51.3157 98.9058 50.8372 99.322C50.3588 99.7382 49.6969 99.9306 48.8518 99.8992ZM48.8925 98.8048C49.2753 98.819 49.5723 98.7107 49.7835 98.4798C50.0018 98.2492 50.1268 97.9031 50.1585 97.4413C50.1684 97.3693 50.1772 97.2286 50.185 97.0191C50.1928 96.8096 50.1945 96.6686 50.1899 96.5961C50.1927 96.1332 50.0937 95.7787 49.8931 95.5325C49.6928 95.2791 49.4048 95.1454 49.0291 95.1315C48.6463 95.1172 48.3455 95.229 48.1269 95.4668C47.9086 95.6974 47.7835 96.0436 47.7519 96.5054L47.7253 96.9276L47.7204 97.3506C47.7177 97.8134 47.8166 98.1679 48.0172 98.4141C48.2179 98.6603 48.5096 98.7905 48.8925 98.8048Z" fill="#629BDE"/>
<path d="M57.7599 99.1709C57.6888 99.1842 57.6238 99.1707 57.5647 99.1304C57.5056 99.09 57.4694 99.0343 57.456 98.9632L56.5098 93.9335C56.4951 93.8553 56.5086 93.7903 56.5503 93.7383C56.5907 93.6792 56.6464 93.643 56.7174 93.6296L59.0831 93.1846C59.8219 93.0456 60.4015 93.0763 60.8217 93.2768C61.249 93.4759 61.5081 93.817 61.5989 94.3001C61.6524 94.5843 61.6419 94.8216 61.5674 95.0122C61.4916 95.1956 61.3591 95.3713 61.1701 95.5393C61.4401 95.6062 61.664 95.7406 61.8417 95.9425C62.0266 96.1431 62.1457 96.3855 62.1992 96.6697C62.2968 97.1883 62.1798 97.6222 61.8483 97.9714C61.5168 98.3207 60.9816 98.5648 60.2428 98.7038L57.7599 99.1709ZM59.4868 95.4477C59.771 95.3943 59.9834 95.2918 60.1241 95.1403C60.2647 94.9888 60.3144 94.8029 60.2729 94.5827C60.2328 94.3695 60.126 94.2315 59.9523 94.1685C59.7786 94.1056 59.5426 94.1022 59.2442 94.1583L58.0188 94.3888L58.2613 95.6783L59.4868 95.4477ZM59.9751 97.7501C60.2664 97.6953 60.4837 97.5993 60.627 97.462C60.7704 97.3247 60.8213 97.1459 60.7799 96.9257C60.7358 96.6912 60.6262 96.539 60.4512 96.4689C60.282 96.3904 60.0411 96.3806 59.7285 96.4394L58.4498 96.6799L58.6963 97.9907L59.9751 97.7501Z" fill="#629BDE"/>
<path d="M66.7094 96.971C65.9562 97.226 65.283 97.2211 64.6897 96.9565C64.1032 96.6895 63.6711 96.1909 63.3934 95.4607L63.244 95.0533L63.1152 94.639C62.8922 93.8903 62.9326 93.2317 63.2362 92.6634C63.5467 92.0927 64.0786 91.6799 64.8317 91.4249C65.3726 91.2418 65.8604 91.1835 66.2951 91.25C66.7366 91.3142 67.0938 91.4566 67.3669 91.677C67.6445 91.8883 67.833 92.1183 67.9325 92.367C67.9625 92.4332 67.9583 92.4995 67.9197 92.5659C67.888 92.6301 67.8379 92.6738 67.7695 92.6969L66.8554 93.0064C66.7801 93.0319 66.7206 93.0368 66.6771 93.021C66.6313 92.9983 66.5774 92.9517 66.5153 92.8811C66.3245 92.6557 66.1238 92.5138 65.9133 92.4554C65.7095 92.3946 65.4776 92.4082 65.2174 92.4963C64.8682 92.6146 64.6314 92.8168 64.507 93.1032C64.3895 93.3872 64.4003 93.7575 64.5396 94.214L64.658 94.5975L64.7831 94.9329C65.1255 95.8091 65.6528 96.1267 66.3648 95.8856C66.6319 95.7952 66.829 95.6674 66.9563 95.5022C67.0812 95.3302 67.1498 95.0933 67.1621 94.7915C67.164 94.7069 67.1762 94.6417 67.1989 94.5958C67.2284 94.5477 67.2808 94.5109 67.3561 94.4854L68.2702 94.1759C68.3386 94.1527 68.405 94.157 68.4691 94.1887C68.5401 94.2181 68.5838 94.2682 68.6001 94.3389C68.6676 94.5832 68.6598 94.8759 68.5768 95.2169C68.4915 95.551 68.2976 95.88 67.9951 96.2037C67.6926 96.5275 67.264 96.7832 66.7094 96.971Z" fill="#629BDE"/>
<path d="M73.1633 94.1361C72.4403 94.5006 71.7617 94.5837 71.1274 94.3853C70.4996 94.1837 69.9808 93.7086 69.571 92.9599L69.4392 92.7227C69.0325 91.9159 68.9217 91.1743 69.107 90.498C69.2988 89.8185 69.769 89.29 70.5178 88.9125C71.2859 88.5253 71.9937 88.4599 72.6411 88.7164C73.295 88.9696 73.8171 89.4836 74.2076 90.2582L74.3101 90.4615C74.3427 90.526 74.3477 90.5923 74.3253 90.6603C74.3029 90.7282 74.2562 90.7801 74.1852 90.8159L70.9707 92.4364L71.0097 92.5139C71.2049 92.8689 71.453 93.1202 71.7541 93.2679C72.0585 93.4059 72.372 93.3936 72.6948 93.2309C73.0627 93.0454 73.288 92.7456 73.3707 92.3315C73.393 92.2312 73.417 92.1665 73.4428 92.1373C73.4653 92.1017 73.5153 92.0644 73.5928 92.0253L74.4448 91.5958C74.5029 91.5665 74.5594 91.5582 74.6144 91.571C74.6759 91.5805 74.7213 91.6142 74.7506 91.6723C74.8287 91.8273 74.8278 92.0584 74.748 92.3658C74.6714 92.6635 74.5011 92.976 74.2371 93.3034C73.9731 93.6308 73.6151 93.9084 73.1633 94.1361ZM72.6762 90.5445L72.6665 90.5251C72.4745 90.1442 72.2247 89.8897 71.9172 89.7614C71.6128 89.6234 71.296 89.6373 70.9668 89.8033C70.6376 89.9693 70.438 90.2156 70.368 90.5424C70.2947 90.8627 70.354 91.2132 70.546 91.5941L70.5558 91.6134L72.6762 90.5445Z" fill="#629BDE"/>
<path d="M80.8016 89.0709C80.7463 89.1174 80.6829 89.1375 80.6117 89.1313C80.5404 89.1251 80.4815 89.0943 80.435 89.0389L75.8965 83.6324C75.8453 83.5715 75.8201 83.5078 75.8208 83.4411C75.827 83.3698 75.8606 83.3086 75.9215 83.2575L78.1472 81.3891C78.8171 80.8267 79.4755 80.543 80.1225 80.5378C80.7694 80.5327 81.3462 80.8319 81.8528 81.4354C82.3548 82.0334 82.5449 82.6477 82.4231 83.2784C82.2967 83.9037 81.8986 84.4974 81.2287 85.0598L80.0078 86.0847L81.6392 88.028C81.6903 88.0889 81.7128 88.155 81.7066 88.2263C81.6957 88.292 81.6598 88.3505 81.5989 88.4016L80.8016 89.0709ZM80.4063 84.1645C80.7274 83.895 80.9083 83.6157 80.9489 83.3268C80.9904 83.0277 80.888 82.7314 80.6416 82.438C80.4 82.1501 80.1287 81.9956 79.8278 81.9744C79.5325 81.9487 79.2187 82.0752 78.8865 82.3541L77.6906 83.358L79.2104 85.1685L80.4063 84.1645Z" fill="#629BDE"/>
<path d="M88.0299 82.2406C87.4651 82.8798 86.867 83.2292 86.2356 83.2887C85.6043 83.3482 84.9895 83.1378 84.3914 82.6575L84.0267 82.3497L83.6763 82.0257C83.1315 81.496 82.8521 80.9115 82.8382 80.2722C82.8189 79.6281 83.0868 78.9919 83.6421 78.3635C84.1925 77.7405 84.7886 77.399 85.4301 77.3389C86.0663 77.274 86.6807 77.4793 87.2734 77.9548C87.3432 78.0068 87.4648 78.1094 87.6381 78.2625C87.8115 78.4157 87.9283 78.5237 87.9885 78.5866C88.5387 79.121 88.8232 79.7052 88.8419 80.3391C88.8606 80.973 88.5899 81.6068 88.0299 82.2406ZM87.2092 81.5155C87.4629 81.2284 87.5674 80.93 87.5226 80.6203C87.4827 80.3053 87.2941 79.9892 86.957 79.672C86.9076 79.6187 86.8044 79.5227 86.6473 79.3839C86.4902 79.2451 86.3822 79.1544 86.3232 79.112C85.967 78.8165 85.63 78.6683 85.3125 78.6674C84.9895 78.6618 84.7035 78.7998 84.4546 79.0815C84.201 79.3686 84.0968 79.6721 84.1422 79.9919C84.1821 80.3069 84.3706 80.6231 84.7078 80.9402L85.0175 81.2284L85.3416 81.5003C85.6978 81.7958 86.0347 81.9439 86.3523 81.9448C86.6699 81.9457 86.9555 81.8026 87.2092 81.5155Z" fill="#629BDE"/>
<path d="M92.1755 76.6191C91.7376 77.2828 91.2033 77.6924 90.5725 77.8478C89.9456 77.9971 89.2984 77.8689 88.6308 77.4631L88.2628 77.2333L87.9068 76.9854C87.271 76.5314 86.8985 75.9868 86.7892 75.3518C86.6838 74.7107 86.8501 74.0583 87.288 73.3946C87.6025 72.9179 87.9517 72.5724 88.3356 72.358C88.7235 72.1376 89.0929 72.0306 89.4438 72.0369C89.7926 72.0332 90.0827 72.099 90.3139 72.2342C90.3782 72.268 90.4156 72.3229 90.426 72.3991C90.4403 72.4692 90.4276 72.5344 90.3878 72.5947L89.8564 73.4003C89.8126 73.4666 89.7687 73.5069 89.7246 73.5212C89.6745 73.5315 89.6034 73.5278 89.511 73.5102C89.222 73.4494 88.9765 73.4606 88.7744 73.5438C88.5763 73.6209 88.4016 73.7742 88.2503 74.0035C88.0473 74.3112 87.9846 74.6162 88.0622 74.9186C88.1439 75.2149 88.3798 75.5005 88.7701 75.7753L89.099 76.0053L89.4036 76.1933C90.2119 76.6746 90.8231 76.6015 91.2371 75.974C91.3924 75.7386 91.4695 75.5167 91.4685 75.3082C91.4614 75.0957 91.3701 74.8666 91.1945 74.6208C91.1441 74.5529 91.1137 74.4939 91.1034 74.4438C91.0972 74.3877 91.1159 74.3265 91.1597 74.2601L91.6911 73.4546C91.7309 73.3943 91.7859 73.3569 91.856 73.3425C91.9301 73.3221 91.9953 73.3348 92.0517 73.3807C92.2549 73.5321 92.4284 73.7678 92.5723 74.0879C92.7102 74.404 92.7591 74.7827 92.7192 75.224C92.6792 75.6653 92.498 76.1303 92.1755 76.6191Z" fill="#629BDE"/>
<path d="M95.5287 70.4193C95.1881 71.1378 94.7164 71.6182 94.1136 71.8604C93.5138 72.0961 92.855 72.0597 92.1372 71.7514L91.7406 71.5754L91.3534 71.3798C90.6603 71.0193 90.2152 70.5323 90.018 69.9188C89.824 69.2988 89.8972 68.6295 90.2379 67.911C90.4825 67.395 90.7799 67.004 91.13 66.7379C91.4832 66.4654 91.834 66.3077 92.1823 66.2648C92.5272 66.2123 92.8236 66.2368 93.0714 66.3383C93.1399 66.3628 93.1845 66.412 93.2055 66.4859C93.2295 66.5533 93.2261 66.6197 93.1951 66.685L92.7817 67.557C92.7476 67.6288 92.7098 67.6749 92.6682 67.6952C92.6201 67.7123 92.5491 67.7187 92.4552 67.7142C92.1605 67.6945 91.919 67.74 91.7305 67.8506C91.5451 67.9548 91.3936 68.1309 91.276 68.3791C91.118 68.7123 91.0987 69.0231 91.2179 69.3116C91.3402 69.5936 91.6138 69.8433 92.0387 70.0608L92.3966 70.2424L92.7246 70.3859C93.5923 70.7493 94.1872 70.5913 94.5093 69.912C94.63 69.6572 94.6753 69.4267 94.6451 69.2204C94.6084 69.011 94.4859 68.7969 94.2776 68.5782C94.2181 68.518 94.1798 68.4638 94.1626 68.4157C94.1486 68.361 94.1585 68.2977 94.1926 68.2259L94.606 67.3539C94.637 67.2885 94.6862 67.2438 94.7536 67.2198C94.8241 67.1892 94.8904 67.1927 94.9526 67.2302C95.1751 67.3516 95.3799 67.5607 95.5672 67.8575C95.748 68.1512 95.8495 68.5193 95.8717 68.9619C95.8939 69.4044 95.7796 69.8902 95.5287 70.4193Z" fill="#629BDE"/>
<path d="M93.285 59.5141C93.3041 59.4519 93.3453 59.4041 93.4085 59.3705C93.4649 59.3349 93.5241 59.3267 93.5863 59.3458L98.4993 60.8551C98.5684 60.8764 98.6198 60.9186 98.6533 60.9818C98.6889 61.0382 98.695 61.1043 98.6717 61.1803L98.401 62.0614C98.3798 62.1305 98.3376 62.1818 98.2743 62.2153C98.2111 62.2488 98.1449 62.2549 98.0758 62.2337L94.7694 61.2179L97.4041 64.7157C97.4913 64.8257 97.5168 64.9394 97.4807 65.0569L97.2355 65.855C97.2143 65.9241 97.1755 65.9764 97.1192 66.0121C97.0581 66.0387 96.993 66.0414 96.9239 66.0201L92.0212 64.5139C91.9452 64.4906 91.8939 64.4483 91.8673 64.3872C91.8338 64.324 91.8277 64.2578 91.8489 64.1887L92.1196 63.3077C92.1408 63.2386 92.183 63.1873 92.2462 63.1538C92.3095 63.1203 92.3756 63.1141 92.4447 63.1354L95.7512 64.1512L93.1165 60.6534C93.0314 60.5365 93.0059 60.4228 93.0398 60.3122L93.285 59.5141Z" fill="#629BDE"/>
<path d="M94.2605 52.9595C94.2702 52.8952 94.3038 52.8418 94.3614 52.7993C94.4118 52.7557 94.4692 52.7387 94.5335 52.7484L99.616 53.5129C99.6875 53.5237 99.7445 53.5579 99.787 53.6154C99.8306 53.6658 99.8465 53.7304 99.8347 53.809L99.6976 54.7204C99.6868 54.7919 99.6526 54.8489 99.5951 54.8914C99.5375 54.9339 99.473 54.9498 99.4015 54.939L95.981 54.4245L99.105 57.4932C99.2076 57.589 99.2497 57.6977 99.2314 57.8192L99.1072 58.6449C99.0965 58.7163 99.0659 58.7739 99.0155 58.8175C98.959 58.8528 98.895 58.8651 98.8235 58.8544L93.7517 58.0914C93.6731 58.0796 93.6161 58.0455 93.5807 57.989C93.5382 57.9314 93.5223 57.8669 93.5331 57.7954L93.6702 56.884C93.681 56.8125 93.7151 56.7555 93.7727 56.713C93.8302 56.6705 93.8948 56.6546 93.9663 56.6653L97.3867 57.1799L94.2627 54.1112C94.1613 54.0082 94.1191 53.8995 94.1363 53.7852L94.2605 52.9595Z" fill="#629BDE"/>
<defs>
<clipPath id="clip0">
<rect width="23.6546" height="23.6546" fill="white" transform="translate(2 15.9893) rotate(-42.5265)"/>
</clipPath>
</defs>
</svg>
