<svg width="86" height="90" viewBox="0 0 86 90" fill="none" xmlns="http://www.w3.org/2000/svg">
<g filter="url(#filter0_d)">
<rect x="25.1404" y="44.9521" width="24.9566" height="24.9566" rx="12.4783" transform="rotate(-45 25.1404 44.9521)" fill="#629BDE"/>
</g>
<path d="M84.1896 44.0684C84.1896 21.5612 65.9439 3.31543 43.4366 3.31543C20.9293 3.31543 2.68359 21.5612 2.68359 44.0684" stroke="#629BDE" stroke-linecap="round" stroke-linejoin="round"/>
<g clip-path="url(#clip0)">
<path d="M24.1774 7.81144C23.6174 7.22867 22.6175 7.20873 22.0347 7.76872L18.0281 11.6186L8.78597 9.29078L7.32904 10.6907L14.75 14.7685L10.7435 18.6184L8.25083 18.2114L7.15813 19.2614L10.3365 21.1111L12.058 24.3607L13.1507 23.3107L12.8434 20.8038L16.85 16.9539L20.6287 24.5316L22.0856 23.1316L20.1281 13.804L24.1346 9.95411C24.7174 9.39413 24.7374 8.39422 24.1774 7.81144Z" fill="#629BDE"/>
</g>
<path d="M1.50461 48.7711C1.49828 48.7156 1.51229 48.6659 1.54666 48.6221C1.58102 48.5783 1.62591 48.5529 1.68133 48.5459L7.0932 47.8575C7.15416 47.8497 7.20594 47.86 7.24853 47.8884C7.29176 47.9223 7.31685 47.9698 7.32381 48.0309L7.40073 48.7053C7.41275 48.8108 7.3696 48.9007 7.27126 48.9752L4.47841 50.9607L7.63778 52.1891C7.75005 52.2367 7.81219 52.3133 7.82422 52.4188L7.90018 53.0849C7.90714 53.1459 7.89344 53.1983 7.85908 53.2421C7.82472 53.2859 7.77705 53.3117 7.71609 53.3195L2.30423 54.0078C2.24326 54.0156 2.19117 54.0025 2.14795 53.9686C2.11026 53.934 2.08794 53.8861 2.08097 53.8251L1.99931 53.109C1.99298 53.0535 2.007 53.0039 2.04136 52.9601C2.07573 52.9163 2.12062 52.8909 2.17604 52.8838L5.7507 52.4291L3.42404 51.5509C3.29515 51.5054 3.22374 51.4216 3.20982 51.2994L3.16994 50.9497C3.15664 50.8332 3.20684 50.7311 3.32054 50.6434L5.38323 49.2069L1.80857 49.6616C1.75315 49.6686 1.70383 49.6552 1.6606 49.6213C1.61801 49.5929 1.59323 49.5482 1.58627 49.4871L1.50461 48.7711Z" fill="#629BDE"/>
<path d="M2.52534 54.9512C2.51162 54.8971 2.51879 54.8458 2.54687 54.7974C2.57494 54.749 2.61589 54.7173 2.66971 54.7023L6.48031 53.6418C6.53952 53.6253 6.59007 53.6316 6.63196 53.6605C6.67924 53.6879 6.70974 53.7287 6.72346 53.7829L6.89837 54.4734C6.91346 54.5329 6.90628 54.5842 6.87684 54.6272C6.85415 54.6741 6.8132 54.7058 6.754 54.7222L5.62373 55.0368L5.8254 55.8329C5.96121 56.3691 5.93561 56.8139 5.7486 57.1674C5.56159 57.5209 5.23934 57.7614 4.78186 57.8887C4.3136 58.019 3.92403 57.9709 3.61313 57.7443C3.30223 57.5178 3.07545 57.1229 2.93278 56.5597L2.52534 54.9512ZM3.55628 59.0211C3.54256 58.967 3.54974 58.9157 3.57781 58.8673C3.60589 58.8189 3.64683 58.7872 3.70066 58.7722L7.51126 57.7117C7.57046 57.6952 7.62101 57.7015 7.66291 57.7304C7.71019 57.7578 7.74069 57.7986 7.75441 57.8528L7.92932 58.5433C7.94304 58.5974 7.93586 58.6487 7.90779 58.6971C7.87971 58.7455 7.83877 58.7772 7.78494 58.7922L3.97434 59.8527C3.92052 59.8676 3.86997 59.8614 3.82269 59.834C3.77541 59.8066 3.74491 59.7658 3.73119 59.7116L3.55628 59.0211ZM3.70164 56.3196C3.77023 56.5904 3.86806 56.7719 3.99512 56.8641C4.12355 56.9617 4.30349 56.9783 4.53492 56.9138C4.76636 56.8494 4.92281 56.7392 5.00428 56.5832C5.08576 56.4272 5.09289 56.2165 5.02566 55.9511L4.84458 55.2363L3.52056 55.6047L3.70164 56.3196Z" fill="#629BDE"/>
<path d="M4.28366 64.6663C4.25916 64.6161 4.25558 64.5642 4.27294 64.5107C4.28537 64.4598 4.3187 64.4199 4.37294 64.391L9.26905 61.7824C9.32328 61.7535 9.37377 61.7488 9.42051 61.7681C9.47218 61.7849 9.51027 61.8184 9.53478 61.8686L9.82887 62.471C9.85582 62.5263 9.86062 62.5806 9.84327 62.6342C9.82591 62.6877 9.79257 62.7276 9.74327 62.7539L9.44743 62.9115C9.94219 62.9832 10.3195 63.2851 10.5792 63.8173C10.8268 64.3244 10.8589 64.7975 10.6757 65.2368C10.4974 65.6734 10.1494 66.0423 9.6316 66.3434C9.57489 66.38 9.48736 66.4298 9.36902 66.4928C9.25069 66.5558 9.16071 66.6006 9.09909 66.6271C8.57403 66.8879 8.08385 66.9656 7.62857 66.8602C7.18067 66.7572 6.83296 66.4522 6.58543 65.9451C6.34035 65.4431 6.32791 64.9657 6.54809 64.5131L4.86922 65.4076C4.81498 65.4365 4.76449 65.4413 4.71775 65.4219C4.66853 65.4102 4.63044 65.3767 4.60349 65.3214L4.28366 64.6663ZM7.2445 65.2334C7.50673 65.7706 7.97184 65.8834 8.63984 65.5718C8.6916 65.5505 8.76678 65.5136 8.86539 65.4611C8.96401 65.4085 9.03674 65.3666 9.0836 65.3353C9.71728 64.9534 9.90301 64.4939 9.64078 63.9567C9.50109 63.6705 9.30571 63.5058 9.05466 63.4624C8.80361 63.419 8.54497 63.4619 8.27874 63.5911C8.21712 63.6176 8.12222 63.665 7.99402 63.7333C7.86582 63.8016 7.7709 63.8553 7.70925 63.8945C7.46763 64.0359 7.29606 64.2254 7.19456 64.4629C7.09306 64.7004 7.10971 64.9573 7.2445 65.2334Z" fill="#629BDE"/>
<path d="M8.80674 69.5695C8.65276 69.3298 8.55662 69.0768 8.51835 68.8106C8.48766 68.5459 8.51469 68.2988 8.59942 68.0692C8.68718 67.8443 8.82719 67.6646 9.01945 67.5301C9.33072 67.3123 9.66552 67.2654 10.0238 67.3894C10.3822 67.5134 10.7406 67.777 11.0991 68.1803L11.8569 69.0502L12.0011 68.9493C12.1979 68.8116 12.3135 68.6558 12.3478 68.4819C12.3821 68.308 12.3267 68.1083 12.1818 67.8826C12.0822 67.7275 11.9747 67.6222 11.8594 67.5666C11.7441 67.511 11.637 67.4735 11.5383 67.454C11.4471 67.436 11.3863 67.4241 11.3559 67.4181C11.2889 67.4377 11.2388 67.4217 11.2056 67.3699L10.8524 66.82C10.8252 66.7777 10.8148 66.7305 10.8211 66.6783C10.8304 66.6309 10.858 66.5912 10.9038 66.5592C11.0212 66.4838 11.1856 66.4505 11.397 66.4594C11.6159 66.4697 11.852 66.5532 12.1053 66.7099C12.3631 66.8633 12.6007 67.1093 12.8181 67.4477C13.1743 68.0024 13.3127 68.4915 13.2331 68.9151C13.1536 69.3387 12.9169 69.6882 12.5233 69.9636L10.3672 71.4721C10.3214 71.5041 10.2719 71.5149 10.2188 71.5044C10.1686 71.4986 10.1269 71.4698 10.0937 71.4181L9.7178 70.8329C9.6876 70.7859 9.67796 70.7347 9.68887 70.6794C9.69978 70.6241 9.72812 70.5804 9.7739 70.5484L10.0417 70.361C9.82878 70.3601 9.61387 70.2993 9.39697 70.1785C9.18464 70.0545 8.9879 69.8515 8.80674 69.5695ZM9.61991 69.348C9.78597 69.6066 10.0042 69.7604 10.2747 69.8097C10.5452 69.8589 10.8361 69.7746 11.1473 69.5568L11.2847 69.4607L10.7219 68.8325C10.2923 68.3496 9.94243 68.2026 9.67235 68.3916C9.52586 68.4941 9.45068 68.6352 9.44678 68.8151C9.45048 68.9965 9.50819 69.1741 9.61991 69.348Z" fill="#629BDE"/>
<path d="M15.3354 74.1215C15.2504 74.2117 15.1808 74.2809 15.1264 74.329C15.0721 74.3772 15.0037 74.4303 14.9214 74.4883C14.4857 74.8372 14.0336 74.9805 13.5652 74.9182C13.0968 74.8559 12.6562 74.5714 12.2433 74.0647C11.8057 73.5277 11.613 73.0085 11.6653 72.5072C11.7218 72.0022 12.0068 71.5035 12.5202 71.0113L12.8912 70.6713L13.2728 70.3444C13.8771 69.8312 14.4001 69.5319 14.8416 69.4464C15.2832 69.3609 15.7085 69.4277 16.1176 69.647C16.5308 69.8625 17.1341 70.2714 17.9273 70.8737L17.9653 70.9072C17.9935 70.9418 18.0057 70.9832 18.0018 71.0315C18.0056 71.0803 17.9925 71.1217 17.9626 71.1557L17.6112 71.6125L17.5789 71.6524C17.5454 71.682 17.5073 71.6971 17.4646 71.6977C17.4219 71.6983 17.3822 71.6849 17.3456 71.6577C17.2583 71.5859 17.1907 71.5339 17.1429 71.5017C16.6071 71.074 16.2078 70.7827 15.9448 70.6279C15.6896 70.4738 15.4349 70.4086 15.1807 70.4325C14.9307 70.4526 14.6377 70.5967 14.3016 70.8647C14.5117 70.8574 14.7233 70.9049 14.9362 71.0072C15.1526 71.1137 15.3384 71.2623 15.4937 71.4528C15.8643 71.9076 16.0307 72.368 15.9928 72.8341C15.955 73.3002 15.7359 73.7293 15.3354 74.1215ZM14.2223 73.564C14.2551 73.5424 14.3112 73.4964 14.3906 73.426C14.4784 73.3482 14.5394 73.2905 14.5735 73.2528C14.8257 73.0144 14.9713 72.7734 15.0105 72.5299C15.0532 72.2907 14.9898 72.0671 14.8204 71.8593C14.6299 71.6254 14.407 71.5021 14.1519 71.4895C13.901 71.4732 13.6445 71.5737 13.3824 71.7911L13.1889 71.9513L13.0312 72.1023C12.7748 72.3444 12.6288 72.5894 12.5932 72.8373C12.5617 73.0815 12.6395 73.3183 12.8266 73.5478C13.0136 73.7774 13.2234 73.8935 13.456 73.8962C13.6964 73.8995 13.9518 73.7888 14.2223 73.564Z" fill="#629BDE"/>
<path d="M15.6693 77.5418C15.1975 77.0814 14.9457 76.6017 14.9139 76.1026C14.882 75.6036 15.0541 75.1241 15.4299 74.6641L15.6704 74.384L15.9229 74.1156C16.335 73.6988 16.783 73.4926 17.267 73.4969C17.7547 73.4971 18.2304 73.7235 18.6942 74.1761C19.154 74.6249 19.3999 75.1028 19.432 75.6099C19.4678 76.1128 19.2997 76.5922 18.9275 77.048C18.8867 77.1018 18.8066 77.1951 18.6871 77.3281C18.5676 77.4611 18.4834 77.5505 18.4346 77.5965C18.0188 78.0174 17.5709 78.2277 17.0909 78.2273C16.6109 78.2269 16.1371 77.9984 15.6693 77.5418ZM16.235 76.9123C16.4469 77.1191 16.6705 77.2086 16.9057 77.1807C17.1449 77.1568 17.388 77.0157 17.635 76.7576C17.6763 76.72 17.7511 76.6409 17.8594 76.5204C17.9677 76.3999 18.0386 76.3169 18.0719 76.2715C18.3029 75.9977 18.4221 75.7357 18.4294 75.4854C18.4404 75.231 18.3419 75.0023 18.134 74.7994C17.9221 74.5926 17.6947 74.5033 17.4518 74.5314C17.2126 74.5553 16.9695 74.6964 16.7225 74.9545L16.498 75.1917L16.2856 75.4407C16.0546 75.7144 15.9354 75.9764 15.9281 76.2267C15.9208 76.477 16.0231 76.7055 16.235 76.9123Z" fill="#629BDE"/>
<path d="M19.0443 80.1711C19.0001 80.1369 18.9739 80.092 18.9657 80.0362C18.9575 79.9804 18.9696 79.9298 19.002 79.8843L20.8951 77.2305L19.8212 76.3999C19.777 76.3657 19.7508 76.3208 19.7426 76.265C19.7344 76.2092 19.7465 76.1586 19.7789 76.1131L20.0661 75.7106C20.1018 75.6606 20.1448 75.6339 20.1952 75.6305C20.2488 75.6226 20.2978 75.6357 20.342 75.6699L23.3581 78.0026C23.4067 78.0402 23.4329 78.0852 23.4367 78.1375C23.4482 78.1888 23.4361 78.2394 23.4004 78.2894L23.1133 78.6919C23.0808 78.7374 23.0378 78.7641 22.9841 78.772C22.9349 78.7834 22.886 78.7702 22.8374 78.7326L21.7635 77.9021L19.8704 80.5559C19.838 80.6014 19.7949 80.6281 19.7413 80.636C19.6921 80.6474 19.6431 80.6342 19.5945 80.5966L19.0443 80.1711Z" fill="#629BDE"/>
<path d="M23.0223 82.8682C22.7783 82.7211 22.5806 82.5367 22.4292 82.3151C22.2853 82.0915 22.2011 81.8582 22.1766 81.6153C22.1569 81.3752 22.2041 81.1527 22.3182 80.9477C22.5031 80.6158 22.7841 80.4266 23.1615 80.3803C23.5388 80.3339 23.9775 80.4125 24.4776 80.6161L25.5425 81.0623L25.6281 80.9085C25.745 80.6986 25.7807 80.5083 25.7352 80.3375C25.6897 80.1666 25.5521 80.012 25.3225 79.8736C25.1646 79.7784 25.0214 79.7313 24.8931 79.7322C24.7648 79.7331 24.6519 79.7465 24.5544 79.7725C24.4643 79.7964 24.4043 79.8124 24.3743 79.8204C24.3225 79.8674 24.2703 79.8751 24.2177 79.8434L23.6579 79.506C23.6148 79.48 23.5847 79.4423 23.5675 79.3928C23.5551 79.3463 23.5625 79.2986 23.5897 79.2497C23.6624 79.1306 23.7959 79.0285 23.9902 78.9436C24.192 78.8566 24.4414 78.8276 24.7384 78.8566C25.0381 78.8808 25.3602 78.9967 25.7047 79.2043C26.2693 79.5446 26.6088 79.922 26.7231 80.3364C26.8375 80.7508 26.7778 81.1679 26.544 81.5877L25.2639 83.8866C25.2367 83.9355 25.1969 83.9669 25.1444 83.9808C25.0966 83.9977 25.0464 83.9903 24.9938 83.9585L24.3981 83.5995C24.3502 83.5707 24.3191 83.5291 24.3046 83.4747C24.2901 83.4204 24.2965 83.3688 24.3237 83.32L24.4827 83.0344C24.2904 83.1272 24.0701 83.1671 23.8216 83.1543C23.5758 83.1366 23.3094 83.0412 23.0223 82.8682ZM23.6577 82.3124C23.9209 82.471 24.1851 82.5129 24.4505 82.4381C24.7158 82.3633 24.9408 82.16 25.1257 81.828L25.2072 81.6816L24.4242 81.3662C23.825 81.1224 23.4453 81.1445 23.2849 81.4325C23.1979 81.5887 23.1922 81.7482 23.2677 81.9111C23.3507 82.0719 23.4807 82.2057 23.6577 82.3124Z" fill="#629BDE"/>
<path d="M27.92 85.2903C27.3501 85.0321 26.9664 84.662 26.7689 84.18C26.5765 83.7005 26.5977 83.1521 26.8325 82.535L26.9059 82.3384C27.1762 81.6944 27.5545 81.262 28.041 81.041C28.5325 80.8223 29.0734 80.8467 29.6636 81.1142C30.2692 81.3887 30.6569 81.7851 30.8269 82.3036C31.002 82.8244 30.9598 83.3939 30.7004 84.0121L30.6323 84.1744C30.6107 84.2259 30.5745 84.2616 30.5237 84.2815C30.473 84.3014 30.4196 84.2987 30.3636 84.2733L27.8295 83.1248L27.8036 83.1867C27.6927 83.4798 27.6685 83.7539 27.731 84.0091C27.8007 84.2614 27.9628 84.4452 28.2172 84.5605C28.5073 84.692 28.7936 84.6807 29.0762 84.5268C29.1458 84.4909 29.1955 84.4735 29.2253 84.4748C29.2572 84.4709 29.3037 84.4827 29.3648 84.5104L30.0364 84.8148C30.0822 84.8356 30.115 84.8658 30.1347 84.9053C30.1595 84.9472 30.1622 84.9914 30.1427 85.0377C30.0909 85.1614 29.9555 85.2748 29.7365 85.3779C29.5249 85.4781 29.2582 85.529 28.9367 85.5304C28.6151 85.5318 28.2762 85.4518 27.92 85.2903ZM29.7768 83.2256L29.7833 83.2102C29.9108 82.9062 29.9361 82.6295 29.8591 82.38C29.7894 82.1277 29.6248 81.9427 29.3653 81.8251C29.1057 81.7075 28.8633 81.708 28.6379 81.8265C28.4146 81.94 28.2392 82.1486 28.1117 82.4526L28.1052 82.468L29.7768 83.2256Z" fill="#629BDE"/>
<path d="M36.3395 83.3882C36.3822 83.4013 36.415 83.4288 36.4379 83.4709C36.4623 83.5076 36.4684 83.5474 36.4561 83.5904L35.3546 87.4591C35.3409 87.5075 35.3134 87.5428 35.2721 87.5653C35.2309 87.5877 35.1862 87.5915 35.1382 87.5768L34.425 87.3584C34.3769 87.3437 34.3415 87.3153 34.3186 87.2733C34.2957 87.2312 34.2912 87.186 34.3049 87.1376L34.9406 84.9051L33.646 86.2086C33.5903 86.2616 33.5391 86.2985 33.4926 86.3193C33.4513 86.3417 33.4013 86.3439 33.3426 86.3259L33.0782 86.245C33.0194 86.227 32.9759 86.1961 32.9477 86.1524C32.9248 86.1104 32.9012 86.0506 32.8768 85.973L32.4715 84.184L31.845 86.3843C31.8312 86.4327 31.8037 86.4681 31.7625 86.4905C31.7213 86.5129 31.674 86.5159 31.6205 86.4996L30.9154 86.2836C30.8673 86.2689 30.8319 86.2405 30.809 86.1985C30.7861 86.1564 30.7816 86.1112 30.7953 86.0629L31.8968 82.1942C31.9075 82.1565 31.9335 82.1265 31.9747 82.1041C32.016 82.0817 32.058 82.077 32.1007 82.0901L32.7818 82.2987C32.8726 82.3265 32.929 82.3934 32.9511 82.4995L33.5391 85.1156L35.403 83.2504C35.4771 83.1737 35.5622 83.1502 35.6584 83.1796L36.3395 83.3882Z" fill="#629BDE"/>
<path d="M39.8759 88.1269C39.8202 88.1226 39.7743 88.0995 39.7382 88.0575C39.702 88.0155 39.686 87.9666 39.6901 87.9109L39.9808 83.9662C39.9853 83.9049 40.0083 83.8591 40.0498 83.8286C40.0917 83.7926 40.1404 83.7767 40.1961 83.781L43.7807 84.056C43.842 84.0607 43.8879 84.0838 43.9184 84.1254C43.955 84.1618 43.971 84.2107 43.9664 84.2719L43.6758 88.2167C43.6717 88.2724 43.6487 88.3183 43.6068 88.3543C43.5705 88.3907 43.5217 88.4066 43.4604 88.4019L42.7586 88.348C42.7029 88.3438 42.657 88.3206 42.6208 88.2786C42.5847 88.2366 42.5687 88.1878 42.5728 88.1321L42.8124 84.881L41.041 84.7451L40.8014 87.9962C40.7973 88.0519 40.7743 88.0978 40.7325 88.1338C40.6906 88.1698 40.6418 88.1857 40.5861 88.1814L39.8759 88.1269Z" fill="#629BDE"/>
<path d="M46.814 88.272C46.1555 88.3033 45.6409 88.1599 45.2702 87.8419C44.8994 87.5239 44.6881 87.0698 44.6361 86.4794L44.6128 86.1114L44.6062 85.7425C44.6103 85.1551 44.7869 84.6853 45.1361 84.3331C45.485 83.9754 45.9831 83.7812 46.6304 83.7505C47.2722 83.72 47.7813 83.8664 48.1579 84.1897C48.5342 84.5074 48.7482 84.9587 48.7999 85.5435C48.8082 85.6102 48.816 85.7329 48.8233 85.9115C48.8305 86.0901 48.8327 86.2131 48.8299 86.2803C48.826 86.8734 48.6523 87.3458 48.3087 87.6977C47.9652 88.0496 47.4669 88.241 46.814 88.272ZM46.7797 87.4263C47.0755 87.4123 47.2977 87.3094 47.4465 87.1178C47.6008 86.9259 47.6763 86.6511 47.673 86.2933C47.6763 86.2372 47.6747 86.1282 47.6681 85.9663C47.6615 85.8044 47.6543 85.6957 47.6465 85.6402C47.6208 85.2834 47.5233 85.0168 47.354 84.8403C47.1845 84.6582 46.9546 84.574 46.6644 84.5878C46.3687 84.6018 46.1437 84.7076 45.9896 84.9051C45.8352 85.0969 45.7597 85.3718 45.7631 85.7296L45.768 86.0565L45.7896 86.3827C45.8153 86.7394 45.9128 87.006 46.0821 87.1826C46.2514 87.3591 46.4839 87.4403 46.7797 87.4263Z" fill="#629BDE"/>
<path d="M53.2743 87.1443C53.2202 87.1582 53.1697 87.151 53.1229 87.1227C53.0762 87.0943 53.0464 87.053 53.0337 86.9986L52.1332 83.147C52.1192 83.0872 52.1273 83.0361 52.1576 82.9937C52.1865 82.9459 52.2281 82.915 52.2822 82.9011L54.084 82.4378C54.6467 82.2931 55.0929 82.2879 55.4226 82.4223C55.7577 82.5553 55.9685 82.8067 56.055 83.1766C56.1058 83.3942 56.106 83.5787 56.0553 83.7302C56.0034 83.8762 55.9077 84.019 55.7683 84.1587C55.978 84.197 56.1547 84.29 56.2982 84.4376C56.4471 84.5839 56.547 84.7658 56.5978 84.9834C56.6907 85.3806 56.6158 85.7228 56.3733 86.0101C56.1307 86.2973 55.728 86.5133 55.1653 86.658L53.2743 87.1443ZM54.4722 84.1719C54.6886 84.1162 54.8482 84.0262 54.9511 83.9017C55.0539 83.7772 55.0856 83.6306 55.0462 83.462C55.008 83.2988 54.9211 83.1971 54.7856 83.157C54.65 83.1169 54.4686 83.1261 54.2413 83.1845L53.308 83.4245L53.5388 84.4119L54.4722 84.1719ZM54.9268 85.9322C55.1486 85.8751 55.3122 85.7898 55.4176 85.6762C55.523 85.5626 55.5559 85.4215 55.5165 85.2528C55.4745 85.0733 55.3851 84.9608 55.2483 84.9152C55.1156 84.8628 54.9302 84.8673 54.6921 84.9285L53.7182 85.1789L53.9528 86.1826L54.9268 85.9322Z" fill="#629BDE"/>
<path d="M59.476 85.215C58.9029 85.4367 58.3876 85.4535 57.9301 85.2653C57.4779 85.075 57.1408 84.6995 56.9188 84.1387L56.7993 83.8256L56.6954 83.5066C56.5151 82.9296 56.5375 82.415 56.7626 81.9627C56.9929 81.5083 57.3946 81.1702 57.9678 80.9485C58.3794 80.7892 58.7519 80.7289 59.0854 80.7675C59.4241 80.8041 59.6994 80.9041 59.9112 81.0677C60.1264 81.2239 60.2736 81.3975 60.3529 81.5884C60.3768 81.639 60.3744 81.6909 60.3457 81.7439C60.3223 81.7948 60.2845 81.8304 60.2324 81.8506L59.5368 82.1197C59.4795 82.1419 59.4341 82.1475 59.4006 82.1365C59.3652 82.1202 59.3234 82.0855 59.275 82.0324C59.126 81.8625 58.9706 81.758 58.8087 81.7188C58.652 81.6777 58.4747 81.6954 58.2767 81.772C58.011 81.8748 57.8323 82.0397 57.7408 82.2668C57.6545 82.4918 57.6676 82.7801 57.7801 83.1318L57.8756 83.4271L57.9756 83.6849C58.2489 84.3575 58.6565 84.589 59.1984 84.3793C59.4016 84.3007 59.5508 84.1951 59.6461 84.0624C59.7395 83.9245 59.7889 83.7377 59.7945 83.502C59.7948 83.436 59.8034 83.3848 59.8201 83.3484C59.8421 83.3099 59.8817 83.2796 59.939 83.2574L60.6346 82.9883C60.6867 82.9681 60.7375 82.9694 60.787 82.9922C60.8417 83.0129 60.8758 83.0507 60.8892 83.1053C60.944 83.2937 60.9418 83.5221 60.8826 83.7905C60.8217 84.0536 60.6775 84.316 60.4501 84.5776C60.2228 84.8392 59.8981 85.0517 59.476 85.215Z" fill="#629BDE"/>
<path d="M63.8294 83.1C63.2761 83.3922 62.7586 83.4635 62.2768 83.3138C61.8 83.1616 61.4081 82.7939 61.1012 82.211L61.0026 82.0263C60.6984 81.3976 60.6193 80.8175 60.7652 80.2858C60.9161 79.7515 61.278 79.3331 61.8511 79.0304C62.4389 78.72 62.9786 78.6623 63.4699 78.8574C63.9662 79.0499 64.3604 79.4479 64.6524 80.0514L64.729 80.2098C64.7534 80.2601 64.7568 80.3119 64.7392 80.3654C64.7217 80.4189 64.6857 80.46 64.6314 80.4887L62.1712 81.7879L62.2004 81.8483C62.3465 82.1247 62.5338 82.3194 62.7621 82.4324C62.993 82.5378 63.2319 82.5253 63.4789 82.3948C63.7605 82.2461 63.9343 82.0091 64.0002 81.6839C64.0179 81.6051 64.0367 81.5541 64.0565 81.531C64.0739 81.5029 64.1122 81.4732 64.1715 81.4419L64.8236 81.0975C64.8681 81.074 64.9112 81.067 64.953 81.0765C64.9998 81.0834 65.0341 81.1094 65.056 81.1547C65.1144 81.2754 65.1121 81.4566 65.0491 81.6982C64.9887 81.9322 64.8567 82.1786 64.6533 82.4376C64.4499 82.6966 64.1753 82.9174 63.8294 83.1ZM63.4838 80.2897L63.4765 80.2746C63.3329 79.9779 63.1444 79.7807 62.9111 79.6829C62.6802 79.5775 62.4388 79.5914 62.1869 79.7244C61.9349 79.8575 61.7811 80.0524 61.7254 80.3091C61.6673 80.5608 61.7101 80.835 61.8536 81.1317L61.8609 81.1468L63.4838 80.2897Z" fill="#629BDE"/>
<path d="M67.2792 75.534C67.3205 75.5053 67.3677 75.4963 67.4209 75.507C67.471 75.513 67.5096 75.5371 67.5366 75.5795L69.6716 78.9292C69.7017 78.9763 69.7111 79.0275 69.7 79.0828C69.6935 79.1349 69.665 79.1784 69.6145 79.2135L69.0294 79.6197C68.9835 79.6516 68.934 79.6622 68.8809 79.6515C68.8277 79.6408 68.7861 79.6119 68.7561 79.5648L67.3193 77.3105L67.1607 80.754C67.1583 80.8645 67.118 80.9468 67.04 81.0009L66.51 81.3689C66.4641 81.4008 66.4161 81.4137 66.3659 81.4078C66.3174 81.3939 66.2781 81.3634 66.2481 81.3163L64.1176 77.9738C64.0845 77.9219 64.0751 77.8707 64.0892 77.8202C64.1003 77.7649 64.1288 77.7213 64.1747 77.6895L64.7598 77.2832C64.8057 77.2514 64.8552 77.2408 64.9083 77.2514C64.9615 77.2621 65.0031 77.291 65.0331 77.3381L66.4699 79.5924L66.6285 76.1489C66.6355 76.0353 66.6757 75.953 66.7492 75.902L67.2792 75.534ZM65.4585 76.1049C65.0684 76.3757 64.7284 76.4861 64.4383 76.4361C64.1452 76.3813 63.9086 76.2126 63.7284 75.9299C63.7044 75.8922 63.6963 75.8536 63.7043 75.8142C63.7092 75.77 63.7323 75.7335 63.7736 75.7049L64.1729 75.4277C64.2142 75.399 64.2553 75.3908 64.2963 75.4031C64.3342 75.4108 64.3652 75.4334 64.3892 75.4711C64.5634 75.7444 64.8042 75.7742 65.1117 75.5608C65.4237 75.3441 65.4927 75.0992 65.3185 74.8259C65.2945 74.7882 65.2865 74.7496 65.2944 74.7101C65.2993 74.6659 65.3224 74.6295 65.3637 74.6008L65.763 74.3236C65.8043 74.295 65.8454 74.2868 65.8864 74.2991C65.9244 74.3068 65.9553 74.3294 65.9794 74.3671C66.1595 74.6498 66.2172 74.9427 66.1523 75.246C66.0844 75.5446 65.8532 75.8309 65.4585 76.1049Z" fill="#629BDE"/>
<path d="M73.439 75.6495C73.4007 75.6901 73.3545 75.7107 73.3003 75.7111C73.2462 75.7116 73.1996 75.6918 73.1606 75.6518L69.3502 71.7476C69.3073 71.7036 69.2836 71.6554 69.2793 71.6031C69.2789 71.5466 69.2997 71.4961 69.3419 71.4514L70.8829 69.8176C71.3468 69.3259 71.8222 69.0538 72.3091 69.0013C72.7961 68.9487 73.2522 69.1404 73.6775 69.5762C74.0989 70.008 74.2867 70.4761 74.2407 70.9804C74.1908 71.4807 73.9339 71.9767 73.47 72.4685L72.6247 73.3646L73.9944 74.7679C74.0373 74.8119 74.059 74.8621 74.0595 74.9186C74.056 74.971 74.0332 75.0196 73.9911 75.0643L73.439 75.6495ZM72.7857 71.8272C73.0081 71.5915 73.1241 71.3587 73.1337 71.1289C73.1433 70.8909 73.0447 70.666 72.8379 70.4541C72.635 70.2462 72.4194 70.1452 72.1913 70.1512C71.9669 70.1531 71.7398 70.276 71.5097 70.5198L70.6817 71.3976L71.9577 72.705L72.7857 71.8272Z" fill="#629BDE"/>
<path d="M77.9848 70.3454C77.5919 70.8748 77.1584 71.178 76.6842 71.255C76.21 71.3319 75.7339 71.196 75.2559 70.8471L74.9636 70.6227L74.6814 70.3848C74.241 69.9946 73.9985 69.5486 73.9537 69.0468C73.9046 68.5415 74.0732 68.0287 74.4594 67.5082C74.8422 66.9923 75.2746 66.6953 75.7565 66.6174C76.234 66.5359 76.7096 66.6679 77.1833 67.0132C77.2388 67.0508 77.3362 67.1256 77.4755 67.2377C77.6148 67.3498 77.7089 67.4291 77.7578 67.4756C78.2025 67.8693 78.4489 68.3148 78.497 68.8121C78.545 69.3094 78.3743 69.8205 77.9848 70.3454ZM77.3254 69.8147C77.5018 69.577 77.5649 69.3375 77.5145 69.0963C77.4674 68.8506 77.3079 68.6111 77.036 68.378C76.9958 68.3385 76.9126 68.2679 76.7864 68.1664C76.6602 68.0648 76.5736 67.9987 76.5268 67.9682C76.2416 67.753 75.9789 67.6526 75.7387 67.6672C75.4942 67.6782 75.2853 67.8003 75.1122 68.0336C74.9358 68.2714 74.8733 68.5149 74.9247 68.7641C74.9718 69.0098 75.1313 69.2492 75.4032 69.4824L75.6528 69.694L75.9124 69.8922C76.1976 70.1074 76.4603 70.2077 76.7005 70.1932C76.9406 70.1787 77.1489 70.0525 77.3254 69.8147Z" fill="#629BDE"/>
<path d="M80.5992 66.1826C80.2903 66.7138 79.899 67.048 79.4252 67.1852C78.9543 67.3176 78.4579 67.2327 77.936 66.9305L77.6482 66.7592L77.3687 66.5734C76.8693 66.2326 76.5667 65.8144 76.4609 65.319C76.3578 64.8186 76.4608 64.3029 76.7697 63.7716C76.9916 63.3901 77.2445 63.1106 77.5285 62.9331C77.8154 62.7508 78.0922 62.6579 78.3591 62.6544C78.624 62.643 78.8468 62.6876 79.0273 62.7881C79.0774 62.813 79.1077 62.8552 79.1184 62.9147C79.1318 62.9693 79.1245 63.0208 79.0964 63.0691L78.7215 63.7139C78.6906 63.767 78.6587 63.7997 78.6257 63.8119C78.588 63.8212 78.5338 63.82 78.463 63.8084C78.2413 63.7678 78.0551 63.7825 77.9045 63.8527C77.7567 63.918 77.6295 64.0424 77.5227 64.2259C77.3795 64.4722 77.3428 64.713 77.4127 64.9483C77.4853 65.1788 77.6749 65.3971 77.9813 65.6032L78.2395 65.7757L78.4777 65.9157C79.1092 66.2737 79.5709 66.2016 79.863 65.6993C79.9725 65.5109 80.0232 65.335 80.0149 65.1715C80.002 65.0049 79.9244 64.8274 79.7821 64.6389C79.7413 64.5868 79.7161 64.5413 79.7065 64.5023C79.6997 64.4584 79.7118 64.4099 79.7427 64.3568L80.1176 63.712C80.1457 63.6637 80.1861 63.6331 80.2389 63.6201C80.2944 63.6023 80.3444 63.6107 80.3889 63.6453C80.5488 63.7592 80.6891 63.9399 80.8099 64.1875C80.926 64.4321 80.9768 64.728 80.9623 65.0751C80.9477 65.4222 80.8267 65.7914 80.5992 66.1826Z" fill="#629BDE"/>
<path d="M82.7689 61.6908C82.5206 62.2529 82.1682 62.6293 81.7117 62.8198C81.2574 63.0053 80.7534 62.9783 80.1998 62.7389L79.8939 62.6022L79.5948 62.4502C79.0592 62.17 78.711 61.7904 78.5502 61.3114C78.3915 60.8274 78.4364 60.3043 78.6846 59.7421C78.8629 59.3384 79.0836 59.0322 79.3467 58.8236C79.612 58.6099 79.8774 58.4859 80.1428 58.4517C80.4054 58.4099 80.6323 58.4284 80.8233 58.5072C80.876 58.5262 80.911 58.5645 80.9282 58.6222C80.9477 58.6748 80.9462 58.7267 80.9236 58.7778L80.6223 59.4601C80.5975 59.5163 80.5693 59.5524 80.5379 59.5683C80.5014 59.5818 80.4472 59.5869 80.3754 59.5836C80.15 59.5688 79.9662 59.6049 79.824 59.6918C79.6842 59.7735 79.5713 59.9115 79.4856 60.1057C79.3705 60.3663 79.3609 60.6093 79.4568 60.8344C79.5549 61.0545 79.7681 61.2491 80.0964 61.4181L80.3729 61.5592L80.6258 61.6707C81.2949 61.9527 81.7468 61.828 81.9815 61.2965C82.0695 61.0972 82.1003 60.917 82.0737 60.7558C82.0422 60.5923 81.945 60.4253 81.7822 60.2548C81.7358 60.2079 81.7056 60.1656 81.6917 60.1281C81.68 60.0854 81.6866 60.0359 81.7114 59.9797L82.0127 59.2974C82.0353 59.2463 82.0721 59.2113 82.1232 59.1924C82.1766 59.1683 82.2273 59.1709 82.2755 59.2001C82.4475 59.2945 82.6075 59.4575 82.7555 59.689C82.8985 59.9181 82.9822 60.2055 83.0066 60.5512C83.0309 60.897 82.9517 61.2768 82.7689 61.6908Z" fill="#629BDE"/>
<path d="M80.8438 53.536C80.8587 53.488 80.8905 53.4515 80.9392 53.4265C80.9825 53.3998 81.0281 53.3944 81.0758 53.4103L84.8434 54.6685C84.8964 54.6862 84.9357 54.7199 84.9612 54.7697C84.9883 54.8141 84.9928 54.8656 84.9746 54.9243L84.7636 55.6046C84.747 55.658 84.7144 55.6972 84.6657 55.7221C84.6171 55.7471 84.5662 55.7507 84.5132 55.733L81.9776 54.8863L83.9884 57.6512C84.055 57.7382 84.0742 57.8271 84.0461 57.9178L83.8549 58.5341C83.8384 58.5874 83.8084 58.6275 83.765 58.6542C83.718 58.6739 83.668 58.6748 83.615 58.6571L79.8553 57.4016C79.797 57.3821 79.7578 57.3484 79.7376 57.3004C79.7121 57.2507 79.7076 57.1992 79.7241 57.1458L79.9352 56.4655C79.9517 56.4121 79.9843 56.3729 80.033 56.348C80.0817 56.323 80.1325 56.3194 80.1855 56.3371L82.7211 57.1838L80.7103 54.4189C80.6454 54.3266 80.6261 54.2377 80.6526 54.1523L80.8438 53.536Z" fill="#629BDE"/>
<path d="M81.6628 48.6823C81.6719 48.6328 81.6991 48.5926 81.7446 48.5617C81.7845 48.5297 81.8292 48.5185 81.8785 48.5281L85.7766 49.2916C85.8315 49.3023 85.8745 49.3307 85.9059 49.3767C85.9382 49.4171 85.9488 49.4676 85.9378 49.5281L85.8094 50.2287C85.7993 50.2837 85.7715 50.3266 85.7261 50.3576C85.6807 50.3885 85.6306 50.3986 85.5757 50.3879L82.9523 49.8741L85.2835 52.3543C85.3602 52.4319 85.3899 52.5175 85.3728 52.6109L85.2565 53.2456C85.2464 53.3005 85.2214 53.344 85.1815 53.3761C85.137 53.4015 85.0874 53.4089 85.0326 53.3981L81.1427 52.6363C81.0824 52.6245 81.0393 52.5961 81.0135 52.5512C80.9821 52.5052 80.9715 52.4548 80.9816 52.3998L81.11 51.6992C81.12 51.6442 81.1478 51.6013 81.1932 51.5703C81.2386 51.5394 81.2888 51.5293 81.3436 51.54L83.967 52.0538L81.6358 49.5736C81.5602 49.4904 81.5304 49.4049 81.5465 49.317L81.6628 48.6823Z" fill="#629BDE"/>
<defs>
<filter id="filter0_d" x="0.140381" y="17.3047" width="85.294" height="85.294" filterUnits="userSpaceOnUse" color-interpolation-filters="sRGB">
<feFlood flood-opacity="0" result="BackgroundImageFix"/>
<feColorMatrix in="SourceAlpha" type="matrix" values="0 0 0 0 0 0 0 0 0 0 0 0 0 0 0 0 0 0 127 0"/>
<feOffset dy="15"/>
<feGaussianBlur stdDeviation="12.5"/>
<feColorMatrix type="matrix" values="0 0 0 0 0.54902 0 0 0 0 0.713726 0 0 0 0 0.905882 0 0 0 0.55 0"/>
<feBlend mode="normal" in2="BackgroundImageFix" result="effect1_dropShadow"/>
<feBlend mode="normal" in="SourceGraphic" in2="effect1_dropShadow" result="shape"/>
</filter>
<clipPath id="clip0">
<rect width="20.2053" height="20.2053" fill="white" transform="translate(2.61865 14.1943) rotate(-42.5265)"/>
</clipPath>
</defs>
</svg>
