<svg width="109" height="102" viewBox="0 0 109 102" fill="none" xmlns="http://www.w3.org/2000/svg">
<path d="M106.496 50.9629C106.496 24.6134 85.1357 3.25293 58.7862 3.25293C32.4367 3.25293 11.0762 24.6134 11.0762 50.9629" stroke="#629BDE" stroke-linecap="round" stroke-linejoin="round"/>
<g clip-path="url(#clip0)">
<path d="M36.2387 8.51701C35.5831 7.83475 34.4125 7.81141 33.7302 8.46699L29.0397 12.9741L18.2198 10.2489L16.5142 11.8878L25.202 16.6617L20.5115 21.1688L17.5933 20.6924L16.3141 21.9216L20.035 24.087L22.0504 27.8914L23.3296 26.6622L22.9699 23.7273L27.6604 19.2202L32.0842 28.0915L33.7898 26.4525L31.4981 15.5326L36.1887 11.0255C36.8709 10.3699 36.8943 9.19927 36.2387 8.51701Z" fill="#629BDE"/>
</g>
<path d="M9.0397 55.7991C9.02865 55.7277 9.04426 55.6631 9.08654 55.6053C9.12881 55.5476 9.18566 55.5132 9.2571 55.5021L16.2331 54.4233C16.3117 54.4111 16.3793 54.4226 16.4359 54.4577C16.4937 54.5 16.5286 54.5604 16.5408 54.639L16.9849 57.5108C17.1186 58.3753 17.0199 59.0854 16.689 59.6413C16.358 60.1972 15.8032 60.5354 15.0245 60.6558C14.253 60.7751 13.6291 60.6193 13.1528 60.1882C12.6836 59.756 12.3822 59.1078 12.2485 58.2434L12.0049 56.6681L9.49741 57.0559C9.41882 57.0681 9.35066 57.053 9.29292 57.0108C9.24232 56.9674 9.21095 56.9064 9.1988 56.8278L9.0397 55.7991ZM13.4404 58.0042C13.5045 58.4185 13.6495 58.7179 13.8756 58.9024C14.1098 59.0929 14.4163 59.1589 14.7949 59.1004C15.1664 59.0429 15.4392 58.891 15.6132 58.6446C15.7883 58.4054 15.8427 58.0715 15.7764 57.6429L15.5378 56.0998L13.2018 56.4611L13.4404 58.0042Z" fill="#629BDE"/>
<path d="M10.8757 64.6929C10.766 64.341 10.7339 63.9951 10.7794 63.6553C10.8339 63.3203 10.9551 63.0288 11.1429 62.781C11.3328 62.5401 11.5727 62.3744 11.8625 62.2841C12.3318 62.1378 12.7705 62.2092 13.1787 62.4984C13.5869 62.7876 13.946 63.2474 14.2561 63.8776L14.9052 65.2313L15.1226 65.1635C15.4194 65.071 15.62 64.9251 15.7245 64.726C15.829 64.5268 15.8296 64.2616 15.7263 63.9304C15.6553 63.7026 15.5569 63.5326 15.431 63.4204C15.3052 63.3082 15.1834 63.2213 15.0658 63.1595C14.9571 63.1025 14.8847 63.0645 14.8485 63.0455C14.7571 63.0437 14.6995 63.0049 14.6759 62.929L14.4241 62.1215C14.4048 62.0594 14.4083 61.9977 14.4346 61.9365C14.4631 61.8822 14.5119 61.8443 14.5809 61.8228C14.7556 61.7759 14.9746 61.7985 15.238 61.8905C15.5105 61.9873 15.7788 62.18 16.043 62.4687C16.314 62.7552 16.527 63.1469 16.6819 63.6438C16.9358 64.4582 16.9379 65.1087 16.6883 65.5954C16.4387 66.0821 16.0172 66.4179 15.4237 66.6029L12.1732 67.6163C12.1042 67.6378 12.038 67.6319 11.9747 67.5987C11.9134 67.5723 11.871 67.5212 11.8473 67.4453L11.5795 66.5861C11.558 66.5171 11.5638 66.4509 11.5971 66.3875C11.6303 66.3241 11.6815 66.2817 11.7505 66.2602L12.1542 66.1343C11.886 66.0513 11.6364 65.8944 11.4055 65.6636C11.1814 65.4305 11.0048 65.107 10.8757 64.6929ZM11.9792 64.7351C12.0975 65.1146 12.3186 65.3865 12.6423 65.5506C12.9661 65.7146 13.3626 65.7235 13.8319 65.5772L14.0389 65.5127L13.5505 64.5292C13.1789 63.7742 12.7895 63.4602 12.3823 63.5872C12.1615 63.656 12.0169 63.7995 11.9486 64.0177C11.8894 64.2406 11.8996 64.4797 11.9792 64.7351Z" fill="#629BDE"/>
<path d="M17.7678 73.2268C17.6302 73.308 17.519 73.3687 17.4341 73.409C17.3492 73.4492 17.2449 73.4907 17.1211 73.5334C16.4524 73.8104 15.8296 73.8296 15.2525 73.5912C14.6755 73.3528 14.2058 72.8514 13.8435 72.0872C13.4595 71.2772 13.3821 70.5739 13.6112 69.9773C13.8469 69.3776 14.3718 68.8647 15.1859 68.4388L15.7691 68.1503L16.3616 67.8814C17.2984 67.4613 18.0622 67.2752 18.653 67.3231C19.2437 67.3711 19.7643 67.6003 20.2149 68.0107C20.672 68.418 21.3087 69.1281 22.1249 70.1411L22.1626 70.1953C22.1874 70.2475 22.1894 70.3026 22.1688 70.3603C22.1578 70.4215 22.1278 70.4678 22.0786 70.4991L21.4825 70.9377L21.4284 70.9754C21.3761 71.0001 21.3227 71.0055 21.268 70.9914C21.2133 70.9773 21.1671 70.9472 21.1292 70.9012C21.0412 70.7829 20.9719 70.6958 20.9213 70.6398C20.3768 69.9299 19.9619 69.4346 19.6768 69.1537C19.4013 68.8764 19.0976 68.7083 18.7658 68.6496C18.4405 68.5878 18.0202 68.6631 17.5049 68.8754C17.7751 68.9393 18.0295 69.0707 18.2678 69.2697C18.5092 69.4753 18.6981 69.7217 18.8343 70.0091C19.1595 70.695 19.2224 71.3172 19.0232 71.8756C18.8239 72.4341 18.4055 72.8845 17.7678 73.2268ZM16.5291 72.158C16.5779 72.1429 16.6644 72.1059 16.7885 72.0471C16.9256 71.982 17.0221 71.9323 17.0778 71.8979C17.4765 71.6928 17.7404 71.4478 17.8692 71.1627C18.0012 70.8841 17.9928 70.5881 17.8442 70.2746C17.6769 69.9218 17.4327 69.6936 17.1116 69.5899C16.7969 69.483 16.4373 69.5175 16.0326 69.6934L15.7341 69.8229L15.484 69.9535C15.0786 70.1616 14.8131 70.4115 14.6874 70.7031C14.5681 70.9917 14.5906 71.309 14.7547 71.6552C14.9188 72.0014 15.1488 72.2164 15.4445 72.3002C15.7498 72.3874 16.1114 72.34 16.5291 72.158Z" fill="#629BDE"/>
<path d="M17.3929 78.1157C16.9232 77.4037 16.7419 76.7351 16.8492 76.1101C16.9565 75.4851 17.3199 74.9465 17.9396 74.4944L18.3319 74.2226L18.7361 73.9689C19.3896 73.5811 20.0267 73.4639 20.6475 73.6172C21.2743 73.7666 21.8186 74.1912 22.2804 74.8912C22.7382 75.5851 22.9124 76.2496 22.8031 76.8846C22.6998 77.5156 22.3414 78.0552 21.7277 78.5034C21.6593 78.5572 21.5285 78.6478 21.3354 78.7752C21.1423 78.9026 21.0076 78.9871 20.9312 79.0289C20.2717 79.4207 19.6336 79.5429 19.0168 79.3956C18.3999 79.2483 17.8587 78.8216 17.3929 78.1157ZM18.307 77.5126C18.518 77.8324 18.7788 78.011 19.0894 78.0486C19.404 78.0922 19.7583 77.9927 20.1524 77.75C20.2168 77.7162 20.3364 77.6416 20.5114 77.5262C20.6864 77.4107 20.8021 77.3301 20.8584 77.2842C21.2366 77.0174 21.4676 76.7308 21.5512 76.4244C21.641 76.1141 21.5823 75.8021 21.3753 75.4883C21.1643 75.1685 20.8985 74.9888 20.5779 74.9492C20.2634 74.9055 19.909 75.0051 19.5149 75.2478L19.1559 75.4716L18.8089 75.7135C18.4307 75.9804 18.1998 76.267 18.1161 76.5733C18.0324 76.8797 18.0961 77.1928 18.307 77.5126Z" fill="#629BDE"/>
<path d="M21.3269 82.9569C21.2793 82.9026 21.2578 82.8397 21.2625 82.7683C21.2672 82.6969 21.2968 82.6373 21.3511 82.5897L24.5235 79.8098L23.3658 78.4887C23.3182 78.4343 23.2967 78.3714 23.3014 78.3C23.3061 78.2286 23.3357 78.1691 23.39 78.1215L23.8712 77.6998C23.931 77.6474 23.9939 77.626 24.0598 77.6354C24.1312 77.6401 24.1908 77.6697 24.2384 77.724L27.4899 81.4346C27.5423 81.4944 27.5638 81.5573 27.5543 81.6233C27.5551 81.6899 27.5255 81.7495 27.4657 81.8019L26.9846 82.2235C26.9302 82.2711 26.8673 82.2926 26.7959 82.2879C26.7293 82.2886 26.6697 82.2591 26.6173 82.1993L25.4596 80.8781L22.2873 83.658C22.2329 83.7057 22.17 83.7271 22.0986 83.7224C22.032 83.7232 21.9725 83.6936 21.9201 83.6338L21.3269 82.9569Z" fill="#629BDE"/>
<path d="M25.9241 87.6479C25.6457 87.4062 25.4365 87.1289 25.2966 86.816C25.1668 86.5023 25.1166 86.1907 25.146 85.8812C25.1808 85.5764 25.2978 85.3094 25.4968 85.0801C25.819 84.7089 26.2298 84.5389 26.729 84.5703C27.2283 84.6016 27.7755 84.8038 28.3706 85.1768L29.6346 85.9869L29.7839 85.8149C29.9876 85.5802 30.0816 85.3506 30.0658 85.1263C30.0499 84.9019 29.911 84.676 29.6489 84.4486C29.4688 84.2922 29.2957 84.1994 29.1297 84.1701C28.9636 84.1408 28.8143 84.1309 28.6817 84.1403C28.5594 84.1489 28.4778 84.1547 28.437 84.1576C28.3583 84.2041 28.2889 84.2013 28.2289 84.1492L27.5902 83.5948C27.541 83.5521 27.5116 83.4978 27.5018 83.4319C27.4975 83.3707 27.519 83.3128 27.5664 83.2583C27.6903 83.1265 27.8885 83.0305 28.161 82.9703C28.4436 82.9093 28.7732 82.9322 29.1497 83.0388C29.5309 83.14 29.918 83.3612 30.3111 83.7023C30.9552 84.2615 31.2991 84.8137 31.3428 85.3589C31.3864 85.9041 31.2045 86.4115 30.7969 86.8809L28.565 89.4521C28.5176 89.5067 28.4583 89.5365 28.3869 89.5416C28.3209 89.5514 28.258 89.5302 28.1979 89.4781L27.5183 88.8881C27.4637 88.8407 27.4339 88.7813 27.4288 88.7099C27.4238 88.6386 27.4449 88.5756 27.4923 88.521L27.7695 88.2016C27.4978 88.2721 27.203 88.2698 26.8851 88.1949C26.572 88.1146 26.2517 87.9322 25.9241 87.6479ZM26.8849 87.1035C27.1851 87.3641 27.5161 87.4791 27.8778 87.4484C28.2394 87.4177 28.5814 87.2168 28.9036 86.8456L29.0457 86.6818L28.1132 86.102C27.4001 85.6553 26.9038 85.593 26.6242 85.9151C26.4725 86.0898 26.425 86.2879 26.4817 86.5094C26.5485 86.7301 26.6829 86.9281 26.8849 87.1035Z" fill="#629BDE"/>
<path d="M32.237 92.3123C31.5572 91.8724 31.1428 91.3287 30.9936 90.681C30.8505 90.0374 30.9985 89.3496 31.4377 88.6178L31.5759 88.3843C32.0668 87.6257 32.6509 87.1556 33.3282 86.9739C34.0115 86.7962 34.7051 86.9351 35.4091 87.3907C36.1313 87.8581 36.5452 88.4359 36.6508 89.1242C36.7625 89.8165 36.5827 90.5267 36.1114 91.255L35.9877 91.4461C35.9484 91.5068 35.8938 91.5447 35.8238 91.5596C35.7539 91.5746 35.6855 91.5605 35.6187 91.5173L32.5965 89.5614L32.5494 89.6342C32.3415 89.982 32.25 90.3231 32.2746 90.6576C32.3092 90.99 32.4782 91.2543 32.7816 91.4507C33.1275 91.6746 33.5001 91.7176 33.8992 91.5798C33.997 91.5484 34.0651 91.5365 34.1032 91.544C34.1454 91.5454 34.2029 91.5697 34.2757 91.6168L35.0768 92.1353C35.1314 92.1706 35.1671 92.2152 35.1838 92.2691C35.2067 92.327 35.2004 92.3832 35.1651 92.4378C35.0708 92.5835 34.8709 92.6995 34.5653 92.7859C34.2697 92.8701 33.9139 92.8809 33.498 92.8184C33.0821 92.7559 32.6618 92.5872 32.237 92.3123ZM35.0908 90.0778L35.1026 90.0596C35.3343 89.7016 35.4279 89.3574 35.3833 89.0272C35.3487 88.6948 35.1766 88.4285 34.8671 88.2282C34.5576 88.0279 34.2442 87.98 33.9268 88.0846C33.6133 88.1831 33.3407 88.4114 33.109 88.7694L33.0972 88.7877L35.0908 90.0778Z" fill="#629BDE"/>
<path d="M44.0716 91.8183C44.1243 91.8419 44.1616 91.8824 44.1835 91.9397C44.2083 91.9905 44.2088 92.0422 44.1852 92.095L42.0558 96.8442C42.0292 96.9036 41.9872 96.9442 41.9299 96.966C41.8726 96.9878 41.8142 96.9854 41.7549 96.9588L40.8743 96.564C40.8149 96.5374 40.7743 96.4954 40.7525 96.4381C40.7307 96.3808 40.7331 96.3224 40.7597 96.2631L41.9885 93.5224L40.0791 94.9716C39.9974 95.0301 39.9246 95.0687 39.8607 95.0876C39.8034 95.1094 39.7385 95.1041 39.6659 95.0715L39.3394 94.9251C39.2668 94.8926 39.2163 94.8462 39.1879 94.7859C39.1661 94.7286 39.1465 94.6485 39.1292 94.5457L38.9332 92.2L37.7222 94.9012C37.6955 94.9605 37.6536 95.0011 37.5962 95.023C37.5389 95.0448 37.4773 95.0409 37.4113 95.0113L36.5406 94.621C36.4813 94.5943 36.4407 94.5524 36.4188 94.4951C36.397 94.4377 36.3994 94.3794 36.426 94.32L38.5554 89.5708C38.5761 89.5246 38.6151 89.4906 38.6724 89.4688C38.7297 89.447 38.7848 89.4479 38.8375 89.4715L39.6785 89.8486C39.7907 89.8989 39.8513 89.9934 39.8604 90.1321L40.1409 93.5615L42.888 91.4896C42.9976 91.4041 43.1118 91.388 43.2306 91.4412L44.0716 91.8183Z" fill="#629BDE"/>
<path d="M48.2496 98.6932C48.1785 98.6801 48.1226 98.6441 48.082 98.5852C48.0414 98.5263 48.0276 98.4613 48.0407 98.3902L48.9661 93.3565C48.9805 93.2783 49.0165 93.2225 49.0741 93.189C49.133 93.1483 49.198 93.1346 49.2691 93.1476L53.8442 93.9888C53.9224 94.0031 53.9782 94.0391 54.0118 94.0967C54.0537 94.1485 54.0675 94.2136 54.0531 94.2918L53.1276 99.3254C53.1146 99.3965 53.0786 99.4523 53.0197 99.493C52.9679 99.5349 52.9029 99.5487 52.8246 99.5343L51.9288 99.3696C51.8577 99.3565 51.8019 99.3205 51.7613 99.2616C51.7206 99.2027 51.7069 99.1377 51.7199 99.0666L52.4826 94.9181L50.2218 94.5024L49.4591 98.6509C49.446 98.722 49.41 98.7779 49.3511 98.8185C49.2922 98.8591 49.2272 98.8729 49.1561 98.8598L48.2496 98.6932Z" fill="#629BDE"/>
<path d="M57.8518 99.8992C56.9993 99.8674 56.35 99.6263 55.9038 99.1756C55.4576 98.725 55.2307 98.1162 55.2231 97.3491L55.23 96.8719L55.2586 96.3956C55.3229 95.6384 55.5979 95.0518 56.0836 94.6359C56.5695 94.2127 57.2315 94.0167 58.0695 94.0479C58.9002 94.0788 59.5421 94.3233 59.9953 94.7814C60.4487 95.2323 60.6794 95.8377 60.6873 96.5975C60.6913 96.6845 60.689 96.8436 60.6804 97.0747C60.6718 97.3059 60.6622 97.4647 60.6518 97.5511C60.5872 98.3155 60.3157 98.9058 59.8372 99.322C59.3588 99.7382 58.6969 99.9306 57.8518 99.8992ZM57.8925 98.8048C58.2753 98.819 58.5723 98.7107 58.7835 98.4798C59.0018 98.2492 59.1268 97.9031 59.1585 97.4413C59.1684 97.3693 59.1772 97.2286 59.185 97.0191C59.1928 96.8096 59.1945 96.6686 59.1899 96.5961C59.1927 96.1332 59.0937 95.7787 58.8931 95.5325C58.6928 95.2791 58.4048 95.1454 58.0291 95.1315C57.6463 95.1172 57.3455 95.229 57.1269 95.4668C56.9086 95.6974 56.7835 96.0436 56.7519 96.5054L56.7253 96.9276L56.7204 97.3506C56.7177 97.8134 56.8166 98.1679 57.0172 98.4141C57.2179 98.6603 57.5096 98.7905 57.8925 98.8048Z" fill="#629BDE"/>
<path d="M66.7599 99.1709C66.6888 99.1842 66.6238 99.1707 66.5647 99.1304C66.5056 99.09 66.4694 99.0343 66.456 98.9632L65.5098 93.9335C65.4951 93.8553 65.5086 93.7903 65.5503 93.7383C65.5907 93.6792 65.6464 93.643 65.7174 93.6296L68.0831 93.1846C68.8219 93.0456 69.4015 93.0763 69.8217 93.2768C70.249 93.4759 70.5081 93.817 70.5989 94.3001C70.6524 94.5843 70.6419 94.8216 70.5674 95.0122C70.4916 95.1956 70.3591 95.3713 70.1701 95.5393C70.4401 95.6062 70.664 95.7406 70.8417 95.9425C71.0266 96.1431 71.1457 96.3855 71.1992 96.6697C71.2968 97.1883 71.1798 97.6222 70.8483 97.9714C70.5168 98.3207 69.9816 98.5648 69.2428 98.7038L66.7599 99.1709ZM68.4868 95.4477C68.771 95.3943 68.9834 95.2918 69.1241 95.1403C69.2647 94.9888 69.3144 94.8029 69.2729 94.5827C69.2328 94.3695 69.126 94.2315 68.9523 94.1685C68.7786 94.1056 68.5426 94.1022 68.2442 94.1583L67.0188 94.3888L67.2613 95.6783L68.4868 95.4477ZM68.9751 97.7501C69.2664 97.6953 69.4837 97.5993 69.627 97.462C69.7704 97.3247 69.8213 97.1459 69.7799 96.9257C69.7358 96.6912 69.6262 96.539 69.4512 96.4689C69.282 96.3904 69.0411 96.3806 68.7285 96.4394L67.4498 96.6799L67.6963 97.9907L68.9751 97.7501Z" fill="#629BDE"/>
<path d="M75.7094 96.971C74.9562 97.226 74.283 97.2211 73.6897 96.9565C73.1032 96.6895 72.6711 96.1909 72.3934 95.4607L72.244 95.0533L72.1152 94.639C71.8922 93.8903 71.9326 93.2317 72.2362 92.6634C72.5467 92.0927 73.0786 91.6799 73.8317 91.4249C74.3726 91.2418 74.8604 91.1835 75.2951 91.25C75.7366 91.3142 76.0938 91.4566 76.3669 91.677C76.6445 91.8883 76.833 92.1183 76.9325 92.367C76.9625 92.4332 76.9583 92.4995 76.9197 92.5659C76.888 92.6301 76.8379 92.6738 76.7695 92.6969L75.8554 93.0064C75.7801 93.0319 75.7206 93.0368 75.6771 93.021C75.6313 92.9983 75.5774 92.9517 75.5153 92.8811C75.3245 92.6557 75.1238 92.5138 74.9133 92.4554C74.7095 92.3946 74.4776 92.4082 74.2174 92.4963C73.8682 92.6146 73.6314 92.8168 73.507 93.1032C73.3895 93.3872 73.4003 93.7575 73.5396 94.214L73.658 94.5975L73.7831 94.9329C74.1255 95.8091 74.6528 96.1267 75.3648 95.8856C75.6319 95.7952 75.829 95.6674 75.9563 95.5022C76.0812 95.3302 76.1498 95.0933 76.1621 94.7915C76.164 94.7069 76.1762 94.6417 76.1989 94.5958C76.2284 94.5477 76.2808 94.5109 76.3561 94.4854L77.2702 94.1759C77.3386 94.1527 77.405 94.157 77.4691 94.1887C77.5401 94.2181 77.5838 94.2682 77.6001 94.3389C77.6676 94.5832 77.6598 94.8759 77.5768 95.2169C77.4915 95.551 77.2976 95.88 76.9951 96.2037C76.6926 96.5275 76.264 96.7832 75.7094 96.971Z" fill="#629BDE"/>
<path d="M82.1633 94.1361C81.4403 94.5006 80.7617 94.5837 80.1274 94.3853C79.4996 94.1837 78.9808 93.7086 78.571 92.9599L78.4392 92.7227C78.0325 91.9159 77.9217 91.1743 78.107 90.498C78.2988 89.8185 78.769 89.29 79.5178 88.9125C80.2859 88.5253 80.9937 88.4599 81.6411 88.7164C82.295 88.9696 82.8171 89.4836 83.2076 90.2582L83.3101 90.4615C83.3427 90.526 83.3477 90.5923 83.3253 90.6603C83.3029 90.7282 83.2562 90.7801 83.1852 90.8159L79.9707 92.4364L80.0097 92.5139C80.2049 92.8689 80.453 93.1202 80.7541 93.2679C81.0585 93.4059 81.372 93.3936 81.6948 93.2309C82.0627 93.0454 82.288 92.7456 82.3707 92.3315C82.393 92.2312 82.417 92.1665 82.4428 92.1373C82.4653 92.1017 82.5153 92.0644 82.5928 92.0253L83.4448 91.5958C83.5029 91.5665 83.5594 91.5582 83.6144 91.571C83.6759 91.5805 83.7213 91.6142 83.7506 91.6723C83.8287 91.8273 83.8278 92.0584 83.748 92.3658C83.6714 92.6635 83.5011 92.976 83.2371 93.3034C82.9731 93.6308 82.6151 93.9084 82.1633 94.1361ZM81.6762 90.5445L81.6665 90.5251C81.4745 90.1442 81.2247 89.8897 80.9172 89.7614C80.6128 89.6234 80.296 89.6373 79.9668 89.8033C79.6376 89.9693 79.438 90.2156 79.368 90.5424C79.2947 90.8627 79.354 91.2132 79.546 91.5941L79.5558 91.6134L81.6762 90.5445Z" fill="#629BDE"/>
<path d="M89.8016 89.0709C89.7463 89.1174 89.6829 89.1375 89.6117 89.1313C89.5404 89.1251 89.4815 89.0943 89.435 89.0389L84.8965 83.6324C84.8453 83.5715 84.8201 83.5078 84.8208 83.4411C84.827 83.3698 84.8606 83.3086 84.9215 83.2575L87.1472 81.3891C87.8171 80.8267 88.4755 80.543 89.1225 80.5378C89.7694 80.5327 90.3462 80.8319 90.8528 81.4354C91.3548 82.0334 91.5449 82.6477 91.4231 83.2784C91.2967 83.9037 90.8986 84.4974 90.2287 85.0598L89.0078 86.0847L90.6392 88.028C90.6903 88.0889 90.7128 88.155 90.7066 88.2263C90.6957 88.292 90.6598 88.3505 90.5989 88.4016L89.8016 89.0709ZM89.4063 84.1645C89.7274 83.895 89.9083 83.6157 89.9489 83.3268C89.9904 83.0277 89.888 82.7314 89.6416 82.438C89.4 82.1501 89.1287 81.9956 88.8278 81.9744C88.5325 81.9487 88.2187 82.0752 87.8865 82.3541L86.6906 83.358L88.2104 85.1685L89.4063 84.1645Z" fill="#629BDE"/>
<path d="M97.0299 82.2406C96.4651 82.8798 95.867 83.2292 95.2356 83.2887C94.6043 83.3482 93.9895 83.1378 93.3914 82.6575L93.0267 82.3497L92.6763 82.0257C92.1315 81.496 91.8521 80.9115 91.8382 80.2722C91.8189 79.6281 92.0868 78.9919 92.6421 78.3635C93.1925 77.7405 93.7886 77.399 94.4301 77.3389C95.0663 77.274 95.6807 77.4793 96.2734 77.9548C96.3432 78.0068 96.4648 78.1094 96.6381 78.2625C96.8115 78.4157 96.9283 78.5237 96.9885 78.5866C97.5387 79.121 97.8232 79.7052 97.8419 80.3391C97.8606 80.973 97.5899 81.6068 97.0299 82.2406ZM96.2092 81.5155C96.4629 81.2284 96.5674 80.93 96.5226 80.6203C96.4827 80.3053 96.2941 79.9892 95.957 79.672C95.9076 79.6187 95.8044 79.5227 95.6473 79.3839C95.4902 79.2451 95.3822 79.1544 95.3232 79.112C94.967 78.8165 94.63 78.6683 94.3125 78.6674C93.9895 78.6618 93.7035 78.7998 93.4546 79.0815C93.201 79.3686 93.0968 79.6721 93.1422 79.9919C93.1821 80.3069 93.3706 80.6231 93.7078 80.9402L94.0175 81.2284L94.3416 81.5003C94.6978 81.7958 95.0347 81.9439 95.3523 81.9448C95.6699 81.9457 95.9555 81.8026 96.2092 81.5155Z" fill="#629BDE"/>
<path d="M101.176 76.6191C100.738 77.2828 100.203 77.6924 99.5725 77.8478C98.9456 77.9971 98.2984 77.8689 97.6308 77.4631L97.2628 77.2333L96.9068 76.9854C96.271 76.5314 95.8985 75.9868 95.7892 75.3518C95.6838 74.7107 95.8501 74.0583 96.288 73.3946C96.6025 72.9179 96.9517 72.5724 97.3356 72.358C97.7235 72.1376 98.0929 72.0306 98.4438 72.0369C98.7926 72.0332 99.0827 72.099 99.3139 72.2342C99.3782 72.268 99.4156 72.3229 99.426 72.3991C99.4403 72.4692 99.4276 72.5344 99.3878 72.5947L98.8564 73.4003C98.8126 73.4666 98.7687 73.5069 98.7246 73.5212C98.6745 73.5315 98.6034 73.5278 98.511 73.5102C98.222 73.4494 97.9765 73.4606 97.7744 73.5438C97.5763 73.6209 97.4016 73.7742 97.2503 74.0035C97.0473 74.3112 96.9846 74.6162 97.0622 74.9186C97.1439 75.2149 97.3798 75.5005 97.7701 75.7753L98.099 76.0053L98.4036 76.1933C99.2119 76.6746 99.8231 76.6015 100.237 75.974C100.392 75.7386 100.469 75.5167 100.468 75.3082C100.461 75.0957 100.37 74.8666 100.195 74.6208C100.144 74.5529 100.114 74.4939 100.103 74.4438C100.097 74.3877 100.116 74.3265 100.16 74.2601L100.691 73.4546C100.731 73.3943 100.786 73.3569 100.856 73.3425C100.93 73.3221 100.995 73.3348 101.052 73.3807C101.255 73.5321 101.428 73.7678 101.572 74.0879C101.71 74.404 101.759 74.7827 101.719 75.224C101.679 75.6653 101.498 76.1303 101.176 76.6191Z" fill="#629BDE"/>
<path d="M104.529 70.4193C104.188 71.1378 103.716 71.6182 103.114 71.8604C102.514 72.0961 101.855 72.0597 101.137 71.7514L100.741 71.5754L100.353 71.3798C99.6603 71.0193 99.2152 70.5323 99.018 69.9188C98.824 69.2988 98.8972 68.6295 99.2379 67.911C99.4825 67.395 99.7799 67.004 100.13 66.7379C100.483 66.4654 100.834 66.3077 101.182 66.2648C101.527 66.2123 101.824 66.2368 102.071 66.3383C102.14 66.3628 102.185 66.412 102.205 66.4859C102.23 66.5533 102.226 66.6197 102.195 66.685L101.782 67.557C101.748 67.6288 101.71 67.6749 101.668 67.6952C101.62 67.7123 101.549 67.7187 101.455 67.7142C101.161 67.6945 100.919 67.74 100.731 67.8506C100.545 67.9548 100.394 68.1309 100.276 68.3791C100.118 68.7123 100.099 69.0231 100.218 69.3116C100.34 69.5936 100.614 69.8433 101.039 70.0608L101.397 70.2424L101.725 70.3859C102.592 70.7493 103.187 70.5913 103.509 69.912C103.63 69.6572 103.675 69.4267 103.645 69.2204C103.608 69.011 103.486 68.7969 103.278 68.5782C103.218 68.518 103.18 68.4638 103.163 68.4157C103.149 68.361 103.159 68.2977 103.193 68.2259L103.606 67.3539C103.637 67.2885 103.686 67.2438 103.754 67.2198C103.824 67.1892 103.89 67.1927 103.953 67.2302C104.175 67.3516 104.38 67.5607 104.567 67.8575C104.748 68.1512 104.849 68.5193 104.872 68.9619C104.894 69.4044 104.78 69.8902 104.529 70.4193Z" fill="#629BDE"/>
<path d="M102.285 59.5141C102.304 59.4519 102.345 59.4041 102.409 59.3705C102.465 59.3349 102.524 59.3267 102.586 59.3458L107.499 60.8551C107.568 60.8764 107.62 60.9186 107.653 60.9818C107.689 61.0382 107.695 61.1043 107.672 61.1803L107.401 62.0614C107.38 62.1305 107.338 62.1818 107.274 62.2153C107.211 62.2488 107.145 62.2549 107.076 62.2337L103.769 61.2179L106.404 64.7157C106.491 64.8257 106.517 64.9394 106.481 65.0569L106.236 65.855C106.214 65.9241 106.176 65.9764 106.119 66.0121C106.058 66.0387 105.993 66.0414 105.924 66.0201L101.021 64.5139C100.945 64.4906 100.894 64.4483 100.867 64.3872C100.834 64.324 100.828 64.2578 100.849 64.1887L101.12 63.3077C101.141 63.2386 101.183 63.1873 101.246 63.1538C101.309 63.1203 101.376 63.1141 101.445 63.1354L104.751 64.1512L102.117 60.6534C102.031 60.5365 102.006 60.4228 102.04 60.3122L102.285 59.5141Z" fill="#629BDE"/>
<path d="M103.261 52.9595C103.27 52.8952 103.304 52.8418 103.361 52.7993C103.412 52.7557 103.469 52.7387 103.534 52.7484L108.616 53.5129C108.688 53.5237 108.745 53.5579 108.787 53.6154C108.831 53.6658 108.846 53.7304 108.835 53.809L108.698 54.7204C108.687 54.7919 108.653 54.8489 108.595 54.8914C108.538 54.9339 108.473 54.9498 108.402 54.939L104.981 54.4245L108.105 57.4932C108.208 57.589 108.25 57.6977 108.231 57.8192L108.107 58.6449C108.096 58.7163 108.066 58.7739 108.015 58.8175C107.959 58.8528 107.895 58.8651 107.823 58.8544L102.752 58.0914C102.673 58.0796 102.616 58.0455 102.581 57.989C102.538 57.9314 102.522 57.8669 102.533 57.7954L102.67 56.884C102.681 56.8125 102.715 56.7555 102.773 56.713C102.83 56.6705 102.895 56.6546 102.966 56.6653L106.387 57.1799L103.263 54.1112C103.161 54.0082 103.119 53.8995 103.136 53.7852L103.261 52.9595Z" fill="#629BDE"/>
<g filter="url(#filter0_d)">
<rect x="35.7842" y="46.626" width="32.5296" height="32.5296" rx="16.2648" transform="rotate(-45 35.7842 46.626)" fill="#629BDE"/>
</g>
<defs>
<filter id="filter0_d" x="0.78418" y="23.624" width="116.004" height="116.004" filterUnits="userSpaceOnUse" color-interpolation-filters="sRGB">
<feFlood flood-opacity="0" result="BackgroundImageFix"/>
<feColorMatrix in="SourceAlpha" type="matrix" values="0 0 0 0 0 0 0 0 0 0 0 0 0 0 0 0 0 0 127 0"/>
<feOffset dy="35"/>
<feGaussianBlur stdDeviation="17.5"/>
<feColorMatrix type="matrix" values="0 0 0 0 0.54902 0 0 0 0 0.713726 0 0 0 0 0.905882 0 0 0 0.55 0"/>
<feBlend mode="normal" in2="BackgroundImageFix" result="effect1_dropShadow"/>
<feBlend mode="normal" in="SourceGraphic" in2="effect1_dropShadow" result="shape"/>
</filter>
<clipPath id="clip0">
<rect width="23.6546" height="23.6546" fill="white" transform="translate(11 15.9893) rotate(-42.5265)"/>
</clipPath>
</defs>
</svg>
