<svg width="25" height="25" viewBox="0 0 25 25" fill="none" xmlns="http://www.w3.org/2000/svg">
<path d="M18.8076 5.37417L19.8601 3.795L19.8476 3.78667C19.9359 3.655 20.0001 3.50417 20.0001 3.33333C20.0001 2.8725 19.6267 2.5 19.1667 2.5C18.8776 2.5 18.6359 2.65667 18.4859 2.87917L18.4734 2.87083L17.3809 4.50917C16.1451 3.885 14.7759 3.485 13.3242 3.375C13.3259 3.36 13.3334 3.34833 13.3334 3.33333V1.66667H15.0001C15.4601 1.66667 15.8334 1.29417 15.8334 0.833333C15.8334 0.3725 15.4601 0 15.0001 0H10.0001C9.54008 0 9.16675 0.3725 9.16675 0.833333C9.16675 1.29417 9.54008 1.66667 10.0001 1.66667H11.6667V3.33333C11.6667 3.34833 11.6742 3.36 11.6751 3.375C6.07841 3.79833 1.66675 8.46167 1.66675 14.1667C1.66675 20.15 6.51675 25 12.5001 25C18.4834 25 23.3334 20.15 23.3334 14.1667C23.3334 10.54 21.5451 7.33833 18.8076 5.37417ZM12.5001 23.3333C7.43758 23.3333 3.33341 19.2292 3.33341 14.1667C3.33341 9.10417 7.43758 5 12.5001 5C17.5626 5 21.6667 9.10417 21.6667 14.1667C21.6667 19.2292 17.5626 23.3333 12.5001 23.3333Z" fill="#05C8B2"/>
<path d="M18.0792 8.58831C17.7392 8.24831 17.1876 8.24831 16.8476 8.58831L11.9217 13.5133C11.5817 13.8533 11.5817 14.405 11.9217 14.7458C12.2617 15.085 12.8126 15.085 13.1526 14.7458L18.0784 9.81998C18.4184 9.47915 18.4184 8.92831 18.0792 8.58831Z" fill="#05C8B2"/>
</svg>
