<svg width="102" height="41" viewBox="0 0 102 41" fill="none" xmlns="http://www.w3.org/2000/svg">
<g clip-path="url(#clip0)">
<path d="M16.5635 0H11.2082C5.85288 0 1.24482 4.00141 1.24482 11.7541C1.24482 16.3808 3.48658 19.882 7.34739 21.6326L0.123946 34.6372C-0.125139 35.0124 0.123946 35.3875 0.497572 35.3875H3.86021C4.10929 35.3875 4.35838 35.2625 4.48292 35.0124L11.0837 22.2579H13.45V35.0124C13.45 35.1374 13.5745 35.3875 13.8236 35.3875H16.8126C17.0617 35.3875 17.1862 35.2625 17.1862 35.0124V0.500177C17.0617 0.125044 16.9371 0 16.5635 0ZM13.45 19.2568H11.4573C2.86387 19.2568 3.48658 3.00106 11.0837 3.00106H13.5745V19.2568H13.45Z" fill="#FF0000"/>
<path d="M34.4982 11.7541H31.5091C31.2601 11.7541 31.1355 11.8792 31.1355 12.1293V21.1324H25.6557V12.1293C25.6557 11.8792 25.5311 11.7541 25.282 11.7541H22.4176C22.1685 11.7541 22.0439 11.8792 22.0439 12.1293V35.0123C22.0439 35.2624 22.1685 35.3875 22.4176 35.3875H25.4066C25.6557 35.3875 25.7802 35.2624 25.7802 35.0123V24.0084H31.2601V35.0123C31.2601 35.2624 31.3846 35.3875 31.6337 35.3875H34.6227C34.8718 35.3875 34.9963 35.2624 34.9963 35.0123V12.1293C34.8718 11.8792 34.7472 11.7541 34.4982 11.7541ZM101.751 32.2614C101.751 32.1363 101.626 32.1363 101.502 32.1363C100.256 32.1363 92.6593 35.7626 92.6593 23.7584C92.6593 18.5065 94.652 11.1289 99.3846 15.5054C99.5091 15.6305 99.6337 15.6305 99.7582 15.6305C99.8828 15.6305 100.007 15.5054 100.132 15.2554L101.377 13.1296C101.502 13.0046 101.502 12.8795 101.502 12.7545C101.502 12.5044 101.253 12.3793 101.004 12.2543C92.7839 8.12784 88.5494 15.7555 88.5494 24.6337C88.5494 36.1377 96.8938 37.7633 101.626 34.2621C101.875 34.137 101.875 33.8869 101.875 33.7619L101.751 32.2614ZM81.326 22.3829L87.0549 12.0042C87.1795 11.8792 87.0549 11.6291 86.9304 11.6291H84.0659C83.1941 11.6291 82.945 11.8792 82.696 12.5044C82.4469 13.1296 78.2124 22.0077 77.7143 22.3829V12.0042C77.7143 11.8792 77.5897 11.6291 77.4652 11.6291H74.3516C74.2271 11.6291 74.1026 11.7541 74.1026 12.0042V35.0123C74.1026 35.1374 74.2271 35.3875 74.3516 35.3875H77.4652C77.7143 35.3875 77.7143 35.2624 77.7143 35.0123V23.1331C78.0879 23.3832 83.3187 34.2621 83.4432 34.6372C83.6923 35.1374 84.1905 35.3875 84.8132 35.3875H87.9267C88.1758 35.3875 88.1758 35.2624 88.0513 35.0123L81.326 22.3829ZM54.0513 32.3864H53.4286C52.6813 32.3864 52.5568 32.1363 52.5568 31.5111V12.0042C52.5568 11.7541 52.4322 11.6291 52.3077 11.6291H42.7179C42.4689 11.6291 42.3443 11.7541 42.3443 12.0042C42.3443 17.2561 42.4689 26.0092 38.9817 32.3864H37.9853C37.7363 32.3864 37.6117 32.5115 37.6117 32.7615V39.639C37.6117 39.8891 37.8608 40.0141 37.9853 40.0141H40.2271C40.7253 40.0141 40.9743 39.639 40.9743 39.2638V35.3875H51.0623V39.639C51.0623 39.764 51.1868 40.0141 51.4359 40.0141H53.9267C54.1758 40.0141 54.5494 39.764 54.5494 39.2638V32.7615C54.4249 32.5115 54.3004 32.3864 54.0513 32.3864ZM48.8205 32.3864H41.8461C43.8388 29.1353 45.7069 23.8834 45.7069 14.6301H48.8205V32.3864ZM63.7656 11.1289C58.6593 11.1289 56.293 17.5062 56.293 24.5086C56.293 36.0127 64.2637 37.7633 69.7436 34.3871C69.9927 34.2621 69.9927 34.137 69.9927 34.012L69.619 32.3864C69.619 32.2614 69.4945 32.1363 69.2454 32.1363C67.2527 32.1363 60.2784 35.6376 60.2784 24.2585C62.7692 24.5086 62.7692 24.5086 70.2417 24.5086C70.1172 18.7566 69.4945 11.1289 63.7656 11.1289ZM60.4029 21.6326C60.4029 12.5044 66.3809 10.7538 66.3809 21.3825C63.7656 21.3825 62.6447 21.3825 60.4029 21.6326Z" fill="black"/>
</g>
<defs>
<clipPath id="clip0">
<rect width="102" height="40.2044" fill="white"/>
</clipPath>
</defs>
</svg>
